<?xml version="1.0" encoding="UTF-8"?>
<svg xmlns="http://www.w3.org/2000/svg" xmlns:xlink="http://www.w3.org/1999/xlink" width="600pt" height="450pt" viewBox="0 0 600 450" version="1.1">
<defs>
<g>
<symbol overflow="visible" id="wyE9rwEQ0-0">
<path style="stroke:none;" d="M 0 0 L 6 0 L 6 -8.40625 L 0 -8.40625 Z M 3 -4.734375 L 0.953125 -7.796875 L 5.046875 -7.796875 Z M 3.359375 -4.203125 L 5.40625 -7.265625 L 5.40625 -1.140625 Z M 0.953125 -0.59375 L 3 -3.65625 L 5.046875 -0.59375 Z M 0.59375 -7.265625 L 2.640625 -4.203125 L 0.59375 -1.140625 Z M 0.59375 -7.265625 "/>
</symbol>
<symbol overflow="visible" id="wyE9rwEQ0-1">
<path style="stroke:none;" d="M 0.3125 -4.25 C 0.3125 -2.40625 0.734375 0.140625 3.125 0.140625 C 5.515625 0.140625 5.921875 -2.40625 5.921875 -4.25 C 5.921875 -6.09375 5.515625 -8.640625 3.125 -8.640625 C 0.734375 -8.640625 0.3125 -6.09375 0.3125 -4.25 Z M 1.109375 -4.25 C 1.109375 -5.5625 1.3125 -7.984375 3.125 -7.984375 C 4.921875 -7.984375 5.140625 -5.5625 5.140625 -4.25 C 5.140625 -2.921875 4.921875 -0.5 3.125 -0.5 C 1.3125 -0.5 1.109375 -2.921875 1.109375 -4.25 Z M 1.109375 -4.25 "/>
</symbol>
<symbol overflow="visible" id="wyE9rwEQ1-0">
<path style="stroke:none;" d="M 0 0 L 6 0 L 6 -8.40625 L 0 -8.40625 Z M 3 -4.734375 L 0.953125 -7.796875 L 5.046875 -7.796875 Z M 3.359375 -4.203125 L 5.40625 -7.265625 L 5.40625 -1.140625 Z M 0.953125 -0.59375 L 3 -3.65625 L 5.046875 -0.59375 Z M 0.59375 -7.265625 L 2.640625 -4.203125 L 0.59375 -1.140625 Z M 0.59375 -7.265625 "/>
</symbol>
<symbol overflow="visible" id="wyE9rwEQ1-1">
<path style="stroke:none;" d="M 0.484375 0 L 5.75 0 L 5.75 -0.640625 L 1.28125 -0.640625 L 3.9375 -3.375 C 4.8125 -4.265625 5.6875 -5.140625 5.6875 -6.46875 C 5.6875 -7.84375 4.546875 -8.640625 3.234375 -8.640625 C 1.9375 -8.640625 0.9375 -7.984375 0.65625 -6.6875 L 1.5 -6.59375 C 1.6875 -7.421875 2.328125 -7.984375 3.203125 -7.984375 C 4.171875 -7.984375 4.890625 -7.390625 4.890625 -6.40625 C 4.890625 -5.5 4.25 -4.796875 3.6875 -4.21875 L 0.484375 -0.84375 Z M 0.484375 0 "/>
</symbol>
<symbol overflow="visible" id="wyE9rwEQ2-0">
<path style="stroke:none;" d="M 0 0 L 6 0 L 6 -8.40625 L 0 -8.40625 Z M 3 -4.734375 L 0.953125 -7.796875 L 5.046875 -7.796875 Z M 3.359375 -4.203125 L 5.40625 -7.265625 L 5.40625 -1.140625 Z M 0.953125 -0.59375 L 3 -3.65625 L 5.046875 -0.59375 Z M 0.59375 -7.265625 L 2.640625 -4.203125 L 0.59375 -1.140625 Z M 0.59375 -7.265625 "/>
</symbol>
<symbol overflow="visible" id="wyE9rwEQ2-1">
<path style="stroke:none;" d="M 3.953125 0 L 4.671875 0 L 4.671875 -2.09375 L 5.96875 -2.09375 L 5.96875 -2.734375 L 4.671875 -2.734375 L 4.671875 -8.5 L 3.671875 -8.5 L 0.28125 -2.9375 L 0.28125 -2.09375 L 3.953125 -2.09375 Z M 3.953125 -2.734375 L 0.921875 -2.734375 L 3.921875 -7.703125 L 3.953125 -7.703125 Z M 3.953125 -2.734375 "/>
</symbol>
<symbol overflow="visible" id="wyE9rwEQ2-2">
<path style="stroke:none;" d="M 4.328125 -8.5 L 3.421875 -8.5 L 1.109375 -4.671875 C 0.78125 -4.109375 0.34375 -3.390625 0.34375 -2.5 C 0.34375 -0.953125 1.515625 0.140625 3.125 0.140625 C 4.734375 0.140625 5.90625 -0.953125 5.90625 -2.5 C 5.90625 -3.953125 4.8125 -5.109375 3.296875 -5.109375 C 2.890625 -5.109375 2.328125 -4.984375 2.046875 -4.75 L 2.015625 -4.75 Z M 3.125 -4.484375 C 4.21875 -4.484375 5.109375 -3.59375 5.109375 -2.5 C 5.109375 -1.3125 4.296875 -0.5 3.125 -0.5 C 1.9375 -0.5 1.125 -1.3125 1.125 -2.5 C 1.125 -3.59375 2.015625 -4.484375 3.125 -4.484375 Z M 3.125 -4.484375 "/>
</symbol>
<symbol overflow="visible" id="wyE9rwEQ2-3">
<path style="stroke:none;" d="M 0.796875 -6.4375 C 0.796875 -5.640625 1.3125 -4.78125 2.140625 -4.5625 L 2.140625 -4.546875 C 1.0625 -4.3125 0.484375 -3.390625 0.484375 -2.359375 C 0.484375 -0.84375 1.625 0.140625 3.125 0.140625 C 4.625 0.140625 5.75 -0.84375 5.75 -2.359375 C 5.75 -3.390625 5.171875 -4.3125 4.09375 -4.546875 L 4.09375 -4.5625 C 4.921875 -4.78125 5.453125 -5.640625 5.453125 -6.4375 C 5.453125 -7.75 4.4375 -8.640625 3.125 -8.640625 C 1.796875 -8.640625 0.796875 -7.75 0.796875 -6.4375 Z M 1.578125 -6.4375 C 1.578125 -7.375 2.25 -7.984375 3.125 -7.984375 C 4 -7.984375 4.65625 -7.375 4.65625 -6.4375 C 4.65625 -5.578125 4.03125 -4.875 3.125 -4.875 C 2.203125 -4.875 1.578125 -5.578125 1.578125 -6.4375 Z M 1.28125 -2.359375 C 1.28125 -3.484375 2.09375 -4.21875 3.125 -4.21875 C 4.140625 -4.21875 4.953125 -3.484375 4.953125 -2.359375 C 4.953125 -1.34375 4.234375 -0.5 3.125 -0.5 C 2 -0.5 1.28125 -1.34375 1.28125 -2.359375 Z M 1.28125 -2.359375 "/>
</symbol>
<symbol overflow="visible" id="wyE9rwEQ2-4">
<path style="stroke:none;" d="M 0.484375 0 L 5.75 0 L 5.75 -0.640625 L 1.28125 -0.640625 L 3.9375 -3.375 C 4.8125 -4.265625 5.6875 -5.140625 5.6875 -6.46875 C 5.6875 -7.84375 4.546875 -8.640625 3.234375 -8.640625 C 1.9375 -8.640625 0.9375 -7.984375 0.65625 -6.6875 L 1.5 -6.59375 C 1.6875 -7.421875 2.328125 -7.984375 3.203125 -7.984375 C 4.171875 -7.984375 4.890625 -7.390625 4.890625 -6.40625 C 4.890625 -5.5 4.25 -4.796875 3.6875 -4.21875 L 0.484375 -0.84375 Z M 0.484375 0 "/>
</symbol>
<symbol overflow="visible" id="wyE9rwEQ2-5">
<path style="stroke:none;" d="M 8.171875 -4.578125 L 5.34375 -4.578125 L 5.34375 -3.859375 L 7.375 -3.859375 L 7.375 -1.015625 C 6.734375 -0.625 5.921875 -0.5 5 -0.5 C 2.78125 -0.5 1.40625 -2.140625 1.40625 -4.25 C 1.40625 -6.359375 2.78125 -7.984375 5 -7.984375 C 5.921875 -7.984375 6.96875 -7.5625 7.484375 -6.9375 L 8.0625 -7.53125 C 7.28125 -8.328125 6.265625 -8.71875 5 -8.71875 C 2.40625 -8.71875 0.609375 -6.84375 0.609375 -4.25 C 0.609375 -1.65625 2.40625 0.21875 5 0.21875 C 6.109375 0.21875 7.1875 0.015625 8.171875 -0.546875 Z M 8.171875 -4.578125 "/>
</symbol>
<symbol overflow="visible" id="wyE9rwEQ2-6">
<path style="stroke:none;" d="M 0.640625 -2.765625 C 0.640625 -1.078125 1.859375 0.140625 3.5625 0.140625 C 5.265625 0.140625 6.484375 -1.078125 6.484375 -2.765625 C 6.484375 -4.46875 5.265625 -5.6875 3.5625 -5.6875 C 1.859375 -5.6875 0.640625 -4.46875 0.640625 -2.765625 Z M 1.375 -2.765625 C 1.375 -4.015625 2.203125 -5.046875 3.5625 -5.046875 C 4.921875 -5.046875 5.765625 -4.015625 5.765625 -2.765625 C 5.765625 -1.53125 4.921875 -0.5 3.5625 -0.5 C 2.203125 -0.5 1.375 -1.53125 1.375 -2.765625 Z M 1.375 -2.765625 "/>
</symbol>
<symbol overflow="visible" id="wyE9rwEQ2-7">
<path style="stroke:none;" d="M 1.078125 0 L 1.796875 0 L 1.796875 -9.078125 L 1.078125 -9.078125 Z M 1.078125 0 "/>
</symbol>
<symbol overflow="visible" id="wyE9rwEQ2-8">
<path style="stroke:none;" d="M 5.8125 0 L 6.53125 0 L 6.53125 -9.078125 L 5.8125 -9.078125 L 5.8125 -4.578125 L 5.78125 -4.578125 C 5.34375 -5.34375 4.390625 -5.6875 3.5625 -5.6875 C 1.859375 -5.6875 0.640625 -4.46875 0.640625 -2.765625 C 0.640625 -1.078125 1.859375 0.140625 3.5625 0.140625 C 4.390625 0.140625 5.34375 -0.203125 5.78125 -0.96875 L 5.8125 -0.96875 Z M 5.875 -2.765625 C 5.875 -1.53125 4.875 -0.5 3.5625 -0.5 C 2.203125 -0.5 1.375 -1.53125 1.375 -2.765625 C 1.375 -4.015625 2.203125 -5.046875 3.5625 -5.046875 C 4.875 -5.046875 5.875 -4.015625 5.875 -2.765625 Z M 5.875 -2.765625 "/>
</symbol>
<symbol overflow="visible" id="wyE9rwEQ2-9">
<path style="stroke:none;" d="M 1.078125 0 L 1.796875 0 L 1.796875 -5.546875 L 1.078125 -5.546875 Z M 0.90625 -7.734375 C 0.90625 -7.4375 1.140625 -7.203125 1.4375 -7.203125 C 1.734375 -7.203125 1.984375 -7.4375 1.984375 -7.734375 C 1.984375 -8.046875 1.734375 -8.28125 1.4375 -8.28125 C 1.140625 -8.28125 0.90625 -8.046875 0.90625 -7.734375 Z M 0.90625 -7.734375 "/>
</symbol>
<symbol overflow="visible" id="wyE9rwEQ2-10">
<path style="stroke:none;" d="M 1.375 0 L 2.09375 0 L 2.09375 -4.890625 L 3.390625 -4.890625 L 3.390625 -5.546875 L 2.09375 -5.546875 L 2.09375 -7.09375 C 2.09375 -8.09375 2.40625 -8.5625 3.0625 -8.5625 C 3.34375 -8.5625 3.546875 -8.53125 3.703125 -8.453125 L 3.859375 -9.078125 C 3.640625 -9.171875 3.375 -9.21875 3.03125 -9.21875 C 2.3125 -9.21875 1.375 -8.78125 1.375 -7.359375 L 1.375 -5.546875 L 0.21875 -5.546875 L 0.21875 -4.890625 L 1.375 -4.890625 Z M 1.375 0 "/>
</symbol>
<symbol overflow="visible" id="wyE9rwEQ2-11">
<path style="stroke:none;" d="M 5.328125 -1.484375 C 4.96875 -0.890625 4.203125 -0.5 3.46875 -0.5 C 1.78125 -0.5 1.375 -1.984375 1.375 -2.59375 L 6.03125 -2.59375 L 6.03125 -3.09375 C 6.03125 -4.375 5.125 -5.6875 3.421875 -5.6875 C 1.796875 -5.6875 0.640625 -4.4375 0.640625 -2.78125 C 0.640625 -1.0625 1.765625 0.140625 3.453125 0.140625 C 4.4375 0.140625 5.296875 -0.203125 5.859375 -1.046875 Z M 1.375 -3.234375 C 1.375 -3.53125 1.8125 -5.046875 3.390625 -5.046875 C 4.453125 -5.046875 5.296875 -4.21875 5.296875 -3.234375 Z M 1.375 -3.234375 "/>
</symbol>
<symbol overflow="visible" id="wyE9rwEQ2-12">
<path style="stroke:none;" d="M 0.953125 0 L 1.6875 0 L 1.6875 -2.765625 C 1.6875 -4.296875 2.53125 -5.046875 3.59375 -5.046875 C 4.734375 -5.046875 4.984375 -4.15625 4.984375 -3.265625 L 4.984375 0 L 5.71875 0 L 5.71875 -3.296875 C 5.71875 -4.515625 5.328125 -5.6875 3.59375 -5.6875 C 2.703125 -5.6875 1.984375 -5.1875 1.703125 -4.578125 L 1.671875 -4.578125 C 1.640625 -4.6875 1.625 -5.140625 1.625 -5.546875 L 0.90625 -5.546875 C 0.90625 -5.25 0.953125 -4.390625 0.953125 -3.984375 Z M 0.953125 0 "/>
</symbol>
<symbol overflow="visible" id="wyE9rwEQ3-0">
<path style="stroke:none;" d="M 0 0 L 6 0 L 6 -8.40625 L 0 -8.40625 Z M 3 -4.734375 L 0.953125 -7.796875 L 5.046875 -7.796875 Z M 3.359375 -4.203125 L 5.40625 -7.265625 L 5.40625 -1.140625 Z M 0.953125 -0.59375 L 3 -3.65625 L 5.046875 -0.59375 Z M 0.59375 -7.265625 L 2.640625 -4.203125 L 0.59375 -1.140625 Z M 0.59375 -7.265625 "/>
</symbol>
<symbol overflow="visible" id="wyE9rwEQ3-1">
<path style="stroke:none;" d="M 0.3125 -4.25 C 0.3125 -2.40625 0.734375 0.140625 3.125 0.140625 C 5.515625 0.140625 5.921875 -2.40625 5.921875 -4.25 C 5.921875 -6.09375 5.515625 -8.640625 3.125 -8.640625 C 0.734375 -8.640625 0.3125 -6.09375 0.3125 -4.25 Z M 1.109375 -4.25 C 1.109375 -5.5625 1.3125 -7.984375 3.125 -7.984375 C 4.921875 -7.984375 5.140625 -5.5625 5.140625 -4.25 C 5.140625 -2.921875 4.921875 -0.5 3.125 -0.5 C 1.3125 -0.5 1.109375 -2.921875 1.109375 -4.25 Z M 1.109375 -4.25 "/>
</symbol>
<symbol overflow="visible" id="wyE9rwEQ4-0">
<path style="stroke:none;" d="M 0 0 L 6 0 L 6 -8.40625 L 0 -8.40625 Z M 3 -4.734375 L 0.953125 -7.796875 L 5.046875 -7.796875 Z M 3.359375 -4.203125 L 5.40625 -7.265625 L 5.40625 -1.140625 Z M 0.953125 -0.59375 L 3 -3.65625 L 5.046875 -0.59375 Z M 0.59375 -7.265625 L 2.640625 -4.203125 L 0.59375 -1.140625 Z M 0.59375 -7.265625 "/>
</symbol>
<symbol overflow="visible" id="wyE9rwEQ4-1">
<path style="stroke:none;" d="M 3.125 0 L 3.859375 0 L 3.859375 -8.5 L 3.234375 -8.5 L 1.140625 -6.78125 L 1.578125 -6.234375 L 3.125 -7.484375 Z M 3.125 0 "/>
</symbol>
<symbol overflow="visible" id="wyE9rwEQ5-0">
<path style="stroke:none;" d="M 0 0 L 6 0 L 6 -8.40625 L 0 -8.40625 Z M 3 -4.734375 L 0.953125 -7.796875 L 5.046875 -7.796875 Z M 3.359375 -4.203125 L 5.40625 -7.265625 L 5.40625 -1.140625 Z M 0.953125 -0.59375 L 3 -3.65625 L 5.046875 -0.59375 Z M 0.59375 -7.265625 L 2.640625 -4.203125 L 0.59375 -1.140625 Z M 0.59375 -7.265625 "/>
</symbol>
<symbol overflow="visible" id="wyE9rwEQ5-1">
<path style="stroke:none;" d="M 0.3125 -4.25 C 0.3125 -2.40625 0.734375 0.140625 3.125 0.140625 C 5.515625 0.140625 5.921875 -2.40625 5.921875 -4.25 C 5.921875 -6.09375 5.515625 -8.640625 3.125 -8.640625 C 0.734375 -8.640625 0.3125 -6.09375 0.3125 -4.25 Z M 1.109375 -4.25 C 1.109375 -5.5625 1.3125 -7.984375 3.125 -7.984375 C 4.921875 -7.984375 5.140625 -5.5625 5.140625 -4.25 C 5.140625 -2.921875 4.921875 -0.5 3.125 -0.5 C 1.3125 -0.5 1.109375 -2.921875 1.109375 -4.25 Z M 1.109375 -4.25 "/>
</symbol>
<symbol overflow="visible" id="wyE9rwEQ6-0">
<path style="stroke:none;" d="M 0 0 L 6 0 L 6 -8.40625 L 0 -8.40625 Z M 3 -4.734375 L 0.953125 -7.796875 L 5.046875 -7.796875 Z M 3.359375 -4.203125 L 5.40625 -7.265625 L 5.40625 -1.140625 Z M 0.953125 -0.59375 L 3 -3.65625 L 5.046875 -0.59375 Z M 0.59375 -7.265625 L 2.640625 -4.203125 L 0.59375 -1.140625 Z M 0.59375 -7.265625 "/>
</symbol>
<symbol overflow="visible" id="wyE9rwEQ6-1">
<path style="stroke:none;" d="M 0.484375 0 L 5.75 0 L 5.75 -0.640625 L 1.28125 -0.640625 L 3.9375 -3.375 C 4.8125 -4.265625 5.6875 -5.140625 5.6875 -6.46875 C 5.6875 -7.84375 4.546875 -8.640625 3.234375 -8.640625 C 1.9375 -8.640625 0.9375 -7.984375 0.65625 -6.6875 L 1.5 -6.59375 C 1.6875 -7.421875 2.328125 -7.984375 3.203125 -7.984375 C 4.171875 -7.984375 4.890625 -7.390625 4.890625 -6.40625 C 4.890625 -5.5 4.25 -4.796875 3.6875 -4.21875 L 0.484375 -0.84375 Z M 0.484375 0 "/>
</symbol>
<symbol overflow="visible" id="wyE9rwEQ7-0">
<path style="stroke:none;" d="M 0 0 L 6 0 L 6 -8.40625 L 0 -8.40625 Z M 3 -4.734375 L 0.953125 -7.796875 L 5.046875 -7.796875 Z M 3.359375 -4.203125 L 5.40625 -7.265625 L 5.40625 -1.140625 Z M 0.953125 -0.59375 L 3 -3.65625 L 5.046875 -0.59375 Z M 0.59375 -7.265625 L 2.640625 -4.203125 L 0.59375 -1.140625 Z M 0.59375 -7.265625 "/>
</symbol>
<symbol overflow="visible" id="wyE9rwEQ7-1">
<path style="stroke:none;" d="M 0.3125 -4.25 C 0.3125 -2.40625 0.734375 0.140625 3.125 0.140625 C 5.515625 0.140625 5.921875 -2.40625 5.921875 -4.25 C 5.921875 -6.09375 5.515625 -8.640625 3.125 -8.640625 C 0.734375 -8.640625 0.3125 -6.09375 0.3125 -4.25 Z M 1.109375 -4.25 C 1.109375 -5.5625 1.3125 -7.984375 3.125 -7.984375 C 4.921875 -7.984375 5.140625 -5.5625 5.140625 -4.25 C 5.140625 -2.921875 4.921875 -0.5 3.125 -0.5 C 1.3125 -0.5 1.109375 -2.921875 1.109375 -4.25 Z M 1.109375 -4.25 "/>
</symbol>
<symbol overflow="visible" id="wyE9rwEQ8-0">
<path style="stroke:none;" d="M 0 0 L 0 -6 L -8.40625 -6 L -8.40625 0 Z M -4.734375 -3 L -7.796875 -0.953125 L -7.796875 -5.046875 Z M -4.203125 -3.359375 L -7.265625 -5.40625 L -1.140625 -5.40625 Z M -0.59375 -0.953125 L -3.65625 -3 L -0.59375 -5.046875 Z M -7.265625 -0.59375 L -4.203125 -2.640625 L -1.140625 -0.59375 Z M -7.265625 -0.59375 "/>
</symbol>
<symbol overflow="visible" id="wyE9rwEQ8-1">
<path style="stroke:none;" d="M -1.265625 -5.046875 C -0.8125 -4.6875 -0.5 -4.15625 -0.5 -3.5625 C -0.5 -2.203125 -1.53125 -1.375 -2.765625 -1.375 C -4.015625 -1.375 -5.046875 -2.203125 -5.046875 -3.5625 C -5.046875 -4.140625 -4.75 -4.625 -4.296875 -5.046875 L -4.734375 -5.625 C -5.34375 -5.09375 -5.6875 -4.375 -5.6875 -3.5625 C -5.6875 -1.859375 -4.46875 -0.640625 -2.765625 -0.640625 C -1.078125 -0.640625 0.140625 -1.859375 0.140625 -3.5625 C 0.140625 -4.359375 -0.171875 -5.0625 -0.8125 -5.609375 Z M -1.265625 -5.046875 "/>
</symbol>
<symbol overflow="visible" id="wyE9rwEQ9-0">
<path style="stroke:none;" d="M 0 0 L 0 -6 L -8.40625 -6 L -8.40625 0 Z M -4.734375 -3 L -7.796875 -0.953125 L -7.796875 -5.046875 Z M -4.203125 -3.359375 L -7.265625 -5.40625 L -1.140625 -5.40625 Z M -0.59375 -0.953125 L -3.65625 -3 L -0.59375 -5.046875 Z M -7.265625 -0.59375 L -4.203125 -2.640625 L -1.140625 -0.59375 Z M -7.265625 -0.59375 "/>
</symbol>
<symbol overflow="visible" id="wyE9rwEQ9-1">
<path style="stroke:none;" d="M -2.765625 -0.640625 C -1.078125 -0.640625 0.140625 -1.859375 0.140625 -3.5625 C 0.140625 -5.265625 -1.078125 -6.484375 -2.765625 -6.484375 C -4.46875 -6.484375 -5.6875 -5.265625 -5.6875 -3.5625 C -5.6875 -1.859375 -4.46875 -0.640625 -2.765625 -0.640625 Z M -2.765625 -1.375 C -4.015625 -1.375 -5.046875 -2.203125 -5.046875 -3.5625 C -5.046875 -4.921875 -4.015625 -5.765625 -2.765625 -5.765625 C -1.53125 -5.765625 -0.5 -4.921875 -0.5 -3.5625 C -0.5 -2.203125 -1.53125 -1.375 -2.765625 -1.375 Z M -2.765625 -1.375 "/>
</symbol>
<symbol overflow="visible" id="wyE9rwEQ10-0">
<path style="stroke:none;" d="M 0 0 L 0 -6 L -8.40625 -6 L -8.40625 0 Z M -4.734375 -3 L -7.796875 -0.953125 L -7.796875 -5.046875 Z M -4.203125 -3.359375 L -7.265625 -5.40625 L -1.140625 -5.40625 Z M -0.59375 -0.953125 L -3.65625 -3 L -0.59375 -5.046875 Z M -7.265625 -0.59375 L -4.203125 -2.640625 L -1.140625 -0.59375 Z M -7.265625 -0.59375 "/>
</symbol>
<symbol overflow="visible" id="wyE9rwEQ10-1">
<path style="stroke:none;" d="M -5.546875 -5.65625 L -5.546875 -4.9375 L -2.765625 -4.9375 C -1.25 -4.9375 -0.5 -4.078125 -0.5 -3.015625 C -0.5 -1.875 -1.375 -1.625 -2.28125 -1.625 L -5.546875 -1.625 L -5.546875 -0.90625 L -2.25 -0.90625 C -1.03125 -0.90625 0.140625 -1.28125 0.140625 -3.015625 C 0.140625 -3.90625 -0.359375 -4.625 -0.96875 -4.90625 L -0.96875 -4.9375 C -0.859375 -4.96875 -0.40625 -4.984375 0 -4.984375 L 0 -5.71875 C -0.28125 -5.71875 -1.15625 -5.65625 -1.5625 -5.65625 Z M -5.546875 -5.65625 "/>
</symbol>
<symbol overflow="visible" id="wyE9rwEQ10-2">
<path style="stroke:none;" d="M 0 -0.953125 L 0 -1.6875 L -2.765625 -1.6875 C -4.296875 -1.6875 -5.046875 -2.53125 -5.046875 -3.59375 C -5.046875 -4.734375 -4.15625 -4.984375 -3.265625 -4.984375 L 0 -4.984375 L 0 -5.71875 L -3.296875 -5.71875 C -4.515625 -5.71875 -5.6875 -5.328125 -5.6875 -3.59375 C -5.6875 -2.703125 -5.1875 -1.984375 -4.578125 -1.703125 L -4.578125 -1.671875 C -4.6875 -1.640625 -5.140625 -1.625 -5.546875 -1.625 L -5.546875 -0.90625 C -5.25 -0.90625 -4.390625 -0.953125 -3.984375 -0.953125 Z M 0 -0.953125 "/>
</symbol>
<symbol overflow="visible" id="wyE9rwEQ11-0">
<path style="stroke:none;" d="M 0 0 L 0 -6 L -8.40625 -6 L -8.40625 0 Z M -4.734375 -3 L -7.796875 -0.953125 L -7.796875 -5.046875 Z M -4.203125 -3.359375 L -7.265625 -5.40625 L -1.140625 -5.40625 Z M -0.59375 -0.953125 L -3.65625 -3 L -0.59375 -5.046875 Z M -7.265625 -0.59375 L -4.203125 -2.640625 L -1.140625 -0.59375 Z M -7.265625 -0.59375 "/>
</symbol>
<symbol overflow="visible" id="wyE9rwEQ11-1">
<path style="stroke:none;" d="M -5.546875 -3.671875 L -5.546875 -2.09375 L -7.140625 -2.09375 L -7.140625 -1.375 L -5.546875 -1.375 L -5.546875 -0.171875 L -4.890625 -0.171875 L -4.890625 -1.375 L -1.28125 -1.375 C -0.484375 -1.375 0.140625 -1.765625 0.140625 -2.796875 C 0.140625 -3.078125 0.046875 -3.46875 -0.046875 -3.734375 L -0.703125 -3.671875 C -0.59375 -3.421875 -0.5 -3.125 -0.5 -2.859375 C -0.5 -2.375 -0.796875 -2.09375 -1.28125 -2.09375 L -4.890625 -2.09375 L -4.890625 -3.671875 Z M -5.546875 -3.671875 "/>
</symbol>
<symbol overflow="visible" id="wyE9rwEQ12-0">
<path style="stroke:none;" d="M 0 0 L 6 0 L 6 -8.40625 L 0 -8.40625 Z M 3 -4.734375 L 0.953125 -7.796875 L 5.046875 -7.796875 Z M 3.359375 -4.203125 L 5.40625 -7.265625 L 5.40625 -1.140625 Z M 0.953125 -0.59375 L 3 -3.65625 L 5.046875 -0.59375 Z M 0.59375 -7.265625 L 2.640625 -4.203125 L 0.59375 -1.140625 Z M 0.59375 -7.265625 "/>
</symbol>
<symbol overflow="visible" id="wyE9rwEQ12-1">
<path style="stroke:none;" d="M 0.3125 -4.25 C 0.3125 -2.40625 0.734375 0.140625 3.125 0.140625 C 5.515625 0.140625 5.921875 -2.40625 5.921875 -4.25 C 5.921875 -6.09375 5.515625 -8.640625 3.125 -8.640625 C 0.734375 -8.640625 0.3125 -6.09375 0.3125 -4.25 Z M 1.109375 -4.25 C 1.109375 -5.5625 1.3125 -7.984375 3.125 -7.984375 C 4.921875 -7.984375 5.140625 -5.5625 5.140625 -4.25 C 5.140625 -2.921875 4.921875 -0.5 3.125 -0.5 C 1.3125 -0.5 1.109375 -2.921875 1.109375 -4.25 Z M 1.109375 -4.25 "/>
</symbol>
<symbol overflow="visible" id="wyE9rwEQ12-2">
<path style="stroke:none;" d="M 5.265625 -3.6875 C 5.265625 -5.09375 4.40625 -5.6875 3.0625 -5.6875 C 2.34375 -5.6875 1.46875 -5.40625 0.953125 -4.90625 L 1.375 -4.421875 C 1.859375 -4.84375 2.40625 -5.046875 3.0625 -5.046875 C 3.953125 -5.046875 4.625 -4.65625 4.625 -3.703125 L 4.625 -3.359375 L 3.78125 -3.359375 C 2.6875 -3.359375 0.703125 -3.1875 0.703125 -1.5 C 0.703125 -0.328125 1.71875 0.140625 2.65625 0.140625 C 3.59375 0.140625 4.203125 -0.1875 4.609375 -0.90625 L 4.625 -0.90625 C 4.625 -0.59375 4.65625 -0.28125 4.703125 0 L 5.375 0 C 5.296875 -0.640625 5.265625 -1.25 5.265625 -2.328125 Z M 4.625 -2.78125 L 4.625 -2.40625 C 4.625 -1.484375 4.21875 -0.5 2.6875 -0.5 C 2.09375 -0.5 1.421875 -0.859375 1.421875 -1.53125 C 1.421875 -2.484375 2.625 -2.78125 3.828125 -2.78125 Z M 4.625 -2.78125 "/>
</symbol>
<symbol overflow="visible" id="wyE9rwEQ12-3">
<path style="stroke:none;" d="M 1.375 0 L 2.09375 0 L 2.09375 -4.890625 L 3.390625 -4.890625 L 3.390625 -5.546875 L 2.09375 -5.546875 L 2.09375 -7.09375 C 2.09375 -8.09375 2.40625 -8.5625 3.0625 -8.5625 C 3.34375 -8.5625 3.546875 -8.53125 3.703125 -8.453125 L 3.859375 -9.078125 C 3.640625 -9.171875 3.375 -9.21875 3.03125 -9.21875 C 2.3125 -9.21875 1.375 -8.78125 1.375 -7.359375 L 1.375 -5.546875 L 0.21875 -5.546875 L 0.21875 -4.890625 L 1.375 -4.890625 Z M 1.375 0 "/>
</symbol>
<symbol overflow="visible" id="wyE9rwEQ12-4">
<path style="stroke:none;" d="M 5.328125 -1.484375 C 4.96875 -0.890625 4.203125 -0.5 3.46875 -0.5 C 1.78125 -0.5 1.375 -1.984375 1.375 -2.59375 L 6.03125 -2.59375 L 6.03125 -3.09375 C 6.03125 -4.375 5.125 -5.6875 3.421875 -5.6875 C 1.796875 -5.6875 0.640625 -4.4375 0.640625 -2.78125 C 0.640625 -1.0625 1.765625 0.140625 3.453125 0.140625 C 4.4375 0.140625 5.296875 -0.203125 5.859375 -1.046875 Z M 1.375 -3.234375 C 1.375 -3.53125 1.8125 -5.046875 3.390625 -5.046875 C 4.453125 -5.046875 5.296875 -4.21875 5.296875 -3.234375 Z M 1.375 -3.234375 "/>
</symbol>
<symbol overflow="visible" id="wyE9rwEQ12-5">
<path style="stroke:none;" d="M 5.046875 -1.265625 C 4.6875 -0.8125 4.15625 -0.5 3.5625 -0.5 C 2.203125 -0.5 1.375 -1.53125 1.375 -2.765625 C 1.375 -4.015625 2.203125 -5.046875 3.5625 -5.046875 C 4.140625 -5.046875 4.625 -4.75 5.046875 -4.296875 L 5.625 -4.734375 C 5.09375 -5.34375 4.375 -5.6875 3.5625 -5.6875 C 1.859375 -5.6875 0.640625 -4.46875 0.640625 -2.765625 C 0.640625 -1.078125 1.859375 0.140625 3.5625 0.140625 C 4.359375 0.140625 5.0625 -0.171875 5.609375 -0.8125 Z M 5.046875 -1.265625 "/>
</symbol>
<symbol overflow="visible" id="wyE9rwEQ13-0">
<path style="stroke:none;" d="M 0 0 L 6 0 L 6 -8.40625 L 0 -8.40625 Z M 3 -4.734375 L 0.953125 -7.796875 L 5.046875 -7.796875 Z M 3.359375 -4.203125 L 5.40625 -7.265625 L 5.40625 -1.140625 Z M 0.953125 -0.59375 L 3 -3.65625 L 5.046875 -0.59375 Z M 0.59375 -7.265625 L 2.640625 -4.203125 L 0.59375 -1.140625 Z M 0.59375 -7.265625 "/>
</symbol>
<symbol overflow="visible" id="wyE9rwEQ13-1">
<path style="stroke:none;" d="M 0.796875 -6.4375 C 0.796875 -5.640625 1.3125 -4.78125 2.140625 -4.5625 L 2.140625 -4.546875 C 1.0625 -4.3125 0.484375 -3.390625 0.484375 -2.359375 C 0.484375 -0.84375 1.625 0.140625 3.125 0.140625 C 4.625 0.140625 5.75 -0.84375 5.75 -2.359375 C 5.75 -3.390625 5.171875 -4.3125 4.09375 -4.546875 L 4.09375 -4.5625 C 4.921875 -4.78125 5.453125 -5.640625 5.453125 -6.4375 C 5.453125 -7.75 4.4375 -8.640625 3.125 -8.640625 C 1.796875 -8.640625 0.796875 -7.75 0.796875 -6.4375 Z M 1.578125 -6.4375 C 1.578125 -7.375 2.25 -7.984375 3.125 -7.984375 C 4 -7.984375 4.65625 -7.375 4.65625 -6.4375 C 4.65625 -5.578125 4.03125 -4.875 3.125 -4.875 C 2.203125 -4.875 1.578125 -5.578125 1.578125 -6.4375 Z M 1.28125 -2.359375 C 1.28125 -3.484375 2.09375 -4.21875 3.125 -4.21875 C 4.140625 -4.21875 4.953125 -3.484375 4.953125 -2.359375 C 4.953125 -1.34375 4.234375 -0.5 3.125 -0.5 C 2 -0.5 1.28125 -1.34375 1.28125 -2.359375 Z M 1.28125 -2.359375 "/>
</symbol>
<symbol overflow="visible" id="wyE9rwEQ14-0">
<path style="stroke:none;" d="M 0 0 L 6 0 L 6 -8.40625 L 0 -8.40625 Z M 3 -4.734375 L 0.953125 -7.796875 L 5.046875 -7.796875 Z M 3.359375 -4.203125 L 5.40625 -7.265625 L 5.40625 -1.140625 Z M 0.953125 -0.59375 L 3 -3.65625 L 5.046875 -0.59375 Z M 0.59375 -7.265625 L 2.640625 -4.203125 L 0.59375 -1.140625 Z M 0.59375 -7.265625 "/>
</symbol>
<symbol overflow="visible" id="wyE9rwEQ14-1">
<path style="stroke:none;" d="M 3.125 0 L 3.859375 0 L 3.859375 -8.5 L 3.234375 -8.5 L 1.140625 -6.78125 L 1.578125 -6.234375 L 3.125 -7.484375 Z M 3.125 0 "/>
</symbol>
<symbol overflow="visible" id="wyE9rwEQ14-2">
<path style="stroke:none;" d="M 5.40625 -8.5 L 1.21875 -8.5 L 1.140625 -4.15625 C 1.625 -4.5 2.203125 -4.734375 2.8125 -4.734375 C 4.03125 -4.734375 4.953125 -3.75 4.953125 -2.53125 C 4.953125 -1.171875 3.8125 -0.5 3.03125 -0.5 C 2.265625 -0.5 1.53125 -1.03125 1.234375 -1.671875 L 0.484375 -1.296875 C 0.953125 -0.40625 1.78125 0.140625 3.03125 0.140625 C 4.28125 0.140625 5.75 -0.75 5.75 -2.578125 C 5.75 -4.109375 4.734375 -5.390625 3.109375 -5.390625 C 2.703125 -5.390625 2.25 -5.34375 1.875 -5.140625 L 1.90625 -7.84375 L 5.40625 -7.84375 Z M 5.40625 -8.5 "/>
</symbol>
<symbol overflow="visible" id="wyE9rwEQ14-3">
<path style="stroke:none;" d="M 1.90625 0 L 2.8125 0 L 5.125 -3.828125 C 5.453125 -4.390625 5.90625 -5.109375 5.90625 -6 C 5.90625 -7.53125 4.734375 -8.640625 3.125 -8.640625 C 1.515625 -8.640625 0.34375 -7.53125 0.34375 -6 C 0.34375 -4.53125 1.421875 -3.390625 2.9375 -3.390625 C 3.34375 -3.390625 3.90625 -3.5 4.203125 -3.75 L 4.21875 -3.75 Z M 3.125 -4.015625 C 2.015625 -4.015625 1.125 -4.890625 1.125 -6 C 1.125 -7.171875 1.9375 -7.984375 3.125 -7.984375 C 4.296875 -7.984375 5.109375 -7.171875 5.109375 -6 C 5.109375 -4.890625 4.21875 -4.015625 3.125 -4.015625 Z M 3.125 -4.015625 "/>
</symbol>
<symbol overflow="visible" id="wyE9rwEQ14-4">
<path style="stroke:none;" d="M 0.3125 -4.25 C 0.3125 -2.40625 0.734375 0.140625 3.125 0.140625 C 5.515625 0.140625 5.921875 -2.40625 5.921875 -4.25 C 5.921875 -6.09375 5.515625 -8.640625 3.125 -8.640625 C 0.734375 -8.640625 0.3125 -6.09375 0.3125 -4.25 Z M 1.109375 -4.25 C 1.109375 -5.5625 1.3125 -7.984375 3.125 -7.984375 C 4.921875 -7.984375 5.140625 -5.5625 5.140625 -4.25 C 5.140625 -2.921875 4.921875 -0.5 3.125 -0.5 C 1.3125 -0.5 1.109375 -2.921875 1.109375 -4.25 Z M 1.109375 -4.25 "/>
</symbol>
<symbol overflow="visible" id="wyE9rwEQ15-0">
<path style="stroke:none;" d="M 0 0 L 6 0 L 6 -8.40625 L 0 -8.40625 Z M 3 -4.734375 L 0.953125 -7.796875 L 5.046875 -7.796875 Z M 3.359375 -4.203125 L 5.40625 -7.265625 L 5.40625 -1.140625 Z M 0.953125 -0.59375 L 3 -3.65625 L 5.046875 -0.59375 Z M 0.59375 -7.265625 L 2.640625 -4.203125 L 0.59375 -1.140625 Z M 0.59375 -7.265625 "/>
</symbol>
<symbol overflow="visible" id="wyE9rwEQ15-1">
<path style="stroke:none;" d="M 1.90625 0 L 2.8125 0 L 5.125 -3.828125 C 5.453125 -4.390625 5.90625 -5.109375 5.90625 -6 C 5.90625 -7.53125 4.734375 -8.640625 3.125 -8.640625 C 1.515625 -8.640625 0.34375 -7.53125 0.34375 -6 C 0.34375 -4.53125 1.421875 -3.390625 2.9375 -3.390625 C 3.34375 -3.390625 3.90625 -3.5 4.203125 -3.75 L 4.21875 -3.75 Z M 3.125 -4.015625 C 2.015625 -4.015625 1.125 -4.890625 1.125 -6 C 1.125 -7.171875 1.9375 -7.984375 3.125 -7.984375 C 4.296875 -7.984375 5.109375 -7.171875 5.109375 -6 C 5.109375 -4.890625 4.21875 -4.015625 3.125 -4.015625 Z M 3.125 -4.015625 "/>
</symbol>
<symbol overflow="visible" id="wyE9rwEQ15-2">
<path style="stroke:none;" d="M 3.953125 0 L 4.671875 0 L 4.671875 -2.09375 L 5.96875 -2.09375 L 5.96875 -2.734375 L 4.671875 -2.734375 L 4.671875 -8.5 L 3.671875 -8.5 L 0.28125 -2.9375 L 0.28125 -2.09375 L 3.953125 -2.09375 Z M 3.953125 -2.734375 L 0.921875 -2.734375 L 3.921875 -7.703125 L 3.953125 -7.703125 Z M 3.953125 -2.734375 "/>
</symbol>
<symbol overflow="visible" id="wyE9rwEQ16-0">
<path style="stroke:none;" d="M 0 0 L 6 0 L 6 -8.40625 L 0 -8.40625 Z M 3 -4.734375 L 0.953125 -7.796875 L 5.046875 -7.796875 Z M 3.359375 -4.203125 L 5.40625 -7.265625 L 5.40625 -1.140625 Z M 0.953125 -0.59375 L 3 -3.65625 L 5.046875 -0.59375 Z M 0.59375 -7.265625 L 2.640625 -4.203125 L 0.59375 -1.140625 Z M 0.59375 -7.265625 "/>
</symbol>
<symbol overflow="visible" id="wyE9rwEQ16-1">
<path style="stroke:none;" d="M 1.90625 0 L 2.8125 0 L 5.125 -3.828125 C 5.453125 -4.390625 5.90625 -5.109375 5.90625 -6 C 5.90625 -7.53125 4.734375 -8.640625 3.125 -8.640625 C 1.515625 -8.640625 0.34375 -7.53125 0.34375 -6 C 0.34375 -4.53125 1.421875 -3.390625 2.9375 -3.390625 C 3.34375 -3.390625 3.90625 -3.5 4.203125 -3.75 L 4.21875 -3.75 Z M 3.125 -4.015625 C 2.015625 -4.015625 1.125 -4.890625 1.125 -6 C 1.125 -7.171875 1.9375 -7.984375 3.125 -7.984375 C 4.296875 -7.984375 5.109375 -7.171875 5.109375 -6 C 5.109375 -4.890625 4.21875 -4.015625 3.125 -4.015625 Z M 3.125 -4.015625 "/>
</symbol>
<symbol overflow="visible" id="wyE9rwEQ17-0">
<path style="stroke:none;" d="M 0 0 L 6 0 L 6 -8.40625 L 0 -8.40625 Z M 3 -4.734375 L 0.953125 -7.796875 L 5.046875 -7.796875 Z M 3.359375 -4.203125 L 5.40625 -7.265625 L 5.40625 -1.140625 Z M 0.953125 -0.59375 L 3 -3.65625 L 5.046875 -0.59375 Z M 0.59375 -7.265625 L 2.640625 -4.203125 L 0.59375 -1.140625 Z M 0.59375 -7.265625 "/>
</symbol>
<symbol overflow="visible" id="wyE9rwEQ17-1">
<path style="stroke:none;" d=""/>
</symbol>
<symbol overflow="visible" id="wyE9rwEQ17-2">
<path style="stroke:none;" d="M 0.953125 0 L 1.6875 0 L 1.6875 -3.03125 C 1.6875 -4.109375 2.25 -4.96875 3.484375 -4.96875 C 3.5625 -4.96875 3.65625 -4.953125 3.765625 -4.921875 L 3.859375 -5.625 C 3.703125 -5.65625 3.578125 -5.6875 3.4375 -5.6875 C 2.609375 -5.6875 2.03125 -5.21875 1.671875 -4.578125 C 1.640625 -4.6875 1.625 -5.140625 1.625 -5.546875 L 0.90625 -5.546875 C 0.90625 -5.25 0.953125 -4.390625 0.953125 -3.984375 Z M 0.953125 0 "/>
</symbol>
</g>
</defs>
<g id="surface1">
<rect x="0" y="0" width="600" height="450" style="fill:rgb(100%,100%,100%);fill-opacity:1;stroke:none;"/>
<g style="fill:rgb(0%,0%,0%);fill-opacity:1;">
  <use xlink:href="#wyE9rwEQ0-1" x="60.082031" y="421.570312"/>
</g>
<g style="fill:rgb(0%,0%,0%);fill-opacity:1;">
  <use xlink:href="#wyE9rwEQ1-1" x="109.152344" y="421.570312"/>
</g>
<g style="fill:rgb(0%,0%,0%);fill-opacity:1;">
  <use xlink:href="#wyE9rwEQ2-1" x="158.023438" y="421.570312"/>
</g>
<g style="fill:rgb(0%,0%,0%);fill-opacity:1;">
  <use xlink:href="#wyE9rwEQ2-2" x="207.03125" y="421.570312"/>
</g>
<g style="fill:rgb(0%,0%,0%);fill-opacity:1;">
  <use xlink:href="#wyE9rwEQ2-3" x="256.089844" y="421.570312"/>
</g>
<g style="fill:rgb(0%,0%,0%);fill-opacity:1;">
  <use xlink:href="#wyE9rwEQ3-1" x="31.882812" y="395.902344"/>
</g>
<g style="fill:rgb(0%,0%,0%);fill-opacity:1;">
  <use xlink:href="#wyE9rwEQ4-1" x="25.644531" y="261.898438"/>
</g>
<g style="fill:rgb(0%,0%,0%);fill-opacity:1;">
  <use xlink:href="#wyE9rwEQ5-1" x="31.882812" y="261.898438"/>
</g>
<g style="fill:rgb(0%,0%,0%);fill-opacity:1;">
  <use xlink:href="#wyE9rwEQ6-1" x="25.644531" y="127.894531"/>
</g>
<g style="fill:rgb(0%,0%,0%);fill-opacity:1;">
  <use xlink:href="#wyE9rwEQ7-1" x="31.882812" y="127.894531"/>
</g>
<g style="fill:rgb(0%,0%,0%);fill-opacity:1;">
  <use xlink:href="#wyE9rwEQ8-1" x="20.644531" y="233.851562"/>
</g>
<g style="fill:rgb(0%,0%,0%);fill-opacity:1;">
  <use xlink:href="#wyE9rwEQ9-1" x="20.644531" y="228.082031"/>
</g>
<g style="fill:rgb(0%,0%,0%);fill-opacity:1;">
  <use xlink:href="#wyE9rwEQ10-1" x="20.644531" y="220.953125"/>
</g>
<g style="fill:rgb(0%,0%,0%);fill-opacity:1;">
  <use xlink:href="#wyE9rwEQ10-2" x="20.644531" y="214.28125"/>
</g>
<g style="fill:rgb(0%,0%,0%);fill-opacity:1;">
  <use xlink:href="#wyE9rwEQ11-1" x="20.644531" y="207.609375"/>
</g>
<g style="fill:rgb(0%,0%,0%);fill-opacity:1;">
  <use xlink:href="#wyE9rwEQ12-1" x="342.144531" y="421.570312"/>
</g>
<g style="fill:rgb(0%,0%,0%);fill-opacity:1;">
  <use xlink:href="#wyE9rwEQ2-4" x="391.351562" y="421.570312"/>
</g>
<g style="fill:rgb(0%,0%,0%);fill-opacity:1;">
  <use xlink:href="#wyE9rwEQ2-1" x="440.363281" y="421.570312"/>
</g>
<g style="fill:rgb(0%,0%,0%);fill-opacity:1;">
  <use xlink:href="#wyE9rwEQ2-2" x="489.511719" y="421.570312"/>
</g>
<g style="fill:rgb(0%,0%,0%);fill-opacity:1;">
  <use xlink:href="#wyE9rwEQ13-1" x="538.707031" y="421.570312"/>
</g>
<g style="fill:rgb(0%,0%,0%);fill-opacity:1;">
  <use xlink:href="#wyE9rwEQ14-1" x="160.421875" y="21.070312"/>
</g>
<g style="fill:rgb(0%,0%,0%);fill-opacity:1;">
  <use xlink:href="#wyE9rwEQ15-1" x="166.660156" y="21.070312"/>
</g>
<g style="fill:rgb(0%,0%,0%);fill-opacity:1;">
  <use xlink:href="#wyE9rwEQ14-2" x="172.902344" y="21.070312"/>
</g>
<g style="fill:rgb(0%,0%,0%);fill-opacity:1;">
  <use xlink:href="#wyE9rwEQ15-2" x="179.140625" y="21.070312"/>
</g>
<g style="fill:rgb(0%,0%,0%);fill-opacity:1;">
  <use xlink:href="#wyE9rwEQ14-1" x="442.992188" y="21.070312"/>
</g>
<g style="fill:rgb(0%,0%,0%);fill-opacity:1;">
  <use xlink:href="#wyE9rwEQ16-1" x="449.234375" y="21.070312"/>
</g>
<g style="fill:rgb(0%,0%,0%);fill-opacity:1;">
  <use xlink:href="#wyE9rwEQ14-3" x="455.472656" y="21.070312"/>
</g>
<g style="fill:rgb(0%,0%,0%);fill-opacity:1;">
  <use xlink:href="#wyE9rwEQ14-4" x="461.714844" y="21.070312"/>
</g>
<g style="fill:rgb(0%,0%,0%);fill-opacity:1;">
  <use xlink:href="#wyE9rwEQ2-5" x="273.574219" y="435.070312"/>
</g>
<g style="fill:rgb(0%,0%,0%);fill-opacity:1;">
  <use xlink:href="#wyE9rwEQ2-6" x="282.910156" y="435.070312"/>
</g>
<g style="fill:rgb(0%,0%,0%);fill-opacity:1;">
  <use xlink:href="#wyE9rwEQ12-2" x="290.035156" y="435.070312"/>
</g>
<g style="fill:rgb(0%,0%,0%);fill-opacity:1;">
  <use xlink:href="#wyE9rwEQ2-7" x="296.265625" y="435.070312"/>
</g>
<g style="fill:rgb(0%,0%,0%);fill-opacity:1;">
  <use xlink:href="#wyE9rwEQ17-1" x="299.144531" y="435.070312"/>
</g>
<g style="fill:rgb(0%,0%,0%);fill-opacity:1;">
  <use xlink:href="#wyE9rwEQ2-8" x="302.265625" y="435.070312"/>
</g>
<g style="fill:rgb(0%,0%,0%);fill-opacity:1;">
  <use xlink:href="#wyE9rwEQ2-9" x="309.597656" y="435.070312"/>
</g>
<g style="fill:rgb(0%,0%,0%);fill-opacity:1;">
  <use xlink:href="#wyE9rwEQ2-10" x="312.476562" y="435.070312"/>
</g>
<g style="fill:rgb(0%,0%,0%);fill-opacity:1;">
  <use xlink:href="#wyE9rwEQ12-3" x="316.027344" y="435.070312"/>
</g>
<g style="fill:rgb(0%,0%,0%);fill-opacity:1;">
  <use xlink:href="#wyE9rwEQ12-4" x="319.582031" y="435.070312"/>
</g>
<g style="fill:rgb(0%,0%,0%);fill-opacity:1;">
  <use xlink:href="#wyE9rwEQ17-2" x="326.253906" y="435.070312"/>
</g>
<g style="fill:rgb(0%,0%,0%);fill-opacity:1;">
  <use xlink:href="#wyE9rwEQ2-11" x="330.25" y="435.070312"/>
</g>
<g style="fill:rgb(0%,0%,0%);fill-opacity:1;">
  <use xlink:href="#wyE9rwEQ2-12" x="336.921875" y="435.070312"/>
</g>
<g style="fill:rgb(0%,0%,0%);fill-opacity:1;">
  <use xlink:href="#wyE9rwEQ12-5" x="343.59375" y="435.070312"/>
</g>
<g style="fill:rgb(0%,0%,0%);fill-opacity:1;">
  <use xlink:href="#wyE9rwEQ12-4" x="349.363281" y="435.070312"/>
</g>
<path style=" stroke:none;fill-rule:nonzero;fill:rgb(0%,0%,0%);fill-opacity:0.6;" d="M 53.25 392.828125 L 72.84375 392.828125 L 72.84375 366.027344 L 53.25 366.027344 Z M 53.25 392.828125 "/>
<path style=" stroke:none;fill-rule:nonzero;fill:rgb(0%,0%,0%);fill-opacity:0.6;" d="M 77.738281 392.828125 L 97.332031 392.828125 L 97.332031 325.828125 L 77.738281 325.828125 Z M 77.738281 392.828125 "/>
<path style=" stroke:none;fill-rule:nonzero;fill:rgb(0%,0%,0%);fill-opacity:0.6;" d="M 102.230469 392.828125 L 121.824219 392.828125 L 121.824219 285.625 L 102.230469 285.625 Z M 102.230469 392.828125 "/>
<path style=" stroke:none;fill-rule:nonzero;fill:rgb(0%,0%,0%);fill-opacity:0.6;" d="M 126.71875 392.828125 L 146.3125 392.828125 L 146.3125 352.628906 L 126.71875 352.628906 Z M 126.71875 392.828125 "/>
<path style=" stroke:none;fill-rule:nonzero;fill:rgb(0%,0%,0%);fill-opacity:0.6;" d="M 175.699219 392.828125 L 195.292969 392.828125 L 195.292969 325.828125 L 175.699219 325.828125 Z M 175.699219 392.828125 "/>
<path style=" stroke:none;fill-rule:nonzero;fill:rgb(0%,0%,0%);fill-opacity:0.6;" d="M 224.679688 392.828125 L 244.273438 392.828125 L 244.273438 366.027344 L 224.679688 366.027344 Z M 224.679688 392.828125 "/>
<path style=" stroke:none;fill-rule:nonzero;fill:rgb(0%,0%,0%);fill-opacity:0.6;" d="M 273.65625 392.828125 L 293.25 392.828125 L 293.25 379.429688 L 273.65625 379.429688 Z M 273.65625 392.828125 "/>
<path style=" stroke:none;fill-rule:nonzero;fill:rgb(0%,0%,0%);fill-opacity:0.6;" d="M 335.285156 392.828125 L 354.933594 392.828125 L 354.933594 232.023438 L 335.285156 232.023438 Z M 335.285156 392.828125 "/>
<path style=" stroke:none;fill-rule:nonzero;fill:rgb(0%,0%,0%);fill-opacity:0.6;" d="M 359.84375 392.828125 L 379.492188 392.828125 L 379.492188 44.417969 L 359.84375 44.417969 Z M 359.84375 392.828125 "/>
<path style=" stroke:none;fill-rule:nonzero;fill:rgb(0%,0%,0%);fill-opacity:0.6;" d="M 384.402344 392.828125 L 404.050781 392.828125 L 404.050781 285.625 L 384.402344 285.625 Z M 384.402344 392.828125 "/>
<path style=" stroke:none;fill-rule:nonzero;fill:rgb(0%,0%,0%);fill-opacity:0.6;" d="M 408.960938 392.828125 L 428.609375 392.828125 L 428.609375 352.628906 L 408.960938 352.628906 Z M 408.960938 392.828125 "/>
<path style=" stroke:none;fill-rule:nonzero;fill:rgb(0%,0%,0%);fill-opacity:0.6;" d="M 433.523438 392.828125 L 453.171875 392.828125 L 453.171875 352.628906 L 433.523438 352.628906 Z M 433.523438 392.828125 "/>
<path style="fill:none;stroke-width:1;stroke-linecap:butt;stroke-linejoin:miter;stroke:rgb(0%,0%,0%);stroke-opacity:1;stroke-miterlimit:10;" d="M 54.5 547 L 407.5 547 " transform="matrix(0.75,0,0,0.75,0,0)"/>
<path style="fill:none;stroke-width:1;stroke-linecap:butt;stroke-linejoin:miter;stroke:rgb(0%,0%,0%);stroke-opacity:1;stroke-miterlimit:10;" d="M 55 547.5 L 55 35.5 " transform="matrix(0.75,0,0,0.75,0,0)"/>
<path style="fill:none;stroke-width:1;stroke-linecap:butt;stroke-linejoin:miter;stroke:rgb(0%,0%,0%);stroke-opacity:1;stroke-miterlimit:10;" d="M 430.5 547 L 784.5 547 " transform="matrix(0.75,0,0,0.75,0,0)"/>
<path style="fill:none;stroke-width:1;stroke-linecap:butt;stroke-linejoin:miter;stroke:rgb(0%,0%,0%);stroke-opacity:1;stroke-miterlimit:10;" d="M 431 547.5 L 431 35.5 " transform="matrix(0.75,0,0,0.75,0,0)"/>
</g>
</svg>
