<?xml version="1.0" encoding="UTF-8"?>
<svg xmlns="http://www.w3.org/2000/svg" xmlns:xlink="http://www.w3.org/1999/xlink" width="600pt" height="450pt" viewBox="0 0 600 450" version="1.1">
<defs>
<g>
<symbol overflow="visible" id="27NI4R+r0-0">
<path style="stroke:none;" d="M 0 0 L 6 0 L 6 -8.40625 L 0 -8.40625 Z M 3 -4.734375 L 0.953125 -7.796875 L 5.046875 -7.796875 Z M 3.359375 -4.203125 L 5.40625 -7.265625 L 5.40625 -1.140625 Z M 0.953125 -0.59375 L 3 -3.65625 L 5.046875 -0.59375 Z M 0.59375 -7.265625 L 2.640625 -4.203125 L 0.59375 -1.140625 Z M 0.59375 -7.265625 "/>
</symbol>
<symbol overflow="visible" id="27NI4R+r0-1">
<path style="stroke:none;" d="M 3.125 0 L 3.859375 0 L 3.859375 -8.5 L 3.234375 -8.5 L 1.140625 -6.78125 L 1.578125 -6.234375 L 3.125 -7.484375 Z M 3.125 0 "/>
</symbol>
<symbol overflow="visible" id="27NI4R+r0-2">
<path style="stroke:none;" d="M 1.90625 0 L 2.8125 0 L 5.125 -3.828125 C 5.453125 -4.390625 5.90625 -5.109375 5.90625 -6 C 5.90625 -7.53125 4.734375 -8.640625 3.125 -8.640625 C 1.515625 -8.640625 0.34375 -7.53125 0.34375 -6 C 0.34375 -4.53125 1.421875 -3.390625 2.9375 -3.390625 C 3.34375 -3.390625 3.90625 -3.5 4.203125 -3.75 L 4.21875 -3.75 Z M 3.125 -4.015625 C 2.015625 -4.015625 1.125 -4.890625 1.125 -6 C 1.125 -7.171875 1.9375 -7.984375 3.125 -7.984375 C 4.296875 -7.984375 5.109375 -7.171875 5.109375 -6 C 5.109375 -4.890625 4.21875 -4.015625 3.125 -4.015625 Z M 3.125 -4.015625 "/>
</symbol>
<symbol overflow="visible" id="27NI4R+r0-3">
<path style="stroke:none;" d="M 0.953125 0 L 1.6875 0 L 1.6875 -3.03125 C 1.6875 -4.109375 2.25 -4.96875 3.484375 -4.96875 C 3.5625 -4.96875 3.65625 -4.953125 3.765625 -4.921875 L 3.859375 -5.625 C 3.703125 -5.65625 3.578125 -5.6875 3.4375 -5.6875 C 2.609375 -5.6875 2.03125 -5.21875 1.671875 -4.578125 C 1.640625 -4.6875 1.625 -5.140625 1.625 -5.546875 L 0.90625 -5.546875 C 0.90625 -5.25 0.953125 -4.390625 0.953125 -3.984375 Z M 0.953125 0 "/>
</symbol>
<symbol overflow="visible" id="27NI4R+r1-0">
<path style="stroke:none;" d="M 0 0 L 6 0 L 6 -8.40625 L 0 -8.40625 Z M 3 -4.734375 L 0.953125 -7.796875 L 5.046875 -7.796875 Z M 3.359375 -4.203125 L 5.40625 -7.265625 L 5.40625 -1.140625 Z M 0.953125 -0.59375 L 3 -3.65625 L 5.046875 -0.59375 Z M 0.59375 -7.265625 L 2.640625 -4.203125 L 0.59375 -1.140625 Z M 0.59375 -7.265625 "/>
</symbol>
<symbol overflow="visible" id="27NI4R+r1-1">
<path style="stroke:none;" d="M 1.90625 0 L 2.8125 0 L 5.125 -3.828125 C 5.453125 -4.390625 5.90625 -5.109375 5.90625 -6 C 5.90625 -7.53125 4.734375 -8.640625 3.125 -8.640625 C 1.515625 -8.640625 0.34375 -7.53125 0.34375 -6 C 0.34375 -4.53125 1.421875 -3.390625 2.9375 -3.390625 C 3.34375 -3.390625 3.90625 -3.5 4.203125 -3.75 L 4.21875 -3.75 Z M 3.125 -4.015625 C 2.015625 -4.015625 1.125 -4.890625 1.125 -6 C 1.125 -7.171875 1.9375 -7.984375 3.125 -7.984375 C 4.296875 -7.984375 5.109375 -7.171875 5.109375 -6 C 5.109375 -4.890625 4.21875 -4.015625 3.125 -4.015625 Z M 3.125 -4.015625 "/>
</symbol>
<symbol overflow="visible" id="27NI4R+r1-2">
<path style="stroke:none;" d="M 0.3125 -4.25 C 0.3125 -2.40625 0.734375 0.140625 3.125 0.140625 C 5.515625 0.140625 5.921875 -2.40625 5.921875 -4.25 C 5.921875 -6.09375 5.515625 -8.640625 3.125 -8.640625 C 0.734375 -8.640625 0.3125 -6.09375 0.3125 -4.25 Z M 1.109375 -4.25 C 1.109375 -5.5625 1.3125 -7.984375 3.125 -7.984375 C 4.921875 -7.984375 5.140625 -5.5625 5.140625 -4.25 C 5.140625 -2.921875 4.921875 -0.5 3.125 -0.5 C 1.3125 -0.5 1.109375 -2.921875 1.109375 -4.25 Z M 1.109375 -4.25 "/>
</symbol>
<symbol overflow="visible" id="27NI4R+r2-0">
<path style="stroke:none;" d="M 0 0 L 6 0 L 6 -8.40625 L 0 -8.40625 Z M 3 -4.734375 L 0.953125 -7.796875 L 5.046875 -7.796875 Z M 3.359375 -4.203125 L 5.40625 -7.265625 L 5.40625 -1.140625 Z M 0.953125 -0.59375 L 3 -3.65625 L 5.046875 -0.59375 Z M 0.59375 -7.265625 L 2.640625 -4.203125 L 0.59375 -1.140625 Z M 0.59375 -7.265625 "/>
</symbol>
<symbol overflow="visible" id="27NI4R+r2-1">
<path style="stroke:none;" d="M 0.3125 -4.25 C 0.3125 -2.40625 0.734375 0.140625 3.125 0.140625 C 5.515625 0.140625 5.921875 -2.40625 5.921875 -4.25 C 5.921875 -6.09375 5.515625 -8.640625 3.125 -8.640625 C 0.734375 -8.640625 0.3125 -6.09375 0.3125 -4.25 Z M 1.109375 -4.25 C 1.109375 -5.5625 1.3125 -7.984375 3.125 -7.984375 C 4.921875 -7.984375 5.140625 -5.5625 5.140625 -4.25 C 5.140625 -2.921875 4.921875 -0.5 3.125 -0.5 C 1.3125 -0.5 1.109375 -2.921875 1.109375 -4.25 Z M 1.109375 -4.25 "/>
</symbol>
<symbol overflow="visible" id="27NI4R+r2-2">
<path style="stroke:none;" d="M 3.125 0 L 3.859375 0 L 3.859375 -8.5 L 3.234375 -8.5 L 1.140625 -6.78125 L 1.578125 -6.234375 L 3.125 -7.484375 Z M 3.125 0 "/>
</symbol>
<symbol overflow="visible" id="27NI4R+r2-3">
<path style="stroke:none;" d="M 0.484375 0 L 5.75 0 L 5.75 -0.640625 L 1.28125 -0.640625 L 3.9375 -3.375 C 4.8125 -4.265625 5.6875 -5.140625 5.6875 -6.46875 C 5.6875 -7.84375 4.546875 -8.640625 3.234375 -8.640625 C 1.9375 -8.640625 0.9375 -7.984375 0.65625 -6.6875 L 1.5 -6.59375 C 1.6875 -7.421875 2.328125 -7.984375 3.203125 -7.984375 C 4.171875 -7.984375 4.890625 -7.390625 4.890625 -6.40625 C 4.890625 -5.5 4.25 -4.796875 3.6875 -4.21875 L 0.484375 -0.84375 Z M 0.484375 0 "/>
</symbol>
<symbol overflow="visible" id="27NI4R+r2-4">
<path style="stroke:none;" d="M 5.265625 -3.6875 C 5.265625 -5.09375 4.40625 -5.6875 3.0625 -5.6875 C 2.34375 -5.6875 1.46875 -5.40625 0.953125 -4.90625 L 1.375 -4.421875 C 1.859375 -4.84375 2.40625 -5.046875 3.0625 -5.046875 C 3.953125 -5.046875 4.625 -4.65625 4.625 -3.703125 L 4.625 -3.359375 L 3.78125 -3.359375 C 2.6875 -3.359375 0.703125 -3.1875 0.703125 -1.5 C 0.703125 -0.328125 1.71875 0.140625 2.65625 0.140625 C 3.59375 0.140625 4.203125 -0.1875 4.609375 -0.90625 L 4.625 -0.90625 C 4.625 -0.59375 4.65625 -0.28125 4.703125 0 L 5.375 0 C 5.296875 -0.640625 5.265625 -1.25 5.265625 -2.328125 Z M 4.625 -2.78125 L 4.625 -2.40625 C 4.625 -1.484375 4.21875 -0.5 2.6875 -0.5 C 2.09375 -0.5 1.421875 -0.859375 1.421875 -1.53125 C 1.421875 -2.484375 2.625 -2.78125 3.828125 -2.78125 Z M 4.625 -2.78125 "/>
</symbol>
<symbol overflow="visible" id="27NI4R+r3-0">
<path style="stroke:none;" d="M 0 0 L 6 0 L 6 -8.40625 L 0 -8.40625 Z M 3 -4.734375 L 0.953125 -7.796875 L 5.046875 -7.796875 Z M 3.359375 -4.203125 L 5.40625 -7.265625 L 5.40625 -1.140625 Z M 0.953125 -0.59375 L 3 -3.65625 L 5.046875 -0.59375 Z M 0.59375 -7.265625 L 2.640625 -4.203125 L 0.59375 -1.140625 Z M 0.59375 -7.265625 "/>
</symbol>
<symbol overflow="visible" id="27NI4R+r3-1">
<path style="stroke:none;" d="M 5.40625 -8.5 L 1.21875 -8.5 L 1.140625 -4.15625 C 1.625 -4.5 2.203125 -4.734375 2.8125 -4.734375 C 4.03125 -4.734375 4.953125 -3.75 4.953125 -2.53125 C 4.953125 -1.171875 3.8125 -0.5 3.03125 -0.5 C 2.265625 -0.5 1.53125 -1.03125 1.234375 -1.671875 L 0.484375 -1.296875 C 0.953125 -0.40625 1.78125 0.140625 3.03125 0.140625 C 4.28125 0.140625 5.75 -0.75 5.75 -2.578125 C 5.75 -4.109375 4.734375 -5.390625 3.109375 -5.390625 C 2.703125 -5.390625 2.25 -5.34375 1.875 -5.140625 L 1.90625 -7.84375 L 5.40625 -7.84375 Z M 5.40625 -8.5 "/>
</symbol>
<symbol overflow="visible" id="27NI4R+r3-2">
<path style="stroke:none;" d="M 0.3125 -4.25 C 0.3125 -2.40625 0.734375 0.140625 3.125 0.140625 C 5.515625 0.140625 5.921875 -2.40625 5.921875 -4.25 C 5.921875 -6.09375 5.515625 -8.640625 3.125 -8.640625 C 0.734375 -8.640625 0.3125 -6.09375 0.3125 -4.25 Z M 1.109375 -4.25 C 1.109375 -5.5625 1.3125 -7.984375 3.125 -7.984375 C 4.921875 -7.984375 5.140625 -5.5625 5.140625 -4.25 C 5.140625 -2.921875 4.921875 -0.5 3.125 -0.5 C 1.3125 -0.5 1.109375 -2.921875 1.109375 -4.25 Z M 1.109375 -4.25 "/>
</symbol>
<symbol overflow="visible" id="27NI4R+r3-3">
<path style="stroke:none;" d="M 3.046875 0 L 3.84375 0 L 3.84375 -3.65625 L 6.953125 -8.5 L 6.078125 -8.5 L 3.4375 -4.46875 L 0.875 -8.5 L -0.078125 -8.5 L 3.046875 -3.65625 Z M 3.046875 0 "/>
</symbol>
<symbol overflow="visible" id="27NI4R+r3-4">
<path style="stroke:none;" d="M 5.328125 -1.484375 C 4.96875 -0.890625 4.203125 -0.5 3.46875 -0.5 C 1.78125 -0.5 1.375 -1.984375 1.375 -2.59375 L 6.03125 -2.59375 L 6.03125 -3.09375 C 6.03125 -4.375 5.125 -5.6875 3.421875 -5.6875 C 1.796875 -5.6875 0.640625 -4.4375 0.640625 -2.78125 C 0.640625 -1.0625 1.765625 0.140625 3.453125 0.140625 C 4.4375 0.140625 5.296875 -0.203125 5.859375 -1.046875 Z M 1.375 -3.234375 C 1.375 -3.53125 1.8125 -5.046875 3.390625 -5.046875 C 4.453125 -5.046875 5.296875 -4.21875 5.296875 -3.234375 Z M 1.375 -3.234375 "/>
</symbol>
<symbol overflow="visible" id="27NI4R+r4-0">
<path style="stroke:none;" d="M 0 0 L 6 0 L 6 -8.40625 L 0 -8.40625 Z M 3 -4.734375 L 0.953125 -7.796875 L 5.046875 -7.796875 Z M 3.359375 -4.203125 L 5.40625 -7.265625 L 5.40625 -1.140625 Z M 0.953125 -0.59375 L 3 -3.65625 L 5.046875 -0.59375 Z M 0.59375 -7.265625 L 2.640625 -4.203125 L 0.59375 -1.140625 Z M 0.59375 -7.265625 "/>
</symbol>
<symbol overflow="visible" id="27NI4R+r4-1">
<path style="stroke:none;" d="M 0.3125 -4.25 C 0.3125 -2.40625 0.734375 0.140625 3.125 0.140625 C 5.515625 0.140625 5.921875 -2.40625 5.921875 -4.25 C 5.921875 -6.09375 5.515625 -8.640625 3.125 -8.640625 C 0.734375 -8.640625 0.3125 -6.09375 0.3125 -4.25 Z M 1.109375 -4.25 C 1.109375 -5.5625 1.3125 -7.984375 3.125 -7.984375 C 4.921875 -7.984375 5.140625 -5.5625 5.140625 -4.25 C 5.140625 -2.921875 4.921875 -0.5 3.125 -0.5 C 1.3125 -0.5 1.109375 -2.921875 1.109375 -4.25 Z M 1.109375 -4.25 "/>
</symbol>
<symbol overflow="visible" id="27NI4R+r5-0">
<path style="stroke:none;" d="M 0 0 L 6 0 L 6 -8.40625 L 0 -8.40625 Z M 3 -4.734375 L 0.953125 -7.796875 L 5.046875 -7.796875 Z M 3.359375 -4.203125 L 5.40625 -7.265625 L 5.40625 -1.140625 Z M 0.953125 -0.59375 L 3 -3.65625 L 5.046875 -0.59375 Z M 0.59375 -7.265625 L 2.640625 -4.203125 L 0.59375 -1.140625 Z M 0.59375 -7.265625 "/>
</symbol>
<symbol overflow="visible" id="27NI4R+r5-1">
<path style="stroke:none;" d="M 0.3125 -4.25 C 0.3125 -2.40625 0.734375 0.140625 3.125 0.140625 C 5.515625 0.140625 5.921875 -2.40625 5.921875 -4.25 C 5.921875 -6.09375 5.515625 -8.640625 3.125 -8.640625 C 0.734375 -8.640625 0.3125 -6.09375 0.3125 -4.25 Z M 1.109375 -4.25 C 1.109375 -5.5625 1.3125 -7.984375 3.125 -7.984375 C 4.921875 -7.984375 5.140625 -5.5625 5.140625 -4.25 C 5.140625 -2.921875 4.921875 -0.5 3.125 -0.5 C 1.3125 -0.5 1.109375 -2.921875 1.109375 -4.25 Z M 1.109375 -4.25 "/>
</symbol>
<symbol overflow="visible" id="27NI4R+r6-0">
<path style="stroke:none;" d="M 0 0 L 6 0 L 6 -8.40625 L 0 -8.40625 Z M 3 -4.734375 L 0.953125 -7.796875 L 5.046875 -7.796875 Z M 3.359375 -4.203125 L 5.40625 -7.265625 L 5.40625 -1.140625 Z M 0.953125 -0.59375 L 3 -3.65625 L 5.046875 -0.59375 Z M 0.59375 -7.265625 L 2.640625 -4.203125 L 0.59375 -1.140625 Z M 0.59375 -7.265625 "/>
</symbol>
<symbol overflow="visible" id="27NI4R+r6-1">
<path style="stroke:none;" d="M 3.125 0 L 3.859375 0 L 3.859375 -8.5 L 3.234375 -8.5 L 1.140625 -6.78125 L 1.578125 -6.234375 L 3.125 -7.484375 Z M 3.125 0 "/>
</symbol>
<symbol overflow="visible" id="27NI4R+r7-0">
<path style="stroke:none;" d="M 0 0 L 6 0 L 6 -8.40625 L 0 -8.40625 Z M 3 -4.734375 L 0.953125 -7.796875 L 5.046875 -7.796875 Z M 3.359375 -4.203125 L 5.40625 -7.265625 L 5.40625 -1.140625 Z M 0.953125 -0.59375 L 3 -3.65625 L 5.046875 -0.59375 Z M 0.59375 -7.265625 L 2.640625 -4.203125 L 0.59375 -1.140625 Z M 0.59375 -7.265625 "/>
</symbol>
<symbol overflow="visible" id="27NI4R+r7-1">
<path style="stroke:none;" d="M 0.3125 -4.25 C 0.3125 -2.40625 0.734375 0.140625 3.125 0.140625 C 5.515625 0.140625 5.921875 -2.40625 5.921875 -4.25 C 5.921875 -6.09375 5.515625 -8.640625 3.125 -8.640625 C 0.734375 -8.640625 0.3125 -6.09375 0.3125 -4.25 Z M 1.109375 -4.25 C 1.109375 -5.5625 1.3125 -7.984375 3.125 -7.984375 C 4.921875 -7.984375 5.140625 -5.5625 5.140625 -4.25 C 5.140625 -2.921875 4.921875 -0.5 3.125 -0.5 C 1.3125 -0.5 1.109375 -2.921875 1.109375 -4.25 Z M 1.109375 -4.25 "/>
</symbol>
<symbol overflow="visible" id="27NI4R+r8-0">
<path style="stroke:none;" d="M 0 0 L 6 0 L 6 -8.40625 L 0 -8.40625 Z M 3 -4.734375 L 0.953125 -7.796875 L 5.046875 -7.796875 Z M 3.359375 -4.203125 L 5.40625 -7.265625 L 5.40625 -1.140625 Z M 0.953125 -0.59375 L 3 -3.65625 L 5.046875 -0.59375 Z M 0.59375 -7.265625 L 2.640625 -4.203125 L 0.59375 -1.140625 Z M 0.59375 -7.265625 "/>
</symbol>
<symbol overflow="visible" id="27NI4R+r8-1">
<path style="stroke:none;" d="M 0.484375 0 L 5.75 0 L 5.75 -0.640625 L 1.28125 -0.640625 L 3.9375 -3.375 C 4.8125 -4.265625 5.6875 -5.140625 5.6875 -6.46875 C 5.6875 -7.84375 4.546875 -8.640625 3.234375 -8.640625 C 1.9375 -8.640625 0.9375 -7.984375 0.65625 -6.6875 L 1.5 -6.59375 C 1.6875 -7.421875 2.328125 -7.984375 3.203125 -7.984375 C 4.171875 -7.984375 4.890625 -7.390625 4.890625 -6.40625 C 4.890625 -5.5 4.25 -4.796875 3.6875 -4.21875 L 0.484375 -0.84375 Z M 0.484375 0 "/>
</symbol>
<symbol overflow="visible" id="27NI4R+r9-0">
<path style="stroke:none;" d="M 0 0 L 6 0 L 6 -8.40625 L 0 -8.40625 Z M 3 -4.734375 L 0.953125 -7.796875 L 5.046875 -7.796875 Z M 3.359375 -4.203125 L 5.40625 -7.265625 L 5.40625 -1.140625 Z M 0.953125 -0.59375 L 3 -3.65625 L 5.046875 -0.59375 Z M 0.59375 -7.265625 L 2.640625 -4.203125 L 0.59375 -1.140625 Z M 0.59375 -7.265625 "/>
</symbol>
<symbol overflow="visible" id="27NI4R+r9-1">
<path style="stroke:none;" d="M 0.3125 -4.25 C 0.3125 -2.40625 0.734375 0.140625 3.125 0.140625 C 5.515625 0.140625 5.921875 -2.40625 5.921875 -4.25 C 5.921875 -6.09375 5.515625 -8.640625 3.125 -8.640625 C 0.734375 -8.640625 0.3125 -6.09375 0.3125 -4.25 Z M 1.109375 -4.25 C 1.109375 -5.5625 1.3125 -7.984375 3.125 -7.984375 C 4.921875 -7.984375 5.140625 -5.5625 5.140625 -4.25 C 5.140625 -2.921875 4.921875 -0.5 3.125 -0.5 C 1.3125 -0.5 1.109375 -2.921875 1.109375 -4.25 Z M 1.109375 -4.25 "/>
</symbol>
<symbol overflow="visible" id="27NI4R+r10-0">
<path style="stroke:none;" d="M 0 0 L 0 -6 L -8.40625 -6 L -8.40625 0 Z M -4.734375 -3 L -7.796875 -0.953125 L -7.796875 -5.046875 Z M -4.203125 -3.359375 L -7.265625 -5.40625 L -1.140625 -5.40625 Z M -0.59375 -0.953125 L -3.65625 -3 L -0.59375 -5.046875 Z M -7.265625 -0.59375 L -4.203125 -2.640625 L -1.140625 -0.59375 Z M -7.265625 -0.59375 "/>
</symbol>
<symbol overflow="visible" id="27NI4R+r10-1">
<path style="stroke:none;" d="M 0 -1.15625 L 0 -1.953125 L -7.4375 -1.953125 L -7.4375 -1.984375 L 0 -7.15625 L 0 -8.171875 L -8.5 -8.171875 L -8.5 -7.375 L -1.0625 -7.375 L -1.0625 -7.359375 L -8.5 -2.1875 L -8.5 -1.15625 Z M 0 -1.15625 "/>
</symbol>
<symbol overflow="visible" id="27NI4R+r10-2">
<path style="stroke:none;" d="M -5.546875 -5.65625 L -5.546875 -4.9375 L -2.765625 -4.9375 C -1.25 -4.9375 -0.5 -4.078125 -0.5 -3.015625 C -0.5 -1.875 -1.375 -1.625 -2.28125 -1.625 L -5.546875 -1.625 L -5.546875 -0.90625 L -2.25 -0.90625 C -1.03125 -0.90625 0.140625 -1.28125 0.140625 -3.015625 C 0.140625 -3.90625 -0.359375 -4.625 -0.96875 -4.90625 L -0.96875 -4.9375 C -0.859375 -4.96875 -0.40625 -4.984375 0 -4.984375 L 0 -5.71875 C -0.28125 -5.71875 -1.15625 -5.65625 -1.5625 -5.65625 Z M -5.546875 -5.65625 "/>
</symbol>
<symbol overflow="visible" id="27NI4R+r10-3">
<path style="stroke:none;" d="M 0 -0.953125 L 0 -1.6875 L -2.765625 -1.6875 C -4.296875 -1.6875 -5.046875 -2.53125 -5.046875 -3.59375 C -5.046875 -4.375 -4.359375 -4.75 -3.34375 -4.75 L 0 -4.75 L 0 -5.46875 L -3.125 -5.46875 C -3.90625 -5.46875 -5.046875 -5.8125 -5.046875 -7.15625 C -5.046875 -8.296875 -4.15625 -8.546875 -3.265625 -8.546875 L 0 -8.546875 L 0 -9.265625 L -3.296875 -9.265625 C -4.515625 -9.265625 -5.6875 -8.875 -5.6875 -7.15625 C -5.6875 -6.390625 -5.3125 -5.609375 -4.484375 -5.265625 C -5.328125 -5 -5.6875 -4.328125 -5.6875 -3.59375 C -5.6875 -2.703125 -5.1875 -1.984375 -4.578125 -1.703125 L -4.578125 -1.671875 C -4.6875 -1.640625 -5.140625 -1.625 -5.546875 -1.625 L -5.546875 -0.90625 C -5.25 -0.90625 -4.390625 -0.953125 -3.984375 -0.953125 Z M 0 -0.953125 "/>
</symbol>
<symbol overflow="visible" id="27NI4R+r10-4">
<path style="stroke:none;" d="M 0 -0.796875 L 0 -1.53125 L -0.96875 -1.53125 L -0.96875 -1.546875 C -0.203125 -1.984375 0.140625 -2.9375 0.140625 -3.765625 C 0.140625 -5.46875 -1.078125 -6.6875 -2.765625 -6.6875 C -4.46875 -6.6875 -5.6875 -5.46875 -5.6875 -3.765625 C -5.6875 -2.9375 -5.34375 -1.984375 -4.578125 -1.546875 L -4.578125 -1.53125 L -9.078125 -1.53125 L -9.078125 -0.796875 Z M -2.765625 -1.453125 C -4.015625 -1.453125 -5.046875 -2.453125 -5.046875 -3.765625 C -5.046875 -5.125 -4.015625 -5.96875 -2.765625 -5.96875 C -1.53125 -5.96875 -0.5 -5.125 -0.5 -3.765625 C -0.5 -2.453125 -1.53125 -1.453125 -2.765625 -1.453125 Z M -2.765625 -1.453125 "/>
</symbol>
<symbol overflow="visible" id="27NI4R+r10-5">
<path style="stroke:none;" d="M 0 -0.953125 L 0 -1.6875 L -3.03125 -1.6875 C -4.109375 -1.6875 -4.96875 -2.25 -4.96875 -3.484375 C -4.96875 -3.5625 -4.953125 -3.65625 -4.921875 -3.765625 L -5.625 -3.859375 C -5.65625 -3.703125 -5.6875 -3.578125 -5.6875 -3.4375 C -5.6875 -2.609375 -5.21875 -2.03125 -4.578125 -1.671875 C -4.6875 -1.640625 -5.140625 -1.625 -5.546875 -1.625 L -5.546875 -0.90625 C -5.25 -0.90625 -4.390625 -0.953125 -3.984375 -0.953125 Z M 0 -0.953125 "/>
</symbol>
<symbol overflow="visible" id="27NI4R+r10-6">
<path style="stroke:none;" d=""/>
</symbol>
<symbol overflow="visible" id="27NI4R+r11-0">
<path style="stroke:none;" d="M 0 0 L 0 -6 L -8.40625 -6 L -8.40625 0 Z M -4.734375 -3 L -7.796875 -0.953125 L -7.796875 -5.046875 Z M -4.203125 -3.359375 L -7.265625 -5.40625 L -1.140625 -5.40625 Z M -0.59375 -0.953125 L -3.65625 -3 L -0.59375 -5.046875 Z M -7.265625 -0.59375 L -4.203125 -2.640625 L -1.140625 -0.59375 Z M -7.265625 -0.59375 "/>
</symbol>
<symbol overflow="visible" id="27NI4R+r11-1">
<path style="stroke:none;" d="M -1.484375 -5.328125 C -0.890625 -4.96875 -0.5 -4.203125 -0.5 -3.46875 C -0.5 -1.78125 -1.984375 -1.375 -2.59375 -1.375 L -2.59375 -6.03125 L -3.09375 -6.03125 C -4.375 -6.03125 -5.6875 -5.125 -5.6875 -3.421875 C -5.6875 -1.796875 -4.4375 -0.640625 -2.78125 -0.640625 C -1.0625 -0.640625 0.140625 -1.765625 0.140625 -3.453125 C 0.140625 -4.4375 -0.203125 -5.296875 -1.046875 -5.859375 Z M -3.234375 -1.375 C -3.53125 -1.375 -5.046875 -1.8125 -5.046875 -3.390625 C -5.046875 -4.453125 -4.21875 -5.296875 -3.234375 -5.296875 Z M -3.234375 -1.375 "/>
</symbol>
<symbol overflow="visible" id="27NI4R+r11-2">
<path style="stroke:none;" d="M -2.765625 -0.640625 C -1.078125 -0.640625 0.140625 -1.859375 0.140625 -3.5625 C 0.140625 -5.265625 -1.078125 -6.484375 -2.765625 -6.484375 C -4.46875 -6.484375 -5.6875 -5.265625 -5.6875 -3.5625 C -5.6875 -1.859375 -4.46875 -0.640625 -2.765625 -0.640625 Z M -2.765625 -1.375 C -4.015625 -1.375 -5.046875 -2.203125 -5.046875 -3.5625 C -5.046875 -4.921875 -4.015625 -5.765625 -2.765625 -5.765625 C -1.53125 -5.765625 -0.5 -4.921875 -0.5 -3.5625 C -0.5 -2.203125 -1.53125 -1.375 -2.765625 -1.375 Z M -2.765625 -1.375 "/>
</symbol>
<symbol overflow="visible" id="27NI4R+r12-0">
<path style="stroke:none;" d="M 0 0 L 0 -6 L -8.40625 -6 L -8.40625 0 Z M -4.734375 -3 L -7.796875 -0.953125 L -7.796875 -5.046875 Z M -4.203125 -3.359375 L -7.265625 -5.40625 L -1.140625 -5.40625 Z M -0.59375 -0.953125 L -3.65625 -3 L -0.59375 -5.046875 Z M -7.265625 -0.59375 L -4.203125 -2.640625 L -1.140625 -0.59375 Z M -7.265625 -0.59375 "/>
</symbol>
<symbol overflow="visible" id="27NI4R+r12-1">
<path style="stroke:none;" d="M 0 -1.375 L 0 -2.09375 L -4.890625 -2.09375 L -4.890625 -3.390625 L -5.546875 -3.390625 L -5.546875 -2.09375 L -7.09375 -2.09375 C -8.09375 -2.09375 -8.5625 -2.40625 -8.5625 -3.0625 C -8.5625 -3.34375 -8.53125 -3.546875 -8.453125 -3.703125 L -9.078125 -3.859375 C -9.171875 -3.640625 -9.21875 -3.375 -9.21875 -3.03125 C -9.21875 -2.3125 -8.78125 -1.375 -7.359375 -1.375 L -5.546875 -1.375 L -5.546875 -0.21875 L -4.890625 -0.21875 L -4.890625 -1.375 Z M 0 -1.375 "/>
</symbol>
<symbol overflow="visible" id="27NI4R+r12-2">
<path style="stroke:none;" d=""/>
</symbol>
<symbol overflow="visible" id="27NI4R+r13-0">
<path style="stroke:none;" d="M 0 0 L 0 -6 L -8.40625 -6 L -8.40625 0 Z M -4.734375 -3 L -7.796875 -0.953125 L -7.796875 -5.046875 Z M -4.203125 -3.359375 L -7.265625 -5.40625 L -1.140625 -5.40625 Z M -0.59375 -0.953125 L -3.65625 -3 L -0.59375 -5.046875 Z M -7.265625 -0.59375 L -4.203125 -2.640625 L -1.140625 -0.59375 Z M -7.265625 -0.59375 "/>
</symbol>
<symbol overflow="visible" id="27NI4R+r13-1">
<path style="stroke:none;" d="M -1.265625 -5.046875 C -0.8125 -4.6875 -0.5 -4.15625 -0.5 -3.5625 C -0.5 -2.203125 -1.53125 -1.375 -2.765625 -1.375 C -4.015625 -1.375 -5.046875 -2.203125 -5.046875 -3.5625 C -5.046875 -4.140625 -4.75 -4.625 -4.296875 -5.046875 L -4.734375 -5.625 C -5.34375 -5.09375 -5.6875 -4.375 -5.6875 -3.5625 C -5.6875 -1.859375 -4.46875 -0.640625 -2.765625 -0.640625 C -1.078125 -0.640625 0.140625 -1.859375 0.140625 -3.5625 C 0.140625 -4.359375 -0.171875 -5.0625 -0.8125 -5.609375 Z M -1.265625 -5.046875 "/>
</symbol>
<symbol overflow="visible" id="27NI4R+r13-2">
<path style="stroke:none;" d="M -2.765625 -0.640625 C -1.078125 -0.640625 0.140625 -1.859375 0.140625 -3.5625 C 0.140625 -5.265625 -1.078125 -6.484375 -2.765625 -6.484375 C -4.46875 -6.484375 -5.6875 -5.265625 -5.6875 -3.5625 C -5.6875 -1.859375 -4.46875 -0.640625 -2.765625 -0.640625 Z M -2.765625 -1.375 C -4.015625 -1.375 -5.046875 -2.203125 -5.046875 -3.5625 C -5.046875 -4.921875 -4.015625 -5.765625 -2.765625 -5.765625 C -1.53125 -5.765625 -0.5 -4.921875 -0.5 -3.5625 C -0.5 -2.203125 -1.53125 -1.375 -2.765625 -1.375 Z M -2.765625 -1.375 "/>
</symbol>
<symbol overflow="visible" id="27NI4R+r14-0">
<path style="stroke:none;" d="M 0 0 L 0 -6 L -8.40625 -6 L -8.40625 0 Z M -4.734375 -3 L -7.796875 -0.953125 L -7.796875 -5.046875 Z M -4.203125 -3.359375 L -7.265625 -5.40625 L -1.140625 -5.40625 Z M -0.59375 -0.953125 L -3.65625 -3 L -0.59375 -5.046875 Z M -7.265625 -0.59375 L -4.203125 -2.640625 L -1.140625 -0.59375 Z M -7.265625 -0.59375 "/>
</symbol>
<symbol overflow="visible" id="27NI4R+r14-1">
<path style="stroke:none;" d="M 0 -0.953125 L 0 -1.6875 L -2.765625 -1.6875 C -4.296875 -1.6875 -5.046875 -2.53125 -5.046875 -3.59375 C -5.046875 -4.375 -4.359375 -4.75 -3.34375 -4.75 L 0 -4.75 L 0 -5.46875 L -3.125 -5.46875 C -3.90625 -5.46875 -5.046875 -5.8125 -5.046875 -7.15625 C -5.046875 -8.296875 -4.15625 -8.546875 -3.265625 -8.546875 L 0 -8.546875 L 0 -9.265625 L -3.296875 -9.265625 C -4.515625 -9.265625 -5.6875 -8.875 -5.6875 -7.15625 C -5.6875 -6.390625 -5.3125 -5.609375 -4.484375 -5.265625 C -5.328125 -5 -5.6875 -4.328125 -5.6875 -3.59375 C -5.6875 -2.703125 -5.1875 -1.984375 -4.578125 -1.703125 L -4.578125 -1.671875 C -4.6875 -1.640625 -5.140625 -1.625 -5.546875 -1.625 L -5.546875 -0.90625 C -5.25 -0.90625 -4.390625 -0.953125 -3.984375 -0.953125 Z M 0 -0.953125 "/>
</symbol>
<symbol overflow="visible" id="27NI4R+r15-0">
<path style="stroke:none;" d="M 0 0 L 0 -6 L -8.40625 -6 L -8.40625 0 Z M -4.734375 -3 L -7.796875 -0.953125 L -7.796875 -5.046875 Z M -4.203125 -3.359375 L -7.265625 -5.40625 L -1.140625 -5.40625 Z M -0.59375 -0.953125 L -3.65625 -3 L -0.59375 -5.046875 Z M -7.265625 -0.59375 L -4.203125 -2.640625 L -1.140625 -0.59375 Z M -7.265625 -0.59375 "/>
</symbol>
<symbol overflow="visible" id="27NI4R+r15-1">
<path style="stroke:none;" d="M 2.734375 -0.796875 L 2.734375 -1.53125 L -0.96875 -1.53125 L -0.96875 -1.546875 C -0.203125 -1.984375 0.140625 -2.9375 0.140625 -3.765625 C 0.140625 -5.46875 -1.078125 -6.6875 -2.765625 -6.6875 C -4.46875 -6.6875 -5.6875 -5.46875 -5.6875 -3.765625 C -5.6875 -2.9375 -5.34375 -1.984375 -4.578125 -1.546875 L -4.578125 -1.53125 L -5.546875 -1.53125 L -5.546875 -0.796875 Z M -2.765625 -1.453125 C -4.015625 -1.453125 -5.046875 -2.453125 -5.046875 -3.765625 C -5.046875 -5.125 -4.015625 -5.96875 -2.765625 -5.96875 C -1.53125 -5.96875 -0.5 -5.125 -0.5 -3.765625 C -0.5 -2.453125 -1.53125 -1.453125 -2.765625 -1.453125 Z M -2.765625 -1.453125 "/>
</symbol>
<symbol overflow="visible" id="27NI4R+r16-0">
<path style="stroke:none;" d="M 0 0 L 0 -6 L -8.40625 -6 L -8.40625 0 Z M -4.734375 -3 L -7.796875 -0.953125 L -7.796875 -5.046875 Z M -4.203125 -3.359375 L -7.265625 -5.40625 L -1.140625 -5.40625 Z M -0.59375 -0.953125 L -3.65625 -3 L -0.59375 -5.046875 Z M -7.265625 -0.59375 L -4.203125 -2.640625 L -1.140625 -0.59375 Z M -7.265625 -0.59375 "/>
</symbol>
<symbol overflow="visible" id="27NI4R+r16-1">
<path style="stroke:none;" d="M -1.484375 -5.328125 C -0.890625 -4.96875 -0.5 -4.203125 -0.5 -3.46875 C -0.5 -1.78125 -1.984375 -1.375 -2.59375 -1.375 L -2.59375 -6.03125 L -3.09375 -6.03125 C -4.375 -6.03125 -5.6875 -5.125 -5.6875 -3.421875 C -5.6875 -1.796875 -4.4375 -0.640625 -2.78125 -0.640625 C -1.0625 -0.640625 0.140625 -1.765625 0.140625 -3.453125 C 0.140625 -4.4375 -0.203125 -5.296875 -1.046875 -5.859375 Z M -3.234375 -1.375 C -3.53125 -1.375 -5.046875 -1.8125 -5.046875 -3.390625 C -5.046875 -4.453125 -4.21875 -5.296875 -3.234375 -5.296875 Z M -3.234375 -1.375 "/>
</symbol>
<symbol overflow="visible" id="27NI4R+r16-2">
<path style="stroke:none;" d="M -5.546875 -3.671875 L -5.546875 -2.09375 L -7.140625 -2.09375 L -7.140625 -1.375 L -5.546875 -1.375 L -5.546875 -0.171875 L -4.890625 -0.171875 L -4.890625 -1.375 L -1.28125 -1.375 C -0.484375 -1.375 0.140625 -1.765625 0.140625 -2.796875 C 0.140625 -3.078125 0.046875 -3.46875 -0.046875 -3.734375 L -0.703125 -3.671875 C -0.59375 -3.421875 -0.5 -3.125 -0.5 -2.859375 C -0.5 -2.375 -0.796875 -2.09375 -1.28125 -2.09375 L -4.890625 -2.09375 L -4.890625 -3.671875 Z M -5.546875 -3.671875 "/>
</symbol>
<symbol overflow="visible" id="27NI4R+r16-3">
<path style="stroke:none;" d="M 0 -1.078125 L 0 -1.796875 L -5.546875 -1.796875 L -5.546875 -1.078125 Z M -7.734375 -0.90625 C -7.4375 -0.90625 -7.203125 -1.140625 -7.203125 -1.4375 C -7.203125 -1.734375 -7.4375 -1.984375 -7.734375 -1.984375 C -8.046875 -1.984375 -8.28125 -1.734375 -8.28125 -1.4375 C -8.28125 -1.140625 -8.046875 -0.90625 -7.734375 -0.90625 Z M -7.734375 -0.90625 "/>
</symbol>
<symbol overflow="visible" id="27NI4R+r16-4">
<path style="stroke:none;" d="M -2.765625 -0.640625 C -1.078125 -0.640625 0.140625 -1.859375 0.140625 -3.5625 C 0.140625 -5.265625 -1.078125 -6.484375 -2.765625 -6.484375 C -4.46875 -6.484375 -5.6875 -5.265625 -5.6875 -3.5625 C -5.6875 -1.859375 -4.46875 -0.640625 -2.765625 -0.640625 Z M -2.765625 -1.375 C -4.015625 -1.375 -5.046875 -2.203125 -5.046875 -3.5625 C -5.046875 -4.921875 -4.015625 -5.765625 -2.765625 -5.765625 C -1.53125 -5.765625 -0.5 -4.921875 -0.5 -3.5625 C -0.5 -2.203125 -1.53125 -1.375 -2.765625 -1.375 Z M -2.765625 -1.375 "/>
</symbol>
<symbol overflow="visible" id="27NI4R+r16-5">
<path style="stroke:none;" d="M 0 -0.953125 L 0 -1.6875 L -2.765625 -1.6875 C -4.296875 -1.6875 -5.046875 -2.53125 -5.046875 -3.59375 C -5.046875 -4.734375 -4.15625 -4.984375 -3.265625 -4.984375 L 0 -4.984375 L 0 -5.71875 L -3.296875 -5.71875 C -4.515625 -5.71875 -5.6875 -5.328125 -5.6875 -3.59375 C -5.6875 -2.703125 -5.1875 -1.984375 -4.578125 -1.703125 L -4.578125 -1.671875 C -4.6875 -1.640625 -5.140625 -1.625 -5.546875 -1.625 L -5.546875 -0.90625 C -5.25 -0.90625 -4.390625 -0.953125 -3.984375 -0.953125 Z M 0 -0.953125 "/>
</symbol>
<symbol overflow="visible" id="27NI4R+r16-6">
<path style="stroke:none;" d="M -0.984375 -0.34375 C -0.21875 -0.765625 0.140625 -1.625 0.140625 -2.5625 C 0.140625 -3.625 -0.4375 -4.578125 -1.578125 -4.578125 C -3.8125 -4.578125 -2.65625 -1.28125 -4.15625 -1.28125 C -4.734375 -1.28125 -5.046875 -1.9375 -5.046875 -2.453125 C -5.046875 -3.109375 -4.765625 -3.484375 -4.265625 -3.765625 L -4.640625 -4.421875 C -5.359375 -4.0625 -5.6875 -3.359375 -5.6875 -2.453125 C -5.6875 -1.546875 -5.171875 -0.5625 -4.09375 -0.5625 C -1.984375 -0.5625 -3.046875 -3.859375 -1.53125 -3.859375 C -0.890625 -3.859375 -0.5 -3.203125 -0.5 -2.578125 C -0.5 -1.9375 -0.828125 -1.265625 -1.421875 -0.96875 Z M -0.984375 -0.34375 "/>
</symbol>
</g>
</defs>
<g id="surface1">
<rect x="0" y="0" width="600" height="450" style="fill:rgb(100%,100%,100%);fill-opacity:1;stroke:none;"/>
<g style="fill:rgb(0%,0%,0%);fill-opacity:1;">
  <use xlink:href="#27NI4R+r0-1" x="111.414062" y="421.570312"/>
</g>
<g style="fill:rgb(0%,0%,0%);fill-opacity:1;">
  <use xlink:href="#27NI4R+r1-1" x="117.652344" y="421.570312"/>
</g>
<g style="fill:rgb(0%,0%,0%);fill-opacity:1;">
  <use xlink:href="#27NI4R+r1-2" x="123.894531" y="421.570312"/>
</g>
<g style="fill:rgb(0%,0%,0%);fill-opacity:1;">
  <use xlink:href="#27NI4R+r2-1" x="130.132812" y="421.570312"/>
</g>
<g style="fill:rgb(0%,0%,0%);fill-opacity:1;">
  <use xlink:href="#27NI4R+r2-2" x="292.816406" y="421.570312"/>
</g>
<g style="fill:rgb(0%,0%,0%);fill-opacity:1;">
  <use xlink:href="#27NI4R+r0-2" x="299.058594" y="421.570312"/>
</g>
<g style="fill:rgb(0%,0%,0%);fill-opacity:1;">
  <use xlink:href="#27NI4R+r3-1" x="305.296875" y="421.570312"/>
</g>
<g style="fill:rgb(0%,0%,0%);fill-opacity:1;">
  <use xlink:href="#27NI4R+r3-2" x="311.535156" y="421.570312"/>
</g>
<g style="fill:rgb(0%,0%,0%);fill-opacity:1;">
  <use xlink:href="#27NI4R+r2-3" x="474.542969" y="421.570312"/>
</g>
<g style="fill:rgb(0%,0%,0%);fill-opacity:1;">
  <use xlink:href="#27NI4R+r2-1" x="480.785156" y="421.570312"/>
</g>
<g style="fill:rgb(0%,0%,0%);fill-opacity:1;">
  <use xlink:href="#27NI4R+r2-1" x="487.023437" y="421.570312"/>
</g>
<g style="fill:rgb(0%,0%,0%);fill-opacity:1;">
  <use xlink:href="#27NI4R+r4-1" x="493.265625" y="421.570312"/>
</g>
<g style="fill:rgb(0%,0%,0%);fill-opacity:1;">
  <use xlink:href="#27NI4R+r3-3" x="303.289062" y="435.820312"/>
</g>
<g style="fill:rgb(0%,0%,0%);fill-opacity:1;">
  <use xlink:href="#27NI4R+r3-4" x="310.179688" y="435.820312"/>
</g>
<g style="fill:rgb(0%,0%,0%);fill-opacity:1;">
  <use xlink:href="#27NI4R+r2-4" x="316.851562" y="435.820312"/>
</g>
<g style="fill:rgb(0%,0%,0%);fill-opacity:1;">
  <use xlink:href="#27NI4R+r0-3" x="323.078125" y="435.820312"/>
</g>
<g style="fill:rgb(0%,0%,0%);fill-opacity:1;">
  <use xlink:href="#27NI4R+r5-1" x="31.882812" y="396.035156"/>
</g>
<g style="fill:rgb(0%,0%,0%);fill-opacity:1;">
  <use xlink:href="#27NI4R+r6-1" x="25.644531" y="250.890625"/>
</g>
<g style="fill:rgb(0%,0%,0%);fill-opacity:1;">
  <use xlink:href="#27NI4R+r7-1" x="31.882812" y="250.890625"/>
</g>
<g style="fill:rgb(0%,0%,0%);fill-opacity:1;">
  <use xlink:href="#27NI4R+r8-1" x="25.644531" y="105.746094"/>
</g>
<g style="fill:rgb(0%,0%,0%);fill-opacity:1;">
  <use xlink:href="#27NI4R+r9-1" x="31.882812" y="105.746094"/>
</g>
<g style="fill:rgb(0%,0%,0%);fill-opacity:1;">
  <use xlink:href="#27NI4R+r10-1" x="20.644531" y="276.742188"/>
</g>
<g style="fill:rgb(0%,0%,0%);fill-opacity:1;">
  <use xlink:href="#27NI4R+r10-2" x="20.644531" y="267.40625"/>
</g>
<g style="fill:rgb(0%,0%,0%);fill-opacity:1;">
  <use xlink:href="#27NI4R+r10-3" x="20.644531" y="260.734375"/>
</g>
<g style="fill:rgb(0%,0%,0%);fill-opacity:1;">
  <use xlink:href="#27NI4R+r10-4" x="20.644531" y="250.507812"/>
</g>
<g style="fill:rgb(0%,0%,0%);fill-opacity:1;">
  <use xlink:href="#27NI4R+r11-1" x="20.644531" y="243.175781"/>
</g>
<g style="fill:rgb(0%,0%,0%);fill-opacity:1;">
  <use xlink:href="#27NI4R+r10-5" x="20.644531" y="236.503906"/>
</g>
<g style="fill:rgb(0%,0%,0%);fill-opacity:1;">
  <use xlink:href="#27NI4R+r10-6" x="20.644531" y="232.507812"/>
</g>
<g style="fill:rgb(0%,0%,0%);fill-opacity:1;">
  <use xlink:href="#27NI4R+r11-2" x="20.644531" y="229.390625"/>
</g>
<g style="fill:rgb(0%,0%,0%);fill-opacity:1;">
  <use xlink:href="#27NI4R+r12-1" x="20.644531" y="222.261719"/>
</g>
<g style="fill:rgb(0%,0%,0%);fill-opacity:1;">
  <use xlink:href="#27NI4R+r12-2" x="20.644531" y="218.707031"/>
</g>
<g style="fill:rgb(0%,0%,0%);fill-opacity:1;">
  <use xlink:href="#27NI4R+r13-1" x="20.644531" y="215.589844"/>
</g>
<g style="fill:rgb(0%,0%,0%);fill-opacity:1;">
  <use xlink:href="#27NI4R+r13-2" x="20.644531" y="209.816406"/>
</g>
<g style="fill:rgb(0%,0%,0%);fill-opacity:1;">
  <use xlink:href="#27NI4R+r14-1" x="20.644531" y="202.6875"/>
</g>
<g style="fill:rgb(0%,0%,0%);fill-opacity:1;">
  <use xlink:href="#27NI4R+r15-1" x="20.644531" y="192.464844"/>
</g>
<g style="fill:rgb(0%,0%,0%);fill-opacity:1;">
  <use xlink:href="#27NI4R+r16-1" x="20.644531" y="185.132812"/>
</g>
<g style="fill:rgb(0%,0%,0%);fill-opacity:1;">
  <use xlink:href="#27NI4R+r16-2" x="20.644531" y="178.460938"/>
</g>
<g style="fill:rgb(0%,0%,0%);fill-opacity:1;">
  <use xlink:href="#27NI4R+r16-3" x="20.644531" y="174.464844"/>
</g>
<g style="fill:rgb(0%,0%,0%);fill-opacity:1;">
  <use xlink:href="#27NI4R+r16-2" x="20.644531" y="171.585938"/>
</g>
<g style="fill:rgb(0%,0%,0%);fill-opacity:1;">
  <use xlink:href="#27NI4R+r16-3" x="20.644531" y="167.589844"/>
</g>
<g style="fill:rgb(0%,0%,0%);fill-opacity:1;">
  <use xlink:href="#27NI4R+r16-4" x="20.644531" y="164.710938"/>
</g>
<g style="fill:rgb(0%,0%,0%);fill-opacity:1;">
  <use xlink:href="#27NI4R+r16-5" x="20.644531" y="157.582031"/>
</g>
<g style="fill:rgb(0%,0%,0%);fill-opacity:1;">
  <use xlink:href="#27NI4R+r16-6" x="20.644531" y="150.910156"/>
</g>
<path style=" stroke:none;fill-rule:nonzero;fill:rgb(0%,0%,0%);fill-opacity:1;" d="M 67.976562 378.449219 C 67.976562 380.949219 64.226562 380.949219 64.226562 378.449219 C 64.226562 375.949219 67.976562 375.949219 67.976562 378.449219 "/>
<path style=" stroke:none;fill-rule:nonzero;fill:rgb(0%,0%,0%);fill-opacity:1;" d="M 71.605469 378.449219 C 71.605469 380.949219 67.855469 380.949219 67.855469 378.449219 C 67.855469 375.949219 71.605469 375.949219 71.605469 378.449219 "/>
<path style=" stroke:none;fill-rule:nonzero;fill:rgb(0%,0%,0%);fill-opacity:1;" d="M 75.234375 378.449219 C 75.234375 380.949219 71.484375 380.949219 71.484375 378.449219 C 71.484375 375.949219 75.234375 375.949219 75.234375 378.449219 "/>
<path style=" stroke:none;fill-rule:nonzero;fill:rgb(0%,0%,0%);fill-opacity:1;" d="M 78.863281 378.449219 C 78.863281 380.949219 75.113281 380.949219 75.113281 378.449219 C 75.113281 375.949219 78.863281 375.949219 78.863281 378.449219 "/>
<path style=" stroke:none;fill-rule:nonzero;fill:rgb(0%,0%,0%);fill-opacity:1;" d="M 82.488281 378.449219 C 82.488281 380.949219 78.738281 380.949219 78.738281 378.449219 C 78.738281 375.949219 82.488281 375.949219 82.488281 378.449219 "/>
<path style=" stroke:none;fill-rule:nonzero;fill:rgb(0%,0%,0%);fill-opacity:1;" d="M 86.117188 378.449219 C 86.117188 380.949219 82.367188 380.949219 82.367188 378.449219 C 82.367188 375.949219 86.117188 375.949219 86.117188 378.449219 "/>
<path style=" stroke:none;fill-rule:nonzero;fill:rgb(0%,0%,0%);fill-opacity:1;" d="M 89.746094 378.449219 C 89.746094 380.949219 85.996094 380.949219 85.996094 378.449219 C 85.996094 375.949219 89.746094 375.949219 89.746094 378.449219 "/>
<path style=" stroke:none;fill-rule:nonzero;fill:rgb(0%,0%,0%);fill-opacity:1;" d="M 93.375 378.449219 C 93.375 380.949219 89.625 380.949219 89.625 378.449219 C 89.625 375.949219 93.375 375.949219 93.375 378.449219 "/>
<path style=" stroke:none;fill-rule:nonzero;fill:rgb(0%,0%,0%);fill-opacity:1;" d="M 97 378.449219 C 97 380.949219 93.25 380.949219 93.25 378.449219 C 93.25 375.949219 97 375.949219 97 378.449219 "/>
<path style=" stroke:none;fill-rule:nonzero;fill:rgb(0%,0%,0%);fill-opacity:1;" d="M 100.628906 378.449219 C 100.628906 380.949219 96.878906 380.949219 96.878906 378.449219 C 96.878906 375.949219 100.628906 375.949219 100.628906 378.449219 "/>
<path style=" stroke:none;fill-rule:nonzero;fill:rgb(0%,0%,0%);fill-opacity:1;" d="M 104.257812 378.449219 C 104.257812 380.949219 100.507812 380.949219 100.507812 378.449219 C 100.507812 375.949219 104.257812 375.949219 104.257812 378.449219 "/>
<path style=" stroke:none;fill-rule:nonzero;fill:rgb(0%,0%,0%);fill-opacity:1;" d="M 107.886719 378.449219 C 107.886719 380.949219 104.136719 380.949219 104.136719 378.449219 C 104.136719 375.949219 107.886719 375.949219 107.886719 378.449219 "/>
<path style=" stroke:none;fill-rule:nonzero;fill:rgb(0%,0%,0%);fill-opacity:1;" d="M 111.515625 378.449219 C 111.515625 380.949219 107.765625 380.949219 107.765625 378.449219 C 107.765625 375.949219 111.515625 375.949219 111.515625 378.449219 "/>
<path style=" stroke:none;fill-rule:nonzero;fill:rgb(0%,0%,0%);fill-opacity:1;" d="M 115.140625 378.449219 C 115.140625 380.949219 111.390625 380.949219 111.390625 378.449219 C 111.390625 375.949219 115.140625 375.949219 115.140625 378.449219 "/>
<path style=" stroke:none;fill-rule:nonzero;fill:rgb(0%,0%,0%);fill-opacity:1;" d="M 118.769531 378.449219 C 118.769531 380.949219 115.019531 380.949219 115.019531 378.449219 C 115.019531 375.949219 118.769531 375.949219 118.769531 378.449219 "/>
<path style=" stroke:none;fill-rule:nonzero;fill:rgb(0%,0%,0%);fill-opacity:1;" d="M 122.398438 378.449219 C 122.398438 380.949219 118.648438 380.949219 118.648438 378.449219 C 118.648438 375.949219 122.398438 375.949219 122.398438 378.449219 "/>
<path style=" stroke:none;fill-rule:nonzero;fill:rgb(0%,0%,0%);fill-opacity:1;" d="M 126.027344 378.449219 C 126.027344 380.949219 122.277344 380.949219 122.277344 378.449219 C 122.277344 375.949219 126.027344 375.949219 126.027344 378.449219 "/>
<path style=" stroke:none;fill-rule:nonzero;fill:rgb(0%,0%,0%);fill-opacity:1;" d="M 129.65625 378.449219 C 129.65625 380.949219 125.90625 380.949219 125.90625 378.449219 C 125.90625 375.949219 129.65625 375.949219 129.65625 378.449219 "/>
<path style=" stroke:none;fill-rule:nonzero;fill:rgb(0%,0%,0%);fill-opacity:1;" d="M 133.28125 378.449219 C 133.28125 380.949219 129.53125 380.949219 129.53125 378.449219 C 129.53125 375.949219 133.28125 375.949219 133.28125 378.449219 "/>
<path style=" stroke:none;fill-rule:nonzero;fill:rgb(0%,0%,0%);fill-opacity:1;" d="M 136.910156 378.449219 C 136.910156 380.949219 133.160156 380.949219 133.160156 378.449219 C 133.160156 375.949219 136.910156 375.949219 136.910156 378.449219 "/>
<path style=" stroke:none;fill-rule:nonzero;fill:rgb(0%,0%,0%);fill-opacity:1;" d="M 140.539062 378.449219 C 140.539062 380.949219 136.789062 380.949219 136.789062 378.449219 C 136.789062 375.949219 140.539062 375.949219 140.539062 378.449219 "/>
<path style=" stroke:none;fill-rule:nonzero;fill:rgb(0%,0%,0%);fill-opacity:1;" d="M 144.167969 363.933594 C 144.167969 366.433594 140.417969 366.433594 140.417969 363.933594 C 140.417969 361.433594 144.167969 361.433594 144.167969 363.933594 "/>
<path style=" stroke:none;fill-rule:nonzero;fill:rgb(0%,0%,0%);fill-opacity:1;" d="M 147.796875 349.417969 C 147.796875 351.917969 144.046875 351.917969 144.046875 349.417969 C 144.046875 346.917969 147.796875 346.917969 147.796875 349.417969 "/>
<path style=" stroke:none;fill-rule:nonzero;fill:rgb(0%,0%,0%);fill-opacity:1;" d="M 151.421875 378.449219 C 151.421875 380.949219 147.671875 380.949219 147.671875 378.449219 C 147.671875 375.949219 151.421875 375.949219 151.421875 378.449219 "/>
<path style=" stroke:none;fill-rule:nonzero;fill:rgb(0%,0%,0%);fill-opacity:1;" d="M 155.050781 334.90625 C 155.050781 337.40625 151.300781 337.40625 151.300781 334.90625 C 151.300781 332.40625 155.050781 332.40625 155.050781 334.90625 "/>
<path style=" stroke:none;fill-rule:nonzero;fill:rgb(0%,0%,0%);fill-opacity:1;" d="M 158.679688 334.90625 C 158.679688 337.40625 154.929688 337.40625 154.929688 334.90625 C 154.929688 332.40625 158.679688 332.40625 158.679688 334.90625 "/>
<path style=" stroke:none;fill-rule:nonzero;fill:rgb(0%,0%,0%);fill-opacity:1;" d="M 162.308594 349.417969 C 162.308594 351.917969 158.558594 351.917969 158.558594 349.417969 C 158.558594 346.917969 162.308594 346.917969 162.308594 349.417969 "/>
<path style=" stroke:none;fill-rule:nonzero;fill:rgb(0%,0%,0%);fill-opacity:1;" d="M 165.933594 320.390625 C 165.933594 322.890625 162.183594 322.890625 162.183594 320.390625 C 162.183594 317.890625 165.933594 317.890625 165.933594 320.390625 "/>
<path style=" stroke:none;fill-rule:nonzero;fill:rgb(0%,0%,0%);fill-opacity:1;" d="M 169.5625 320.390625 C 169.5625 322.890625 165.8125 322.890625 165.8125 320.390625 C 165.8125 317.890625 169.5625 317.890625 169.5625 320.390625 "/>
<path style=" stroke:none;fill-rule:nonzero;fill:rgb(0%,0%,0%);fill-opacity:1;" d="M 173.191406 320.390625 C 173.191406 322.890625 169.441406 322.890625 169.441406 320.390625 C 169.441406 317.890625 173.191406 317.890625 173.191406 320.390625 "/>
<path style=" stroke:none;fill-rule:nonzero;fill:rgb(0%,0%,0%);fill-opacity:1;" d="M 176.820312 334.90625 C 176.820312 337.40625 173.070312 337.40625 173.070312 334.90625 C 173.070312 332.40625 176.820312 332.40625 176.820312 334.90625 "/>
<path style=" stroke:none;fill-rule:nonzero;fill:rgb(0%,0%,0%);fill-opacity:1;" d="M 180.449219 349.417969 C 180.449219 351.917969 176.699219 351.917969 176.699219 349.417969 C 176.699219 346.917969 180.449219 346.917969 180.449219 349.417969 "/>
<path style=" stroke:none;fill-rule:nonzero;fill:rgb(0%,0%,0%);fill-opacity:1;" d="M 184.074219 334.90625 C 184.074219 337.40625 180.324219 337.40625 180.324219 334.90625 C 180.324219 332.40625 184.074219 332.40625 184.074219 334.90625 "/>
<path style=" stroke:none;fill-rule:nonzero;fill:rgb(0%,0%,0%);fill-opacity:1;" d="M 187.703125 334.90625 C 187.703125 337.40625 183.953125 337.40625 183.953125 334.90625 C 183.953125 332.40625 187.703125 332.40625 187.703125 334.90625 "/>
<path style=" stroke:none;fill-rule:nonzero;fill:rgb(0%,0%,0%);fill-opacity:1;" d="M 191.332031 334.90625 C 191.332031 337.40625 187.582031 337.40625 187.582031 334.90625 C 187.582031 332.40625 191.332031 332.40625 191.332031 334.90625 "/>
<path style=" stroke:none;fill-rule:nonzero;fill:rgb(0%,0%,0%);fill-opacity:1;" d="M 194.960938 305.875 C 194.960938 308.375 191.210938 308.375 191.210938 305.875 C 191.210938 303.375 194.960938 303.375 194.960938 305.875 "/>
<path style=" stroke:none;fill-rule:nonzero;fill:rgb(0%,0%,0%);fill-opacity:1;" d="M 198.585938 320.390625 C 198.585938 322.890625 194.835938 322.890625 194.835938 320.390625 C 194.835938 317.890625 198.585938 317.890625 198.585938 320.390625 "/>
<path style=" stroke:none;fill-rule:nonzero;fill:rgb(0%,0%,0%);fill-opacity:1;" d="M 202.214844 363.933594 C 202.214844 366.433594 198.464844 366.433594 198.464844 363.933594 C 198.464844 361.433594 202.214844 361.433594 202.214844 363.933594 "/>
<path style=" stroke:none;fill-rule:nonzero;fill:rgb(0%,0%,0%);fill-opacity:1;" d="M 205.84375 305.875 C 205.84375 308.375 202.09375 308.375 202.09375 305.875 C 202.09375 303.375 205.84375 303.375 205.84375 305.875 "/>
<path style=" stroke:none;fill-rule:nonzero;fill:rgb(0%,0%,0%);fill-opacity:1;" d="M 209.472656 305.875 C 209.472656 308.375 205.722656 308.375 205.722656 305.875 C 205.722656 303.375 209.472656 303.375 209.472656 305.875 "/>
<path style=" stroke:none;fill-rule:nonzero;fill:rgb(0%,0%,0%);fill-opacity:1;" d="M 213.101562 305.875 C 213.101562 308.375 209.351562 308.375 209.351562 305.875 C 209.351562 303.375 213.101562 303.375 213.101562 305.875 "/>
<path style=" stroke:none;fill-rule:nonzero;fill:rgb(0%,0%,0%);fill-opacity:1;" d="M 216.726562 334.90625 C 216.726562 337.40625 212.976562 337.40625 212.976562 334.90625 C 212.976562 332.40625 216.726562 332.40625 216.726562 334.90625 "/>
<path style=" stroke:none;fill-rule:nonzero;fill:rgb(0%,0%,0%);fill-opacity:1;" d="M 220.355469 334.90625 C 220.355469 337.40625 216.605469 337.40625 216.605469 334.90625 C 216.605469 332.40625 220.355469 332.40625 220.355469 334.90625 "/>
<path style=" stroke:none;fill-rule:nonzero;fill:rgb(0%,0%,0%);fill-opacity:1;" d="M 223.984375 305.875 C 223.984375 308.375 220.234375 308.375 220.234375 305.875 C 220.234375 303.375 223.984375 303.375 223.984375 305.875 "/>
<path style=" stroke:none;fill-rule:nonzero;fill:rgb(0%,0%,0%);fill-opacity:1;" d="M 227.613281 305.875 C 227.613281 308.375 223.863281 308.375 223.863281 305.875 C 223.863281 303.375 227.613281 303.375 227.613281 305.875 "/>
<path style=" stroke:none;fill-rule:nonzero;fill:rgb(0%,0%,0%);fill-opacity:1;" d="M 231.242188 276.847656 C 231.242188 279.347656 227.492188 279.347656 227.492188 276.847656 C 227.492188 274.347656 231.242188 274.347656 231.242188 276.847656 "/>
<path style=" stroke:none;fill-rule:nonzero;fill:rgb(0%,0%,0%);fill-opacity:1;" d="M 234.867188 291.363281 C 234.867188 293.863281 231.117188 293.863281 231.117188 291.363281 C 231.117188 288.863281 234.867188 288.863281 234.867188 291.363281 "/>
<path style=" stroke:none;fill-rule:nonzero;fill:rgb(0%,0%,0%);fill-opacity:1;" d="M 238.496094 291.363281 C 238.496094 293.863281 234.746094 293.863281 234.746094 291.363281 C 234.746094 288.863281 238.496094 288.863281 238.496094 291.363281 "/>
<path style=" stroke:none;fill-rule:nonzero;fill:rgb(0%,0%,0%);fill-opacity:1;" d="M 242.125 305.875 C 242.125 308.375 238.375 308.375 238.375 305.875 C 238.375 303.375 242.125 303.375 242.125 305.875 "/>
<path style=" stroke:none;fill-rule:nonzero;fill:rgb(0%,0%,0%);fill-opacity:1;" d="M 245.753906 305.875 C 245.753906 308.375 242.003906 308.375 242.003906 305.875 C 242.003906 303.375 245.753906 303.375 245.753906 305.875 "/>
<path style=" stroke:none;fill-rule:nonzero;fill:rgb(0%,0%,0%);fill-opacity:1;" d="M 249.382812 305.875 C 249.382812 308.375 245.632812 308.375 245.632812 305.875 C 245.632812 303.375 249.382812 303.375 249.382812 305.875 "/>
<path style=" stroke:none;fill-rule:nonzero;fill:rgb(0%,0%,0%);fill-opacity:1;" d="M 253.007812 305.875 C 253.007812 308.375 249.257812 308.375 249.257812 305.875 C 249.257812 303.375 253.007812 303.375 253.007812 305.875 "/>
<path style=" stroke:none;fill-rule:nonzero;fill:rgb(0%,0%,0%);fill-opacity:1;" d="M 256.636719 305.875 C 256.636719 308.375 252.886719 308.375 252.886719 305.875 C 252.886719 303.375 256.636719 303.375 256.636719 305.875 "/>
<path style=" stroke:none;fill-rule:nonzero;fill:rgb(0%,0%,0%);fill-opacity:1;" d="M 260.265625 276.847656 C 260.265625 279.347656 256.515625 279.347656 256.515625 276.847656 C 256.515625 274.347656 260.265625 274.347656 260.265625 276.847656 "/>
<path style=" stroke:none;fill-rule:nonzero;fill:rgb(0%,0%,0%);fill-opacity:1;" d="M 263.894531 305.875 C 263.894531 308.375 260.144531 308.375 260.144531 305.875 C 260.144531 303.375 263.894531 303.375 263.894531 305.875 "/>
<path style=" stroke:none;fill-rule:nonzero;fill:rgb(0%,0%,0%);fill-opacity:1;" d="M 267.519531 320.390625 C 267.519531 322.890625 263.769531 322.890625 263.769531 320.390625 C 263.769531 317.890625 267.519531 317.890625 267.519531 320.390625 "/>
<path style=" stroke:none;fill-rule:nonzero;fill:rgb(0%,0%,0%);fill-opacity:1;" d="M 271.148438 334.90625 C 271.148438 337.40625 267.398438 337.40625 267.398438 334.90625 C 267.398438 332.40625 271.148438 332.40625 271.148438 334.90625 "/>
<path style=" stroke:none;fill-rule:nonzero;fill:rgb(0%,0%,0%);fill-opacity:1;" d="M 274.777344 363.933594 C 274.777344 366.433594 271.027344 366.433594 271.027344 363.933594 C 271.027344 361.433594 274.777344 361.433594 274.777344 363.933594 "/>
<path style=" stroke:none;fill-rule:nonzero;fill:rgb(0%,0%,0%);fill-opacity:1;" d="M 278.40625 349.417969 C 278.40625 351.917969 274.65625 351.917969 274.65625 349.417969 C 274.65625 346.917969 278.40625 346.917969 278.40625 349.417969 "/>
<path style=" stroke:none;fill-rule:nonzero;fill:rgb(0%,0%,0%);fill-opacity:1;" d="M 282.035156 363.933594 C 282.035156 366.433594 278.285156 366.433594 278.285156 363.933594 C 278.285156 361.433594 282.035156 361.433594 282.035156 363.933594 "/>
<path style=" stroke:none;fill-rule:nonzero;fill:rgb(0%,0%,0%);fill-opacity:1;" d="M 289.289062 320.390625 C 289.289062 322.890625 285.539062 322.890625 285.539062 320.390625 C 285.539062 317.890625 289.289062 317.890625 289.289062 320.390625 "/>
<path style=" stroke:none;fill-rule:nonzero;fill:rgb(0%,0%,0%);fill-opacity:1;" d="M 292.917969 320.390625 C 292.917969 322.890625 289.167969 322.890625 289.167969 320.390625 C 289.167969 317.890625 292.917969 317.890625 292.917969 320.390625 "/>
<path style=" stroke:none;fill-rule:nonzero;fill:rgb(0%,0%,0%);fill-opacity:1;" d="M 296.546875 305.875 C 296.546875 308.375 292.796875 308.375 292.796875 305.875 C 292.796875 303.375 296.546875 303.375 296.546875 305.875 "/>
<path style=" stroke:none;fill-rule:nonzero;fill:rgb(0%,0%,0%);fill-opacity:1;" d="M 300.171875 291.363281 C 300.171875 293.863281 296.421875 293.863281 296.421875 291.363281 C 296.421875 288.863281 300.171875 288.863281 300.171875 291.363281 "/>
<path style=" stroke:none;fill-rule:nonzero;fill:rgb(0%,0%,0%);fill-opacity:1;" d="M 303.800781 305.875 C 303.800781 308.375 300.050781 308.375 300.050781 305.875 C 300.050781 303.375 303.800781 303.375 303.800781 305.875 "/>
<path style=" stroke:none;fill-rule:nonzero;fill:rgb(0%,0%,0%);fill-opacity:1;" d="M 307.429688 276.847656 C 307.429688 279.347656 303.679688 279.347656 303.679688 276.847656 C 303.679688 274.347656 307.429688 274.347656 307.429688 276.847656 "/>
<path style=" stroke:none;fill-rule:nonzero;fill:rgb(0%,0%,0%);fill-opacity:1;" d="M 311.058594 334.90625 C 311.058594 337.40625 307.308594 337.40625 307.308594 334.90625 C 307.308594 332.40625 311.058594 332.40625 311.058594 334.90625 "/>
<path style=" stroke:none;fill-rule:nonzero;fill:rgb(0%,0%,0%);fill-opacity:1;" d="M 314.6875 334.90625 C 314.6875 337.40625 310.9375 337.40625 310.9375 334.90625 C 310.9375 332.40625 314.6875 332.40625 314.6875 334.90625 "/>
<path style=" stroke:none;fill-rule:nonzero;fill:rgb(0%,0%,0%);fill-opacity:1;" d="M 318.3125 291.363281 C 318.3125 293.863281 314.5625 293.863281 314.5625 291.363281 C 314.5625 288.863281 318.3125 288.863281 318.3125 291.363281 "/>
<path style=" stroke:none;fill-rule:nonzero;fill:rgb(0%,0%,0%);fill-opacity:1;" d="M 321.941406 320.390625 C 321.941406 322.890625 318.191406 322.890625 318.191406 320.390625 C 318.191406 317.890625 321.941406 317.890625 321.941406 320.390625 "/>
<path style=" stroke:none;fill-rule:nonzero;fill:rgb(0%,0%,0%);fill-opacity:1;" d="M 325.570312 291.363281 C 325.570312 293.863281 321.820312 293.863281 321.820312 291.363281 C 321.820312 288.863281 325.570312 288.863281 325.570312 291.363281 "/>
<path style=" stroke:none;fill-rule:nonzero;fill:rgb(0%,0%,0%);fill-opacity:1;" d="M 329.199219 233.304688 C 329.199219 235.804688 325.449219 235.804688 325.449219 233.304688 C 325.449219 230.804688 329.199219 230.804688 329.199219 233.304688 "/>
<path style=" stroke:none;fill-rule:nonzero;fill:rgb(0%,0%,0%);fill-opacity:1;" d="M 332.828125 204.277344 C 332.828125 206.777344 329.078125 206.777344 329.078125 204.277344 C 329.078125 201.777344 332.828125 201.777344 332.828125 204.277344 "/>
<path style=" stroke:none;fill-rule:nonzero;fill:rgb(0%,0%,0%);fill-opacity:1;" d="M 336.453125 276.847656 C 336.453125 279.347656 332.703125 279.347656 332.703125 276.847656 C 332.703125 274.347656 336.453125 274.347656 336.453125 276.847656 "/>
<path style=" stroke:none;fill-rule:nonzero;fill:rgb(0%,0%,0%);fill-opacity:1;" d="M 340.082031 262.332031 C 340.082031 264.832031 336.332031 264.832031 336.332031 262.332031 C 336.332031 259.832031 340.082031 259.832031 340.082031 262.332031 "/>
<path style=" stroke:none;fill-rule:nonzero;fill:rgb(0%,0%,0%);fill-opacity:1;" d="M 343.710938 218.789062 C 343.710938 221.289062 339.960938 221.289062 339.960938 218.789062 C 339.960938 216.289062 343.710938 216.289062 343.710938 218.789062 "/>
<path style=" stroke:none;fill-rule:nonzero;fill:rgb(0%,0%,0%);fill-opacity:1;" d="M 347.339844 247.820312 C 347.339844 250.320312 343.589844 250.320312 343.589844 247.820312 C 343.589844 245.320312 347.339844 245.320312 347.339844 247.820312 "/>
<path style=" stroke:none;fill-rule:nonzero;fill:rgb(0%,0%,0%);fill-opacity:1;" d="M 350.96875 218.789062 C 350.96875 221.289062 347.21875 221.289062 347.21875 218.789062 C 347.21875 216.289062 350.96875 216.289062 350.96875 218.789062 "/>
<path style=" stroke:none;fill-rule:nonzero;fill:rgb(0%,0%,0%);fill-opacity:1;" d="M 354.59375 175.246094 C 354.59375 177.746094 350.84375 177.746094 350.84375 175.246094 C 350.84375 172.746094 354.59375 172.746094 354.59375 175.246094 "/>
<path style=" stroke:none;fill-rule:nonzero;fill:rgb(0%,0%,0%);fill-opacity:1;" d="M 358.222656 233.304688 C 358.222656 235.804688 354.472656 235.804688 354.472656 233.304688 C 354.472656 230.804688 358.222656 230.804688 358.222656 233.304688 "/>
<path style=" stroke:none;fill-rule:nonzero;fill:rgb(0%,0%,0%);fill-opacity:1;" d="M 361.851562 189.761719 C 361.851562 192.261719 358.101562 192.261719 358.101562 189.761719 C 358.101562 187.261719 361.851562 187.261719 361.851562 189.761719 "/>
<path style=" stroke:none;fill-rule:nonzero;fill:rgb(0%,0%,0%);fill-opacity:1;" d="M 365.480469 189.761719 C 365.480469 192.261719 361.730469 192.261719 361.730469 189.761719 C 361.730469 187.261719 365.480469 187.261719 365.480469 189.761719 "/>
<path style=" stroke:none;fill-rule:nonzero;fill:rgb(0%,0%,0%);fill-opacity:1;" d="M 369.105469 233.304688 C 369.105469 235.804688 365.355469 235.804688 365.355469 233.304688 C 365.355469 230.804688 369.105469 230.804688 369.105469 233.304688 "/>
<path style=" stroke:none;fill-rule:nonzero;fill:rgb(0%,0%,0%);fill-opacity:1;" d="M 372.734375 146.21875 C 372.734375 148.71875 368.984375 148.71875 368.984375 146.21875 C 368.984375 143.71875 372.734375 143.71875 372.734375 146.21875 "/>
<path style=" stroke:none;fill-rule:nonzero;fill:rgb(0%,0%,0%);fill-opacity:1;" d="M 376.363281 247.820312 C 376.363281 250.320312 372.613281 250.320312 372.613281 247.820312 C 372.613281 245.320312 376.363281 245.320312 376.363281 247.820312 "/>
<path style=" stroke:none;fill-rule:nonzero;fill:rgb(0%,0%,0%);fill-opacity:1;" d="M 379.992188 218.789062 C 379.992188 221.289062 376.242188 221.289062 376.242188 218.789062 C 376.242188 216.289062 379.992188 216.289062 379.992188 218.789062 "/>
<path style=" stroke:none;fill-rule:nonzero;fill:rgb(0%,0%,0%);fill-opacity:1;" d="M 383.621094 102.675781 C 383.621094 105.175781 379.871094 105.175781 379.871094 102.675781 C 379.871094 100.175781 383.621094 100.175781 383.621094 102.675781 "/>
<path style=" stroke:none;fill-rule:nonzero;fill:rgb(0%,0%,0%);fill-opacity:1;" d="M 387.246094 146.21875 C 387.246094 148.71875 383.496094 148.71875 383.496094 146.21875 C 383.496094 143.71875 387.246094 143.71875 387.246094 146.21875 "/>
<path style=" stroke:none;fill-rule:nonzero;fill:rgb(0%,0%,0%);fill-opacity:1;" d="M 390.875 146.21875 C 390.875 148.71875 387.125 148.71875 387.125 146.21875 C 387.125 143.71875 390.875 143.71875 390.875 146.21875 "/>
<path style=" stroke:none;fill-rule:nonzero;fill:rgb(0%,0%,0%);fill-opacity:1;" d="M 394.503906 146.21875 C 394.503906 148.71875 390.753906 148.71875 390.753906 146.21875 C 390.753906 143.71875 394.503906 143.71875 394.503906 146.21875 "/>
<path style=" stroke:none;fill-rule:nonzero;fill:rgb(0%,0%,0%);fill-opacity:1;" d="M 398.132812 160.730469 C 398.132812 163.230469 394.382812 163.230469 394.382812 160.730469 C 394.382812 158.230469 398.132812 158.230469 398.132812 160.730469 "/>
<path style=" stroke:none;fill-rule:nonzero;fill:rgb(0%,0%,0%);fill-opacity:1;" d="M 401.757812 30.101562 C 401.757812 32.601562 398.007812 32.601562 398.007812 30.101562 C 398.007812 27.601562 401.757812 27.601562 401.757812 30.101562 "/>
<path style=" stroke:none;fill-rule:nonzero;fill:rgb(0%,0%,0%);fill-opacity:1;" d="M 405.386719 204.277344 C 405.386719 206.777344 401.636719 206.777344 401.636719 204.277344 C 401.636719 201.777344 405.386719 201.777344 405.386719 204.277344 "/>
<path style=" stroke:none;fill-rule:nonzero;fill:rgb(0%,0%,0%);fill-opacity:1;" d="M 409.015625 146.21875 C 409.015625 148.71875 405.265625 148.71875 405.265625 146.21875 C 405.265625 143.71875 409.015625 143.71875 409.015625 146.21875 "/>
<path style=" stroke:none;fill-rule:nonzero;fill:rgb(0%,0%,0%);fill-opacity:1;" d="M 412.644531 131.703125 C 412.644531 134.203125 408.894531 134.203125 408.894531 131.703125 C 408.894531 129.203125 412.644531 129.203125 412.644531 131.703125 "/>
<path style=" stroke:none;fill-rule:nonzero;fill:rgb(0%,0%,0%);fill-opacity:1;" d="M 416.273438 146.21875 C 416.273438 148.71875 412.523438 148.71875 412.523438 146.21875 C 412.523438 143.71875 416.273438 143.71875 416.273438 146.21875 "/>
<path style=" stroke:none;fill-rule:nonzero;fill:rgb(0%,0%,0%);fill-opacity:1;" d="M 419.898438 175.246094 C 419.898438 177.746094 416.148438 177.746094 416.148438 175.246094 C 416.148438 172.746094 419.898438 172.746094 419.898438 175.246094 "/>
<path style=" stroke:none;fill-rule:nonzero;fill:rgb(0%,0%,0%);fill-opacity:1;" d="M 423.527344 131.703125 C 423.527344 134.203125 419.777344 134.203125 419.777344 131.703125 C 419.777344 129.203125 423.527344 129.203125 423.527344 131.703125 "/>
<path style=" stroke:none;fill-rule:nonzero;fill:rgb(0%,0%,0%);fill-opacity:1;" d="M 427.15625 131.703125 C 427.15625 134.203125 423.40625 134.203125 423.40625 131.703125 C 423.40625 129.203125 427.15625 129.203125 427.15625 131.703125 "/>
<path style=" stroke:none;fill-rule:nonzero;fill:rgb(0%,0%,0%);fill-opacity:1;" d="M 430.785156 146.21875 C 430.785156 148.71875 427.035156 148.71875 427.035156 146.21875 C 427.035156 143.71875 430.785156 143.71875 430.785156 146.21875 "/>
<path style=" stroke:none;fill-rule:nonzero;fill:rgb(0%,0%,0%);fill-opacity:1;" d="M 434.414062 175.246094 C 434.414062 177.746094 430.664062 177.746094 430.664062 175.246094 C 430.664062 172.746094 434.414062 172.746094 434.414062 175.246094 "/>
<path style=" stroke:none;fill-rule:nonzero;fill:rgb(0%,0%,0%);fill-opacity:1;" d="M 438.039062 146.21875 C 438.039062 148.71875 434.289062 148.71875 434.289062 146.21875 C 434.289062 143.71875 438.039062 143.71875 438.039062 146.21875 "/>
<path style=" stroke:none;fill-rule:nonzero;fill:rgb(0%,0%,0%);fill-opacity:1;" d="M 441.667969 146.21875 C 441.667969 148.71875 437.917969 148.71875 437.917969 146.21875 C 437.917969 143.71875 441.667969 143.71875 441.667969 146.21875 "/>
<path style=" stroke:none;fill-rule:nonzero;fill:rgb(0%,0%,0%);fill-opacity:1;" d="M 445.296875 59.132812 C 445.296875 61.632812 441.546875 61.632812 441.546875 59.132812 C 441.546875 56.632812 445.296875 56.632812 445.296875 59.132812 "/>
<path style=" stroke:none;fill-rule:nonzero;fill:rgb(0%,0%,0%);fill-opacity:1;" d="M 448.925781 175.246094 C 448.925781 177.746094 445.175781 177.746094 445.175781 175.246094 C 445.175781 172.746094 448.925781 172.746094 448.925781 175.246094 "/>
<path style=" stroke:none;fill-rule:nonzero;fill:rgb(0%,0%,0%);fill-opacity:1;" d="M 452.554688 204.277344 C 452.554688 206.777344 448.804688 206.777344 448.804688 204.277344 C 448.804688 201.777344 452.554688 201.777344 452.554688 204.277344 "/>
<path style=" stroke:none;fill-rule:nonzero;fill:rgb(0%,0%,0%);fill-opacity:1;" d="M 456.179688 146.21875 C 456.179688 148.71875 452.429688 148.71875 452.429688 146.21875 C 452.429688 143.71875 456.179688 143.71875 456.179688 146.21875 "/>
<path style=" stroke:none;fill-rule:nonzero;fill:rgb(0%,0%,0%);fill-opacity:1;" d="M 459.808594 117.1875 C 459.808594 119.6875 456.058594 119.6875 456.058594 117.1875 C 456.058594 114.6875 459.808594 114.6875 459.808594 117.1875 "/>
<path style=" stroke:none;fill-rule:nonzero;fill:rgb(0%,0%,0%);fill-opacity:1;" d="M 463.4375 146.21875 C 463.4375 148.71875 459.6875 148.71875 459.6875 146.21875 C 459.6875 143.71875 463.4375 143.71875 463.4375 146.21875 "/>
<path style=" stroke:none;fill-rule:nonzero;fill:rgb(0%,0%,0%);fill-opacity:1;" d="M 467.066406 175.246094 C 467.066406 177.746094 463.316406 177.746094 463.316406 175.246094 C 463.316406 172.746094 467.066406 172.746094 467.066406 175.246094 "/>
<path style=" stroke:none;fill-rule:nonzero;fill:rgb(0%,0%,0%);fill-opacity:1;" d="M 470.691406 30.101562 C 470.691406 32.601562 466.941406 32.601562 466.941406 30.101562 C 466.941406 27.601562 470.691406 27.601562 470.691406 30.101562 "/>
<path style=" stroke:none;fill-rule:nonzero;fill:rgb(0%,0%,0%);fill-opacity:1;" d="M 474.320312 73.644531 C 474.320312 76.144531 470.570312 76.144531 470.570312 73.644531 C 470.570312 71.144531 474.320312 71.144531 474.320312 73.644531 "/>
<path style=" stroke:none;fill-rule:nonzero;fill:rgb(0%,0%,0%);fill-opacity:1;" d="M 477.949219 73.644531 C 477.949219 76.144531 474.199219 76.144531 474.199219 73.644531 C 474.199219 71.144531 477.949219 71.144531 477.949219 73.644531 "/>
<path style=" stroke:none;fill-rule:nonzero;fill:rgb(0%,0%,0%);fill-opacity:1;" d="M 481.578125 59.132812 C 481.578125 61.632812 477.828125 61.632812 477.828125 59.132812 C 477.828125 56.632812 481.578125 56.632812 481.578125 59.132812 "/>
<path style=" stroke:none;fill-rule:nonzero;fill:rgb(0%,0%,0%);fill-opacity:1;" d="M 485.207031 73.644531 C 485.207031 76.144531 481.457031 76.144531 481.457031 73.644531 C 481.457031 71.144531 485.207031 71.144531 485.207031 73.644531 "/>
<path style=" stroke:none;fill-rule:nonzero;fill:rgb(0%,0%,0%);fill-opacity:1;" d="M 488.832031 30.101562 C 488.832031 32.601562 485.082031 32.601562 485.082031 30.101562 C 485.082031 27.601562 488.832031 27.601562 488.832031 30.101562 "/>
<path style=" stroke:none;fill-rule:nonzero;fill:rgb(0%,0%,0%);fill-opacity:1;" d="M 492.460938 59.132812 C 492.460938 61.632812 488.710938 61.632812 488.710938 59.132812 C 488.710938 56.632812 492.460938 56.632812 492.460938 59.132812 "/>
<path style=" stroke:none;fill-rule:nonzero;fill:rgb(0%,0%,0%);fill-opacity:1;" d="M 496.089844 88.160156 C 496.089844 90.660156 492.339844 90.660156 492.339844 88.160156 C 492.339844 85.660156 496.089844 85.660156 496.089844 88.160156 "/>
<path style=" stroke:none;fill-rule:nonzero;fill:rgb(0%,0%,0%);fill-opacity:1;" d="M 499.71875 73.644531 C 499.71875 76.144531 495.96875 76.144531 495.96875 73.644531 C 495.96875 71.144531 499.71875 71.144531 499.71875 73.644531 "/>
<path style=" stroke:none;fill-rule:nonzero;fill:rgb(0%,0%,0%);fill-opacity:1;" d="M 503.34375 131.703125 C 503.34375 134.203125 499.59375 134.203125 499.59375 131.703125 C 499.59375 129.203125 503.34375 129.203125 503.34375 131.703125 "/>
<path style=" stroke:none;fill-rule:nonzero;fill:rgb(0%,0%,0%);fill-opacity:1;" d="M 506.972656 117.1875 C 506.972656 119.6875 503.222656 119.6875 503.222656 117.1875 C 503.222656 114.6875 506.972656 114.6875 506.972656 117.1875 "/>
<path style=" stroke:none;fill-rule:nonzero;fill:rgb(0%,0%,0%);fill-opacity:1;" d="M 510.601562 88.160156 C 510.601562 90.660156 506.851562 90.660156 506.851562 88.160156 C 506.851562 85.660156 510.601562 85.660156 510.601562 88.160156 "/>
<path style=" stroke:none;fill-rule:nonzero;fill:rgb(0%,0%,0%);fill-opacity:1;" d="M 514.230469 59.132812 C 514.230469 61.632812 510.480469 61.632812 510.480469 59.132812 C 510.480469 56.632812 514.230469 56.632812 514.230469 59.132812 "/>
<path style=" stroke:none;fill-rule:nonzero;fill:rgb(0%,0%,0%);fill-opacity:1;" d="M 517.859375 88.160156 C 517.859375 90.660156 514.109375 90.660156 514.109375 88.160156 C 514.109375 85.660156 517.859375 85.660156 517.859375 88.160156 "/>
<path style=" stroke:none;fill-rule:nonzero;fill:rgb(0%,0%,0%);fill-opacity:1;" d="M 521.488281 146.21875 C 521.488281 148.71875 517.738281 148.71875 517.738281 146.21875 C 517.738281 143.71875 521.488281 143.71875 521.488281 146.21875 "/>
<path style=" stroke:none;fill-rule:nonzero;fill:rgb(0%,0%,0%);fill-opacity:1;" d="M 525.113281 102.675781 C 525.113281 105.175781 521.363281 105.175781 521.363281 102.675781 C 521.363281 100.175781 525.113281 100.175781 525.113281 102.675781 "/>
<path style=" stroke:none;fill-rule:nonzero;fill:rgb(0%,0%,0%);fill-opacity:1;" d="M 528.742188 102.675781 C 528.742188 105.175781 524.992188 105.175781 524.992188 102.675781 C 524.992188 100.175781 528.742188 100.175781 528.742188 102.675781 "/>
<path style=" stroke:none;fill-rule:nonzero;fill:rgb(0%,0%,0%);fill-opacity:1;" d="M 532.371094 88.160156 C 532.371094 90.660156 528.621094 90.660156 528.621094 88.160156 C 528.621094 85.660156 532.371094 85.660156 532.371094 88.160156 "/>
<path style=" stroke:none;fill-rule:nonzero;fill:rgb(0%,0%,0%);fill-opacity:1;" d="M 536 117.1875 C 536 119.6875 532.25 119.6875 532.25 117.1875 C 532.25 114.6875 536 114.6875 536 117.1875 "/>
<path style=" stroke:none;fill-rule:nonzero;fill:rgb(0%,0%,0%);fill-opacity:1;" d="M 539.625 160.730469 C 539.625 163.230469 535.875 163.230469 535.875 160.730469 C 535.875 158.230469 539.625 158.230469 539.625 160.730469 "/>
<path style=" stroke:none;fill-rule:nonzero;fill:rgb(0%,0%,0%);fill-opacity:1;" d="M 543.253906 131.703125 C 543.253906 134.203125 539.503906 134.203125 539.503906 131.703125 C 539.503906 129.203125 543.253906 129.203125 543.253906 131.703125 "/>
<path style=" stroke:none;fill-rule:nonzero;fill:rgb(0%,0%,0%);fill-opacity:1;" d="M 546.882812 117.1875 C 546.882812 119.6875 543.132812 119.6875 543.132812 117.1875 C 543.132812 114.6875 546.882812 114.6875 546.882812 117.1875 "/>
<path style=" stroke:none;fill-rule:nonzero;fill:rgb(0%,0%,0%);fill-opacity:1;" d="M 550.511719 131.703125 C 550.511719 134.203125 546.761719 134.203125 546.761719 131.703125 C 546.761719 129.203125 550.511719 129.203125 550.511719 131.703125 "/>
<path style=" stroke:none;fill-rule:nonzero;fill:rgb(0%,0%,0%);fill-opacity:1;" d="M 554.140625 175.246094 C 554.140625 177.746094 550.390625 177.746094 550.390625 175.246094 C 550.390625 172.746094 554.140625 172.746094 554.140625 175.246094 "/>
<path style=" stroke:none;fill-rule:nonzero;fill:rgb(0%,0%,0%);fill-opacity:1;" d="M 557.765625 117.1875 C 557.765625 119.6875 554.015625 119.6875 554.015625 117.1875 C 554.015625 114.6875 557.765625 114.6875 557.765625 117.1875 "/>
<path style=" stroke:none;fill-rule:nonzero;fill:rgb(0%,0%,0%);fill-opacity:1;" d="M 561.394531 363.933594 C 561.394531 366.433594 557.644531 366.433594 557.644531 363.933594 C 557.644531 361.433594 561.394531 361.433594 561.394531 363.933594 "/>
<path style=" stroke:none;fill-rule:nonzero;fill:rgb(0%,0%,0%);fill-opacity:1;" d="M 565.023438 305.875 C 565.023438 308.375 561.273438 308.375 561.273438 305.875 C 561.273438 303.375 565.023438 303.375 565.023438 305.875 "/>
<path style="fill:none;stroke-width:1.5;stroke-linecap:butt;stroke-linejoin:miter;stroke:rgb(0%,0%,0%);stroke-opacity:1;stroke-miterlimit:10;" d="M 88.135417 522.864583 L 91.46875 521.140625 L 98.125 517.713542 L 101.458333 516.010417 L 104.786458 514.3125 L 108.119792 512.614583 L 111.447917 510.916667 L 114.78125 509.223958 L 118.109375 507.541667 L 121.4375 505.864583 L 124.770833 504.197917 L 128.098958 502.536458 L 131.432292 500.885417 L 134.760417 499.239583 L 138.088542 497.604167 L 141.421875 495.979167 L 144.75 494.359375 L 148.083333 492.755208 L 151.411458 491.161458 L 154.744792 489.578125 L 158.072917 488.010417 L 161.401042 486.453125 L 164.734375 484.901042 L 168.0625 483.364583 L 171.395833 481.838542 L 174.723958 480.338542 L 178.052083 478.848958 L 181.385417 477.364583 L 184.713542 475.890625 L 188.046875 474.427083 L 191.375 472.973958 L 194.703125 471.526042 L 198.036458 470.109375 L 201.364583 468.697917 L 204.697917 467.296875 L 208.026042 465.90625 L 211.359375 464.515625 L 214.6875 463.140625 L 218.015625 461.78125 L 221.348958 460.432292 L 224.677083 459.083333 L 228.010417 457.739583 L 231.338542 456.401042 L 234.671875 455.067708 L 238 453.744792 L 241.328125 452.432292 L 244.661458 451.119792 L 247.989583 449.8125 L 251.322917 448.5 L 254.651042 447.208333 L 257.979167 445.927083 L 261.3125 444.645833 L 264.640625 443.364583 L 267.973958 442.088542 L 271.302083 440.807292 L 274.630208 439.520833 L 277.963542 438.260417 L 281.291667 437.057292 L 284.625 435.859375 L 287.953125 434.65625 L 291.286458 433.458333 L 294.614583 432.255208 L 297.942708 431.166667 L 301.276042 430.197917 L 304.604167 429.25 L 307.9375 428.3125 L 311.265625 427.385417 L 314.59375 426.453125 L 317.927083 425.520833 L 321.255208 424.932292 L 324.588542 424.385417 L 327.916667 423.875 L 331.244792 423.375 L 334.578125 422.880208 L 337.90625 422.359375 L 341.239583 421.75 L 344.567708 421.114583 L 347.901042 420.427083 L 351.229167 419.6875 L 354.557292 418.869792 L 357.890625 417.963542 L 361.21875 416.65625 L 364.552083 415.145833 L 367.880208 413.59375 L 371.208333 411.989583 L 374.541667 410.328125 L 377.869792 408.598958 L 381.203125 406.796875 L 384.53125 404.651042 L 387.864583 402.036458 L 391.192708 399.364583 L 394.520833 396.645833 L 397.854167 393.869792 L 401.182292 391.041667 L 404.515625 388.15625 L 407.84375 384.46875 L 411.177083 380.598958 L 414.505208 376.6875 L 417.833333 372.739583 L 421.166667 368.770833 L 424.494792 364.494792 L 427.828125 360.072917 L 431.15625 355.578125 L 434.489583 351.041667 L 437.817708 346.46875 L 441.145833 341.880208 L 444.479167 337.286458 L 447.807292 332.598958 L 451.135417 327.760417 L 454.46875 322.864583 L 457.796875 317.932292 L 461.130208 312.973958 L 464.458333 308.010417 L 467.791667 303.114583 L 471.119792 298.177083 L 474.447917 293.177083 L 477.78125 288.135417 L 481.109375 283.067708 L 484.442708 277.989583 L 487.770833 272.984375 L 491.104167 268.333333 L 494.432292 263.671875 L 497.760417 259 L 501.09375 254.34375 L 504.421875 249.697917 L 507.755208 245.140625 L 511.083333 240.734375 L 514.411458 236.375 L 517.744792 232.078125 L 521.072917 227.848958 L 524.40625 223.692708 L 527.734375 219.614583 L 531.067708 215.291667 L 534.395833 210.973958 L 537.723958 206.75 L 541.057292 202.635417 L 544.385417 198.625 L 547.713542 194.739583 L 551.046875 190.958333 L 554.375 187.286458 L 557.708333 183.734375 L 561.036458 180.302083 L 564.369792 177 L 567.697917 173.84375 L 571.026042 170.880208 L 574.359375 168.114583 L 577.6875 165.473958 L 581.020833 162.96875 L 584.348958 160.609375 L 587.682292 158.401042 L 591.010417 156.40625 L 594.338542 154.583333 L 597.671875 152.901042 L 601 151.359375 L 604.333333 149.96875 L 607.661458 148.729167 L 610.989583 147.65625 L 614.322917 146.765625 L 617.651042 146.015625 L 620.984375 145.421875 L 624.3125 144.973958 L 627.640625 144.6875 L 630.973958 144.546875 L 634.302083 144.557292 L 637.635417 144.713542 L 640.963542 145.026042 L 644.296875 145.489583 L 647.625 146.109375 L 650.953125 146.890625 L 654.286458 147.802083 L 657.614583 148.854167 L 660.947917 150.067708 L 664.276042 151.432292 L 667.609375 152.963542 L 670.9375 154.651042 L 674.265625 156.463542 L 677.598958 158.427083 L 680.927083 160.557292 L 684.260417 162.84375 L 687.588542 165.302083 L 690.916667 167.921875 L 694.25 170.692708 L 697.578125 173.609375 L 700.911458 176.692708 L 704.239583 179.942708 L 707.572917 183.369792 L 710.901042 186.963542 L 714.229167 190.71875 L 717.5625 194.635417 L 720.890625 198.729167 L 724.223958 203 L 727.552083 207.453125 L 730.880208 212.083333 L 734.213542 216.895833 L 737.541667 221.885417 L 740.875 227.0625 L 744.203125 232.432292 L 747.536458 237.984375 L 750.864583 243.723958 " transform="matrix(0.75,0,0,0.75,0,0)"/>
<path style="fill:none;stroke-width:1;stroke-linecap:butt;stroke-linejoin:miter;stroke:rgb(0%,0%,0%);stroke-opacity:1;stroke-miterlimit:10;" d="M 54.5 547 L 784.5 547 " transform="matrix(0.75,0,0,0.75,0,0)"/>
<path style="fill:none;stroke-width:1;stroke-linecap:butt;stroke-linejoin:miter;stroke:rgb(0%,0%,0%);stroke-opacity:1;stroke-miterlimit:10;" d="M 55 547.5 L 55 15.5 " transform="matrix(0.75,0,0,0.75,0,0)"/>
</g>
</svg>
