<?xml version="1.0" encoding="UTF-8"?>
<svg xmlns="http://www.w3.org/2000/svg" xmlns:xlink="http://www.w3.org/1999/xlink" width="600pt" height="450pt" viewBox="0 0 600 450" version="1.1">
<defs>
<g>
<symbol overflow="visible" id="9DEFj/Ib0-0">
<path style="stroke:none;" d="M 0 0 L 6 0 L 6 -8.40625 L 0 -8.40625 Z M 3 -4.734375 L 0.953125 -7.796875 L 5.046875 -7.796875 Z M 3.359375 -4.203125 L 5.40625 -7.265625 L 5.40625 -1.140625 Z M 0.953125 -0.59375 L 3 -3.65625 L 5.046875 -0.59375 Z M 0.59375 -7.265625 L 2.640625 -4.203125 L 0.59375 -1.140625 Z M 0.59375 -7.265625 "/>
</symbol>
<symbol overflow="visible" id="9DEFj/Ib0-1">
<path style="stroke:none;" d="M 3.125 0 L 3.859375 0 L 3.859375 -8.5 L 3.234375 -8.5 L 1.140625 -6.78125 L 1.578125 -6.234375 L 3.125 -7.484375 Z M 3.125 0 "/>
</symbol>
<symbol overflow="visible" id="9DEFj/Ib0-2">
<path style="stroke:none;" d="M 0.3125 -4.25 C 0.3125 -2.40625 0.734375 0.140625 3.125 0.140625 C 5.515625 0.140625 5.921875 -2.40625 5.921875 -4.25 C 5.921875 -6.09375 5.515625 -8.640625 3.125 -8.640625 C 0.734375 -8.640625 0.3125 -6.09375 0.3125 -4.25 Z M 1.109375 -4.25 C 1.109375 -5.5625 1.3125 -7.984375 3.125 -7.984375 C 4.921875 -7.984375 5.140625 -5.5625 5.140625 -4.25 C 5.140625 -2.921875 4.921875 -0.5 3.125 -0.5 C 1.3125 -0.5 1.109375 -2.921875 1.109375 -4.25 Z M 1.109375 -4.25 "/>
</symbol>
<symbol overflow="visible" id="9DEFj/Ib1-0">
<path style="stroke:none;" d="M 0 0 L 6 0 L 6 -8.40625 L 0 -8.40625 Z M 3 -4.734375 L 0.953125 -7.796875 L 5.046875 -7.796875 Z M 3.359375 -4.203125 L 5.40625 -7.265625 L 5.40625 -1.140625 Z M 0.953125 -0.59375 L 3 -3.65625 L 5.046875 -0.59375 Z M 0.59375 -7.265625 L 2.640625 -4.203125 L 0.59375 -1.140625 Z M 0.59375 -7.265625 "/>
</symbol>
<symbol overflow="visible" id="9DEFj/Ib1-1">
<path style="stroke:none;" d="M 1.90625 0 L 2.8125 0 L 5.125 -3.828125 C 5.453125 -4.390625 5.90625 -5.109375 5.90625 -6 C 5.90625 -7.53125 4.734375 -8.640625 3.125 -8.640625 C 1.515625 -8.640625 0.34375 -7.53125 0.34375 -6 C 0.34375 -4.53125 1.421875 -3.390625 2.9375 -3.390625 C 3.34375 -3.390625 3.90625 -3.5 4.203125 -3.75 L 4.21875 -3.75 Z M 3.125 -4.015625 C 2.015625 -4.015625 1.125 -4.890625 1.125 -6 C 1.125 -7.171875 1.9375 -7.984375 3.125 -7.984375 C 4.296875 -7.984375 5.109375 -7.171875 5.109375 -6 C 5.109375 -4.890625 4.21875 -4.015625 3.125 -4.015625 Z M 3.125 -4.015625 "/>
</symbol>
<symbol overflow="visible" id="9DEFj/Ib1-2">
<path style="stroke:none;" d="M 0.3125 -4.25 C 0.3125 -2.40625 0.734375 0.140625 3.125 0.140625 C 5.515625 0.140625 5.921875 -2.40625 5.921875 -4.25 C 5.921875 -6.09375 5.515625 -8.640625 3.125 -8.640625 C 0.734375 -8.640625 0.3125 -6.09375 0.3125 -4.25 Z M 1.109375 -4.25 C 1.109375 -5.5625 1.3125 -7.984375 3.125 -7.984375 C 4.921875 -7.984375 5.140625 -5.5625 5.140625 -4.25 C 5.140625 -2.921875 4.921875 -0.5 3.125 -0.5 C 1.3125 -0.5 1.109375 -2.921875 1.109375 -4.25 Z M 1.109375 -4.25 "/>
</symbol>
<symbol overflow="visible" id="9DEFj/Ib1-3">
<path style="stroke:none;" d="M 5.40625 -8.5 L 1.21875 -8.5 L 1.140625 -4.15625 C 1.625 -4.5 2.203125 -4.734375 2.8125 -4.734375 C 4.03125 -4.734375 4.953125 -3.75 4.953125 -2.53125 C 4.953125 -1.171875 3.8125 -0.5 3.03125 -0.5 C 2.265625 -0.5 1.53125 -1.03125 1.234375 -1.671875 L 0.484375 -1.296875 C 0.953125 -0.40625 1.78125 0.140625 3.03125 0.140625 C 4.28125 0.140625 5.75 -0.75 5.75 -2.578125 C 5.75 -4.109375 4.734375 -5.390625 3.109375 -5.390625 C 2.703125 -5.390625 2.25 -5.34375 1.875 -5.140625 L 1.90625 -7.84375 L 5.40625 -7.84375 Z M 5.40625 -8.5 "/>
</symbol>
<symbol overflow="visible" id="9DEFj/Ib1-4">
<path style="stroke:none;" d="M 0.484375 0 L 5.75 0 L 5.75 -0.640625 L 1.28125 -0.640625 L 3.9375 -3.375 C 4.8125 -4.265625 5.6875 -5.140625 5.6875 -6.46875 C 5.6875 -7.84375 4.546875 -8.640625 3.234375 -8.640625 C 1.9375 -8.640625 0.9375 -7.984375 0.65625 -6.6875 L 1.5 -6.59375 C 1.6875 -7.421875 2.328125 -7.984375 3.203125 -7.984375 C 4.171875 -7.984375 4.890625 -7.390625 4.890625 -6.40625 C 4.890625 -5.5 4.25 -4.796875 3.6875 -4.21875 L 0.484375 -0.84375 Z M 0.484375 0 "/>
</symbol>
<symbol overflow="visible" id="9DEFj/Ib2-0">
<path style="stroke:none;" d="M 0 0 L 6 0 L 6 -8.40625 L 0 -8.40625 Z M 3 -4.734375 L 0.953125 -7.796875 L 5.046875 -7.796875 Z M 3.359375 -4.203125 L 5.40625 -7.265625 L 5.40625 -1.140625 Z M 0.953125 -0.59375 L 3 -3.65625 L 5.046875 -0.59375 Z M 0.59375 -7.265625 L 2.640625 -4.203125 L 0.59375 -1.140625 Z M 0.59375 -7.265625 "/>
</symbol>
<symbol overflow="visible" id="9DEFj/Ib2-1">
<path style="stroke:none;" d="M 3.125 0 L 3.859375 0 L 3.859375 -8.5 L 3.234375 -8.5 L 1.140625 -6.78125 L 1.578125 -6.234375 L 3.125 -7.484375 Z M 3.125 0 "/>
</symbol>
<symbol overflow="visible" id="9DEFj/Ib2-2">
<path style="stroke:none;" d="M 1.90625 0 L 2.8125 0 L 5.125 -3.828125 C 5.453125 -4.390625 5.90625 -5.109375 5.90625 -6 C 5.90625 -7.53125 4.734375 -8.640625 3.125 -8.640625 C 1.515625 -8.640625 0.34375 -7.53125 0.34375 -6 C 0.34375 -4.53125 1.421875 -3.390625 2.9375 -3.390625 C 3.34375 -3.390625 3.90625 -3.5 4.203125 -3.75 L 4.21875 -3.75 Z M 3.125 -4.015625 C 2.015625 -4.015625 1.125 -4.890625 1.125 -6 C 1.125 -7.171875 1.9375 -7.984375 3.125 -7.984375 C 4.296875 -7.984375 5.109375 -7.171875 5.109375 -6 C 5.109375 -4.890625 4.21875 -4.015625 3.125 -4.015625 Z M 3.125 -4.015625 "/>
</symbol>
<symbol overflow="visible" id="9DEFj/Ib2-3">
<path style="stroke:none;" d="M 3.046875 0 L 3.84375 0 L 3.84375 -3.65625 L 6.953125 -8.5 L 6.078125 -8.5 L 3.4375 -4.46875 L 0.875 -8.5 L -0.078125 -8.5 L 3.046875 -3.65625 Z M 3.046875 0 "/>
</symbol>
<symbol overflow="visible" id="9DEFj/Ib2-4">
<path style="stroke:none;" d="M 5.328125 -1.484375 C 4.96875 -0.890625 4.203125 -0.5 3.46875 -0.5 C 1.78125 -0.5 1.375 -1.984375 1.375 -2.59375 L 6.03125 -2.59375 L 6.03125 -3.09375 C 6.03125 -4.375 5.125 -5.6875 3.421875 -5.6875 C 1.796875 -5.6875 0.640625 -4.4375 0.640625 -2.78125 C 0.640625 -1.0625 1.765625 0.140625 3.453125 0.140625 C 4.4375 0.140625 5.296875 -0.203125 5.859375 -1.046875 Z M 1.375 -3.234375 C 1.375 -3.53125 1.8125 -5.046875 3.390625 -5.046875 C 4.453125 -5.046875 5.296875 -4.21875 5.296875 -3.234375 Z M 1.375 -3.234375 "/>
</symbol>
<symbol overflow="visible" id="9DEFj/Ib3-0">
<path style="stroke:none;" d="M 0 0 L 6 0 L 6 -8.40625 L 0 -8.40625 Z M 3 -4.734375 L 0.953125 -7.796875 L 5.046875 -7.796875 Z M 3.359375 -4.203125 L 5.40625 -7.265625 L 5.40625 -1.140625 Z M 0.953125 -0.59375 L 3 -3.65625 L 5.046875 -0.59375 Z M 0.59375 -7.265625 L 2.640625 -4.203125 L 0.59375 -1.140625 Z M 0.59375 -7.265625 "/>
</symbol>
<symbol overflow="visible" id="9DEFj/Ib3-1">
<path style="stroke:none;" d="M 0.3125 -4.25 C 0.3125 -2.40625 0.734375 0.140625 3.125 0.140625 C 5.515625 0.140625 5.921875 -2.40625 5.921875 -4.25 C 5.921875 -6.09375 5.515625 -8.640625 3.125 -8.640625 C 0.734375 -8.640625 0.3125 -6.09375 0.3125 -4.25 Z M 1.109375 -4.25 C 1.109375 -5.5625 1.3125 -7.984375 3.125 -7.984375 C 4.921875 -7.984375 5.140625 -5.5625 5.140625 -4.25 C 5.140625 -2.921875 4.921875 -0.5 3.125 -0.5 C 1.3125 -0.5 1.109375 -2.921875 1.109375 -4.25 Z M 1.109375 -4.25 "/>
</symbol>
<symbol overflow="visible" id="9DEFj/Ib3-2">
<path style="stroke:none;" d="M 5.265625 -3.6875 C 5.265625 -5.09375 4.40625 -5.6875 3.0625 -5.6875 C 2.34375 -5.6875 1.46875 -5.40625 0.953125 -4.90625 L 1.375 -4.421875 C 1.859375 -4.84375 2.40625 -5.046875 3.0625 -5.046875 C 3.953125 -5.046875 4.625 -4.65625 4.625 -3.703125 L 4.625 -3.359375 L 3.78125 -3.359375 C 2.6875 -3.359375 0.703125 -3.1875 0.703125 -1.5 C 0.703125 -0.328125 1.71875 0.140625 2.65625 0.140625 C 3.59375 0.140625 4.203125 -0.1875 4.609375 -0.90625 L 4.625 -0.90625 C 4.625 -0.59375 4.65625 -0.28125 4.703125 0 L 5.375 0 C 5.296875 -0.640625 5.265625 -1.25 5.265625 -2.328125 Z M 4.625 -2.78125 L 4.625 -2.40625 C 4.625 -1.484375 4.21875 -0.5 2.6875 -0.5 C 2.09375 -0.5 1.421875 -0.859375 1.421875 -1.53125 C 1.421875 -2.484375 2.625 -2.78125 3.828125 -2.78125 Z M 4.625 -2.78125 "/>
</symbol>
<symbol overflow="visible" id="9DEFj/Ib3-3">
<path style="stroke:none;" d="M 0.953125 0 L 1.6875 0 L 1.6875 -3.03125 C 1.6875 -4.109375 2.25 -4.96875 3.484375 -4.96875 C 3.5625 -4.96875 3.65625 -4.953125 3.765625 -4.921875 L 3.859375 -5.625 C 3.703125 -5.65625 3.578125 -5.6875 3.4375 -5.6875 C 2.609375 -5.6875 2.03125 -5.21875 1.671875 -4.578125 C 1.640625 -4.6875 1.625 -5.140625 1.625 -5.546875 L 0.90625 -5.546875 C 0.90625 -5.25 0.953125 -4.390625 0.953125 -3.984375 Z M 0.953125 0 "/>
</symbol>
<symbol overflow="visible" id="9DEFj/Ib4-0">
<path style="stroke:none;" d="M 0 0 L 6 0 L 6 -8.40625 L 0 -8.40625 Z M 3 -4.734375 L 0.953125 -7.796875 L 5.046875 -7.796875 Z M 3.359375 -4.203125 L 5.40625 -7.265625 L 5.40625 -1.140625 Z M 0.953125 -0.59375 L 3 -3.65625 L 5.046875 -0.59375 Z M 0.59375 -7.265625 L 2.640625 -4.203125 L 0.59375 -1.140625 Z M 0.59375 -7.265625 "/>
</symbol>
<symbol overflow="visible" id="9DEFj/Ib4-1">
<path style="stroke:none;" d="M 0.3125 -4.25 C 0.3125 -2.40625 0.734375 0.140625 3.125 0.140625 C 5.515625 0.140625 5.921875 -2.40625 5.921875 -4.25 C 5.921875 -6.09375 5.515625 -8.640625 3.125 -8.640625 C 0.734375 -8.640625 0.3125 -6.09375 0.3125 -4.25 Z M 1.109375 -4.25 C 1.109375 -5.5625 1.3125 -7.984375 3.125 -7.984375 C 4.921875 -7.984375 5.140625 -5.5625 5.140625 -4.25 C 5.140625 -2.921875 4.921875 -0.5 3.125 -0.5 C 1.3125 -0.5 1.109375 -2.921875 1.109375 -4.25 Z M 1.109375 -4.25 "/>
</symbol>
<symbol overflow="visible" id="9DEFj/Ib5-0">
<path style="stroke:none;" d="M 0 0 L 6 0 L 6 -8.40625 L 0 -8.40625 Z M 3 -4.734375 L 0.953125 -7.796875 L 5.046875 -7.796875 Z M 3.359375 -4.203125 L 5.40625 -7.265625 L 5.40625 -1.140625 Z M 0.953125 -0.59375 L 3 -3.65625 L 5.046875 -0.59375 Z M 0.59375 -7.265625 L 2.640625 -4.203125 L 0.59375 -1.140625 Z M 0.59375 -7.265625 "/>
</symbol>
<symbol overflow="visible" id="9DEFj/Ib5-1">
<path style="stroke:none;" d="M 0.3125 -4.25 C 0.3125 -2.40625 0.734375 0.140625 3.125 0.140625 C 5.515625 0.140625 5.921875 -2.40625 5.921875 -4.25 C 5.921875 -6.09375 5.515625 -8.640625 3.125 -8.640625 C 0.734375 -8.640625 0.3125 -6.09375 0.3125 -4.25 Z M 1.109375 -4.25 C 1.109375 -5.5625 1.3125 -7.984375 3.125 -7.984375 C 4.921875 -7.984375 5.140625 -5.5625 5.140625 -4.25 C 5.140625 -2.921875 4.921875 -0.5 3.125 -0.5 C 1.3125 -0.5 1.109375 -2.921875 1.109375 -4.25 Z M 1.109375 -4.25 "/>
</symbol>
<symbol overflow="visible" id="9DEFj/Ib6-0">
<path style="stroke:none;" d="M 0 0 L 6 0 L 6 -8.40625 L 0 -8.40625 Z M 3 -4.734375 L 0.953125 -7.796875 L 5.046875 -7.796875 Z M 3.359375 -4.203125 L 5.40625 -7.265625 L 5.40625 -1.140625 Z M 0.953125 -0.59375 L 3 -3.65625 L 5.046875 -0.59375 Z M 0.59375 -7.265625 L 2.640625 -4.203125 L 0.59375 -1.140625 Z M 0.59375 -7.265625 "/>
</symbol>
<symbol overflow="visible" id="9DEFj/Ib6-1">
<path style="stroke:none;" d="M 5.40625 -8.5 L 1.21875 -8.5 L 1.140625 -4.15625 C 1.625 -4.5 2.203125 -4.734375 2.8125 -4.734375 C 4.03125 -4.734375 4.953125 -3.75 4.953125 -2.53125 C 4.953125 -1.171875 3.8125 -0.5 3.03125 -0.5 C 2.265625 -0.5 1.53125 -1.03125 1.234375 -1.671875 L 0.484375 -1.296875 C 0.953125 -0.40625 1.78125 0.140625 3.03125 0.140625 C 4.28125 0.140625 5.75 -0.75 5.75 -2.578125 C 5.75 -4.109375 4.734375 -5.390625 3.109375 -5.390625 C 2.703125 -5.390625 2.25 -5.34375 1.875 -5.140625 L 1.90625 -7.84375 L 5.40625 -7.84375 Z M 5.40625 -8.5 "/>
</symbol>
<symbol overflow="visible" id="9DEFj/Ib7-0">
<path style="stroke:none;" d="M 0 0 L 6 0 L 6 -8.40625 L 0 -8.40625 Z M 3 -4.734375 L 0.953125 -7.796875 L 5.046875 -7.796875 Z M 3.359375 -4.203125 L 5.40625 -7.265625 L 5.40625 -1.140625 Z M 0.953125 -0.59375 L 3 -3.65625 L 5.046875 -0.59375 Z M 0.59375 -7.265625 L 2.640625 -4.203125 L 0.59375 -1.140625 Z M 0.59375 -7.265625 "/>
</symbol>
<symbol overflow="visible" id="9DEFj/Ib7-1">
<path style="stroke:none;" d="M 0.3125 -4.25 C 0.3125 -2.40625 0.734375 0.140625 3.125 0.140625 C 5.515625 0.140625 5.921875 -2.40625 5.921875 -4.25 C 5.921875 -6.09375 5.515625 -8.640625 3.125 -8.640625 C 0.734375 -8.640625 0.3125 -6.09375 0.3125 -4.25 Z M 1.109375 -4.25 C 1.109375 -5.5625 1.3125 -7.984375 3.125 -7.984375 C 4.921875 -7.984375 5.140625 -5.5625 5.140625 -4.25 C 5.140625 -2.921875 4.921875 -0.5 3.125 -0.5 C 1.3125 -0.5 1.109375 -2.921875 1.109375 -4.25 Z M 1.109375 -4.25 "/>
</symbol>
<symbol overflow="visible" id="9DEFj/Ib8-0">
<path style="stroke:none;" d="M 0 0 L 6 0 L 6 -8.40625 L 0 -8.40625 Z M 3 -4.734375 L 0.953125 -7.796875 L 5.046875 -7.796875 Z M 3.359375 -4.203125 L 5.40625 -7.265625 L 5.40625 -1.140625 Z M 0.953125 -0.59375 L 3 -3.65625 L 5.046875 -0.59375 Z M 0.59375 -7.265625 L 2.640625 -4.203125 L 0.59375 -1.140625 Z M 0.59375 -7.265625 "/>
</symbol>
<symbol overflow="visible" id="9DEFj/Ib8-1">
<path style="stroke:none;" d="M 3.125 0 L 3.859375 0 L 3.859375 -8.5 L 3.234375 -8.5 L 1.140625 -6.78125 L 1.578125 -6.234375 L 3.125 -7.484375 Z M 3.125 0 "/>
</symbol>
<symbol overflow="visible" id="9DEFj/Ib8-2">
<path style="stroke:none;" d="M 0.3125 -4.25 C 0.3125 -2.40625 0.734375 0.140625 3.125 0.140625 C 5.515625 0.140625 5.921875 -2.40625 5.921875 -4.25 C 5.921875 -6.09375 5.515625 -8.640625 3.125 -8.640625 C 0.734375 -8.640625 0.3125 -6.09375 0.3125 -4.25 Z M 1.109375 -4.25 C 1.109375 -5.5625 1.3125 -7.984375 3.125 -7.984375 C 4.921875 -7.984375 5.140625 -5.5625 5.140625 -4.25 C 5.140625 -2.921875 4.921875 -0.5 3.125 -0.5 C 1.3125 -0.5 1.109375 -2.921875 1.109375 -4.25 Z M 1.109375 -4.25 "/>
</symbol>
<symbol overflow="visible" id="9DEFj/Ib9-0">
<path style="stroke:none;" d="M 0 0 L 6 0 L 6 -8.40625 L 0 -8.40625 Z M 3 -4.734375 L 0.953125 -7.796875 L 5.046875 -7.796875 Z M 3.359375 -4.203125 L 5.40625 -7.265625 L 5.40625 -1.140625 Z M 0.953125 -0.59375 L 3 -3.65625 L 5.046875 -0.59375 Z M 0.59375 -7.265625 L 2.640625 -4.203125 L 0.59375 -1.140625 Z M 0.59375 -7.265625 "/>
</symbol>
<symbol overflow="visible" id="9DEFj/Ib9-1">
<path style="stroke:none;" d="M 0.3125 -4.25 C 0.3125 -2.40625 0.734375 0.140625 3.125 0.140625 C 5.515625 0.140625 5.921875 -2.40625 5.921875 -4.25 C 5.921875 -6.09375 5.515625 -8.640625 3.125 -8.640625 C 0.734375 -8.640625 0.3125 -6.09375 0.3125 -4.25 Z M 1.109375 -4.25 C 1.109375 -5.5625 1.3125 -7.984375 3.125 -7.984375 C 4.921875 -7.984375 5.140625 -5.5625 5.140625 -4.25 C 5.140625 -2.921875 4.921875 -0.5 3.125 -0.5 C 1.3125 -0.5 1.109375 -2.921875 1.109375 -4.25 Z M 1.109375 -4.25 "/>
</symbol>
<symbol overflow="visible" id="9DEFj/Ib10-0">
<path style="stroke:none;" d="M 0 0 L 6 0 L 6 -8.40625 L 0 -8.40625 Z M 3 -4.734375 L 0.953125 -7.796875 L 5.046875 -7.796875 Z M 3.359375 -4.203125 L 5.40625 -7.265625 L 5.40625 -1.140625 Z M 0.953125 -0.59375 L 3 -3.65625 L 5.046875 -0.59375 Z M 0.59375 -7.265625 L 2.640625 -4.203125 L 0.59375 -1.140625 Z M 0.59375 -7.265625 "/>
</symbol>
<symbol overflow="visible" id="9DEFj/Ib10-1">
<path style="stroke:none;" d="M 0.3125 -4.25 C 0.3125 -2.40625 0.734375 0.140625 3.125 0.140625 C 5.515625 0.140625 5.921875 -2.40625 5.921875 -4.25 C 5.921875 -6.09375 5.515625 -8.640625 3.125 -8.640625 C 0.734375 -8.640625 0.3125 -6.09375 0.3125 -4.25 Z M 1.109375 -4.25 C 1.109375 -5.5625 1.3125 -7.984375 3.125 -7.984375 C 4.921875 -7.984375 5.140625 -5.5625 5.140625 -4.25 C 5.140625 -2.921875 4.921875 -0.5 3.125 -0.5 C 1.3125 -0.5 1.109375 -2.921875 1.109375 -4.25 Z M 1.109375 -4.25 "/>
</symbol>
<symbol overflow="visible" id="9DEFj/Ib11-0">
<path style="stroke:none;" d="M 0 0 L 0 -6 L -8.40625 -6 L -8.40625 0 Z M -4.734375 -3 L -7.796875 -0.953125 L -7.796875 -5.046875 Z M -4.203125 -3.359375 L -7.265625 -5.40625 L -1.140625 -5.40625 Z M -0.59375 -0.953125 L -3.65625 -3 L -0.59375 -5.046875 Z M -7.265625 -0.59375 L -4.203125 -2.640625 L -1.140625 -0.59375 Z M -7.265625 -0.59375 "/>
</symbol>
<symbol overflow="visible" id="9DEFj/Ib11-1">
<path style="stroke:none;" d="M 0 -1.15625 L 0 -1.953125 L -7.4375 -1.953125 L -7.4375 -1.984375 L 0 -7.15625 L 0 -8.171875 L -8.5 -8.171875 L -8.5 -7.375 L -1.0625 -7.375 L -1.0625 -7.359375 L -8.5 -2.1875 L -8.5 -1.15625 Z M 0 -1.15625 "/>
</symbol>
<symbol overflow="visible" id="9DEFj/Ib11-2">
<path style="stroke:none;" d="M -1.484375 -5.328125 C -0.890625 -4.96875 -0.5 -4.203125 -0.5 -3.46875 C -0.5 -1.78125 -1.984375 -1.375 -2.59375 -1.375 L -2.59375 -6.03125 L -3.09375 -6.03125 C -4.375 -6.03125 -5.6875 -5.125 -5.6875 -3.421875 C -5.6875 -1.796875 -4.4375 -0.640625 -2.78125 -0.640625 C -1.0625 -0.640625 0.140625 -1.765625 0.140625 -3.453125 C 0.140625 -4.4375 -0.203125 -5.296875 -1.046875 -5.859375 Z M -3.234375 -1.375 C -3.53125 -1.375 -5.046875 -1.8125 -5.046875 -3.390625 C -5.046875 -4.453125 -4.21875 -5.296875 -3.234375 -5.296875 Z M -3.234375 -1.375 "/>
</symbol>
<symbol overflow="visible" id="9DEFj/Ib11-3">
<path style="stroke:none;" d="M 0 -0.953125 L 0 -1.6875 L -3.03125 -1.6875 C -4.109375 -1.6875 -4.96875 -2.25 -4.96875 -3.484375 C -4.96875 -3.5625 -4.953125 -3.65625 -4.921875 -3.765625 L -5.625 -3.859375 C -5.65625 -3.703125 -5.6875 -3.578125 -5.6875 -3.4375 C -5.6875 -2.609375 -5.21875 -2.03125 -4.578125 -1.671875 C -4.6875 -1.640625 -5.140625 -1.625 -5.546875 -1.625 L -5.546875 -0.90625 C -5.25 -0.90625 -4.390625 -0.953125 -3.984375 -0.953125 Z M 0 -0.953125 "/>
</symbol>
<symbol overflow="visible" id="9DEFj/Ib11-4">
<path style="stroke:none;" d=""/>
</symbol>
<symbol overflow="visible" id="9DEFj/Ib11-5">
<path style="stroke:none;" d="M -2.765625 -0.640625 C -1.078125 -0.640625 0.140625 -1.859375 0.140625 -3.5625 C 0.140625 -5.265625 -1.078125 -6.484375 -2.765625 -6.484375 C -4.46875 -6.484375 -5.6875 -5.265625 -5.6875 -3.5625 C -5.6875 -1.859375 -4.46875 -0.640625 -2.765625 -0.640625 Z M -2.765625 -1.375 C -4.015625 -1.375 -5.046875 -2.203125 -5.046875 -3.5625 C -5.046875 -4.921875 -4.015625 -5.765625 -2.765625 -5.765625 C -1.53125 -5.765625 -0.5 -4.921875 -0.5 -3.5625 C -0.5 -2.203125 -1.53125 -1.375 -2.765625 -1.375 Z M -2.765625 -1.375 "/>
</symbol>
<symbol overflow="visible" id="9DEFj/Ib11-6">
<path style="stroke:none;" d="M 0 -1.375 L 0 -2.09375 L -4.890625 -2.09375 L -4.890625 -3.390625 L -5.546875 -3.390625 L -5.546875 -2.09375 L -7.09375 -2.09375 C -8.09375 -2.09375 -8.5625 -2.40625 -8.5625 -3.0625 C -8.5625 -3.34375 -8.53125 -3.546875 -8.453125 -3.703125 L -9.078125 -3.859375 C -9.171875 -3.640625 -9.21875 -3.375 -9.21875 -3.03125 C -9.21875 -2.3125 -8.78125 -1.375 -7.359375 -1.375 L -5.546875 -1.375 L -5.546875 -0.21875 L -4.890625 -0.21875 L -4.890625 -1.375 Z M 0 -1.375 "/>
</symbol>
<symbol overflow="visible" id="9DEFj/Ib12-0">
<path style="stroke:none;" d="M 0 0 L 0 -6 L -8.40625 -6 L -8.40625 0 Z M -4.734375 -3 L -7.796875 -0.953125 L -7.796875 -5.046875 Z M -4.203125 -3.359375 L -7.265625 -5.40625 L -1.140625 -5.40625 Z M -0.59375 -0.953125 L -3.65625 -3 L -0.59375 -5.046875 Z M -7.265625 -0.59375 L -4.203125 -2.640625 L -1.140625 -0.59375 Z M -7.265625 -0.59375 "/>
</symbol>
<symbol overflow="visible" id="9DEFj/Ib12-1">
<path style="stroke:none;" d="M -5.546875 -5.65625 L -5.546875 -4.9375 L -2.765625 -4.9375 C -1.25 -4.9375 -0.5 -4.078125 -0.5 -3.015625 C -0.5 -1.875 -1.375 -1.625 -2.28125 -1.625 L -5.546875 -1.625 L -5.546875 -0.90625 L -2.25 -0.90625 C -1.03125 -0.90625 0.140625 -1.28125 0.140625 -3.015625 C 0.140625 -3.90625 -0.359375 -4.625 -0.96875 -4.90625 L -0.96875 -4.9375 C -0.859375 -4.96875 -0.40625 -4.984375 0 -4.984375 L 0 -5.71875 C -0.28125 -5.71875 -1.15625 -5.65625 -1.5625 -5.65625 Z M -5.546875 -5.65625 "/>
</symbol>
<symbol overflow="visible" id="9DEFj/Ib12-2">
<path style="stroke:none;" d="M 0 -0.953125 L 0 -1.6875 L -2.765625 -1.6875 C -4.296875 -1.6875 -5.046875 -2.53125 -5.046875 -3.59375 C -5.046875 -4.375 -4.359375 -4.75 -3.34375 -4.75 L 0 -4.75 L 0 -5.46875 L -3.125 -5.46875 C -3.90625 -5.46875 -5.046875 -5.8125 -5.046875 -7.15625 C -5.046875 -8.296875 -4.15625 -8.546875 -3.265625 -8.546875 L 0 -8.546875 L 0 -9.265625 L -3.296875 -9.265625 C -4.515625 -9.265625 -5.6875 -8.875 -5.6875 -7.15625 C -5.6875 -6.390625 -5.3125 -5.609375 -4.484375 -5.265625 C -5.328125 -5 -5.6875 -4.328125 -5.6875 -3.59375 C -5.6875 -2.703125 -5.1875 -1.984375 -4.578125 -1.703125 L -4.578125 -1.671875 C -4.6875 -1.640625 -5.140625 -1.625 -5.546875 -1.625 L -5.546875 -0.90625 C -5.25 -0.90625 -4.390625 -0.953125 -3.984375 -0.953125 Z M 0 -0.953125 "/>
</symbol>
<symbol overflow="visible" id="9DEFj/Ib13-0">
<path style="stroke:none;" d="M 0 0 L 0 -6 L -8.40625 -6 L -8.40625 0 Z M -4.734375 -3 L -7.796875 -0.953125 L -7.796875 -5.046875 Z M -4.203125 -3.359375 L -7.265625 -5.40625 L -1.140625 -5.40625 Z M -0.59375 -0.953125 L -3.65625 -3 L -0.59375 -5.046875 Z M -7.265625 -0.59375 L -4.203125 -2.640625 L -1.140625 -0.59375 Z M -7.265625 -0.59375 "/>
</symbol>
<symbol overflow="visible" id="9DEFj/Ib13-1">
<path style="stroke:none;" d="M 0 -0.796875 L 0 -1.53125 L -0.96875 -1.53125 L -0.96875 -1.546875 C -0.203125 -1.984375 0.140625 -2.9375 0.140625 -3.765625 C 0.140625 -5.46875 -1.078125 -6.6875 -2.765625 -6.6875 C -4.46875 -6.6875 -5.6875 -5.46875 -5.6875 -3.765625 C -5.6875 -2.9375 -5.34375 -1.984375 -4.578125 -1.546875 L -4.578125 -1.53125 L -9.078125 -1.53125 L -9.078125 -0.796875 Z M -2.765625 -1.453125 C -4.015625 -1.453125 -5.046875 -2.453125 -5.046875 -3.765625 C -5.046875 -5.125 -4.015625 -5.96875 -2.765625 -5.96875 C -1.53125 -5.96875 -0.5 -5.125 -0.5 -3.765625 C -0.5 -2.453125 -1.53125 -1.453125 -2.765625 -1.453125 Z M -2.765625 -1.453125 "/>
</symbol>
<symbol overflow="visible" id="9DEFj/Ib13-2">
<path style="stroke:none;" d="M -5.546875 -6.53125 L -5.546875 -5.8125 L -4.609375 -5.8125 L -4.609375 -5.78125 C -5.265625 -5.359375 -5.6875 -4.625 -5.6875 -3.6875 C -5.6875 -2.046875 -4.40625 -0.71875 -2.84375 -0.71875 C -1.28125 -0.71875 0 -2.046875 0 -3.6875 C 0 -4.625 -0.421875 -5.359375 -1.078125 -5.78125 L -1.078125 -5.8125 L -0.3125 -5.8125 C 0.3125 -5.8125 2.234375 -5.765625 2.234375 -3.578125 C 2.234375 -2.71875 1.890625 -1.890625 1.1875 -1.390625 L 1.71875 -0.828125 C 2.453125 -1.390625 2.875 -2.453125 2.875 -3.578125 C 2.875 -4.703125 2.40625 -6.53125 -0.359375 -6.53125 Z M -2.84375 -5.828125 C -1.625 -5.828125 -0.640625 -4.84375 -0.640625 -3.640625 C -0.640625 -2.421875 -1.625 -1.4375 -2.84375 -1.4375 C -4.0625 -1.4375 -5.046875 -2.421875 -5.046875 -3.640625 C -5.046875 -4.84375 -4.0625 -5.828125 -2.84375 -5.828125 Z M -2.84375 -5.828125 "/>
</symbol>
<symbol overflow="visible" id="9DEFj/Ib14-0">
<path style="stroke:none;" d="M 0 0 L 0 -6 L -8.40625 -6 L -8.40625 0 Z M -4.734375 -3 L -7.796875 -0.953125 L -7.796875 -5.046875 Z M -4.203125 -3.359375 L -7.265625 -5.40625 L -1.140625 -5.40625 Z M -0.59375 -0.953125 L -3.65625 -3 L -0.59375 -5.046875 Z M -7.265625 -0.59375 L -4.203125 -2.640625 L -1.140625 -0.59375 Z M -7.265625 -0.59375 "/>
</symbol>
<symbol overflow="visible" id="9DEFj/Ib14-1">
<path style="stroke:none;" d="M -3.6875 -5.265625 C -5.09375 -5.265625 -5.6875 -4.40625 -5.6875 -3.0625 C -5.6875 -2.34375 -5.40625 -1.46875 -4.90625 -0.953125 L -4.421875 -1.375 C -4.84375 -1.859375 -5.046875 -2.40625 -5.046875 -3.0625 C -5.046875 -3.953125 -4.65625 -4.625 -3.703125 -4.625 L -3.359375 -4.625 L -3.359375 -3.78125 C -3.359375 -2.6875 -3.1875 -0.703125 -1.5 -0.703125 C -0.328125 -0.703125 0.140625 -1.71875 0.140625 -2.65625 C 0.140625 -3.59375 -0.1875 -4.203125 -0.90625 -4.609375 L -0.90625 -4.625 C -0.59375 -4.625 -0.28125 -4.65625 0 -4.703125 L 0 -5.375 C -0.640625 -5.296875 -1.25 -5.265625 -2.328125 -5.265625 Z M -2.78125 -4.625 L -2.40625 -4.625 C -1.484375 -4.625 -0.5 -4.21875 -0.5 -2.6875 C -0.5 -2.09375 -0.859375 -1.421875 -1.53125 -1.421875 C -2.484375 -1.421875 -2.78125 -2.625 -2.78125 -3.828125 Z M -2.78125 -4.625 "/>
</symbol>
<symbol overflow="visible" id="9DEFj/Ib14-2">
<path style="stroke:none;" d="M 0 -0.953125 L 0 -1.6875 L -2.765625 -1.6875 C -4.296875 -1.6875 -5.046875 -2.53125 -5.046875 -3.59375 C -5.046875 -4.375 -4.359375 -4.75 -3.34375 -4.75 L 0 -4.75 L 0 -5.46875 L -3.125 -5.46875 C -3.90625 -5.46875 -5.046875 -5.8125 -5.046875 -7.15625 C -5.046875 -8.296875 -4.15625 -8.546875 -3.265625 -8.546875 L 0 -8.546875 L 0 -9.265625 L -3.296875 -9.265625 C -4.515625 -9.265625 -5.6875 -8.875 -5.6875 -7.15625 C -5.6875 -6.390625 -5.3125 -5.609375 -4.484375 -5.265625 C -5.328125 -5 -5.6875 -4.328125 -5.6875 -3.59375 C -5.6875 -2.703125 -5.1875 -1.984375 -4.578125 -1.703125 L -4.578125 -1.671875 C -4.6875 -1.640625 -5.140625 -1.625 -5.546875 -1.625 L -5.546875 -0.90625 C -5.25 -0.90625 -4.390625 -0.953125 -3.984375 -0.953125 Z M 0 -0.953125 "/>
</symbol>
<symbol overflow="visible" id="9DEFj/Ib14-3">
<path style="stroke:none;" d="M -1.484375 -5.328125 C -0.890625 -4.96875 -0.5 -4.203125 -0.5 -3.46875 C -0.5 -1.78125 -1.984375 -1.375 -2.59375 -1.375 L -2.59375 -6.03125 L -3.09375 -6.03125 C -4.375 -6.03125 -5.6875 -5.125 -5.6875 -3.421875 C -5.6875 -1.796875 -4.4375 -0.640625 -2.78125 -0.640625 C -1.0625 -0.640625 0.140625 -1.765625 0.140625 -3.453125 C 0.140625 -4.4375 -0.203125 -5.296875 -1.046875 -5.859375 Z M -3.234375 -1.375 C -3.53125 -1.375 -5.046875 -1.8125 -5.046875 -3.390625 C -5.046875 -4.453125 -4.21875 -5.296875 -3.234375 -5.296875 Z M -3.234375 -1.375 "/>
</symbol>
<symbol overflow="visible" id="9DEFj/Ib14-4">
<path style="stroke:none;" d="M -0.984375 -0.34375 C -0.21875 -0.765625 0.140625 -1.625 0.140625 -2.5625 C 0.140625 -3.625 -0.4375 -4.578125 -1.578125 -4.578125 C -3.8125 -4.578125 -2.65625 -1.28125 -4.15625 -1.28125 C -4.734375 -1.28125 -5.046875 -1.9375 -5.046875 -2.453125 C -5.046875 -3.109375 -4.765625 -3.484375 -4.265625 -3.765625 L -4.640625 -4.421875 C -5.359375 -4.0625 -5.6875 -3.359375 -5.6875 -2.453125 C -5.6875 -1.546875 -5.171875 -0.5625 -4.09375 -0.5625 C -1.984375 -0.5625 -3.046875 -3.859375 -1.53125 -3.859375 C -0.890625 -3.859375 -0.5 -3.203125 -0.5 -2.578125 C -0.5 -1.9375 -0.828125 -1.265625 -1.421875 -0.96875 Z M -0.984375 -0.34375 "/>
</symbol>
</g>
</defs>
<g id="surface1">
<rect x="0" y="0" width="600" height="450" style="fill:rgb(100%,100%,100%);fill-opacity:1;stroke:none;"/>
<g style="fill:rgb(0%,0%,0%);fill-opacity:1;">
  <use xlink:href="#9DEFj/Ib0-1" x="155.585938" y="421.570312"/>
</g>
<g style="fill:rgb(0%,0%,0%);fill-opacity:1;">
  <use xlink:href="#9DEFj/Ib1-1" x="161.824219" y="421.570312"/>
</g>
<g style="fill:rgb(0%,0%,0%);fill-opacity:1;">
  <use xlink:href="#9DEFj/Ib0-2" x="168.066406" y="421.570312"/>
</g>
<g style="fill:rgb(0%,0%,0%);fill-opacity:1;">
  <use xlink:href="#9DEFj/Ib1-2" x="174.304688" y="421.570312"/>
</g>
<g style="fill:rgb(0%,0%,0%);fill-opacity:1;">
  <use xlink:href="#9DEFj/Ib2-1" x="318.949219" y="421.570312"/>
</g>
<g style="fill:rgb(0%,0%,0%);fill-opacity:1;">
  <use xlink:href="#9DEFj/Ib2-2" x="325.1875" y="421.570312"/>
</g>
<g style="fill:rgb(0%,0%,0%);fill-opacity:1;">
  <use xlink:href="#9DEFj/Ib1-3" x="331.425781" y="421.570312"/>
</g>
<g style="fill:rgb(0%,0%,0%);fill-opacity:1;">
  <use xlink:href="#9DEFj/Ib3-1" x="337.667969" y="421.570312"/>
</g>
<g style="fill:rgb(0%,0%,0%);fill-opacity:1;">
  <use xlink:href="#9DEFj/Ib1-4" x="482.632812" y="421.570312"/>
</g>
<g style="fill:rgb(0%,0%,0%);fill-opacity:1;">
  <use xlink:href="#9DEFj/Ib4-1" x="488.875" y="421.570312"/>
</g>
<g style="fill:rgb(0%,0%,0%);fill-opacity:1;">
  <use xlink:href="#9DEFj/Ib1-2" x="495.113281" y="421.570312"/>
</g>
<g style="fill:rgb(0%,0%,0%);fill-opacity:1;">
  <use xlink:href="#9DEFj/Ib1-2" x="501.351562" y="421.570312"/>
</g>
<g style="fill:rgb(0%,0%,0%);fill-opacity:1;">
  <use xlink:href="#9DEFj/Ib2-3" x="308.914062" y="435.820312"/>
</g>
<g style="fill:rgb(0%,0%,0%);fill-opacity:1;">
  <use xlink:href="#9DEFj/Ib2-4" x="315.804688" y="435.820312"/>
</g>
<g style="fill:rgb(0%,0%,0%);fill-opacity:1;">
  <use xlink:href="#9DEFj/Ib3-2" x="322.476562" y="435.820312"/>
</g>
<g style="fill:rgb(0%,0%,0%);fill-opacity:1;">
  <use xlink:href="#9DEFj/Ib3-3" x="328.703125" y="435.820312"/>
</g>
<g style="fill:rgb(0%,0%,0%);fill-opacity:1;">
  <use xlink:href="#9DEFj/Ib5-1" x="43.132812" y="395.535156"/>
</g>
<g style="fill:rgb(0%,0%,0%);fill-opacity:1;">
  <use xlink:href="#9DEFj/Ib6-1" x="30.652344" y="238.667969"/>
</g>
<g style="fill:rgb(0%,0%,0%);fill-opacity:1;">
  <use xlink:href="#9DEFj/Ib7-1" x="36.894531" y="238.667969"/>
</g>
<g style="fill:rgb(0%,0%,0%);fill-opacity:1;">
  <use xlink:href="#9DEFj/Ib5-1" x="43.132812" y="238.667969"/>
</g>
<g style="fill:rgb(0%,0%,0%);fill-opacity:1;">
  <use xlink:href="#9DEFj/Ib8-1" x="24.414062" y="81.800781"/>
</g>
<g style="fill:rgb(0%,0%,0%);fill-opacity:1;">
  <use xlink:href="#9DEFj/Ib8-2" x="30.652344" y="81.800781"/>
</g>
<g style="fill:rgb(0%,0%,0%);fill-opacity:1;">
  <use xlink:href="#9DEFj/Ib9-1" x="36.894531" y="81.800781"/>
</g>
<g style="fill:rgb(0%,0%,0%);fill-opacity:1;">
  <use xlink:href="#9DEFj/Ib10-1" x="43.132812" y="81.800781"/>
</g>
<g style="fill:rgb(0%,0%,0%);fill-opacity:1;">
  <use xlink:href="#9DEFj/Ib11-1" x="20.0625" y="259.628906"/>
</g>
<g style="fill:rgb(0%,0%,0%);fill-opacity:1;">
  <use xlink:href="#9DEFj/Ib12-1" x="20.0625" y="250.292969"/>
</g>
<g style="fill:rgb(0%,0%,0%);fill-opacity:1;">
  <use xlink:href="#9DEFj/Ib12-2" x="20.0625" y="243.621094"/>
</g>
<g style="fill:rgb(0%,0%,0%);fill-opacity:1;">
  <use xlink:href="#9DEFj/Ib13-1" x="20.0625" y="233.398437"/>
</g>
<g style="fill:rgb(0%,0%,0%);fill-opacity:1;">
  <use xlink:href="#9DEFj/Ib11-2" x="20.0625" y="226.066406"/>
</g>
<g style="fill:rgb(0%,0%,0%);fill-opacity:1;">
  <use xlink:href="#9DEFj/Ib11-3" x="20.0625" y="219.394531"/>
</g>
<g style="fill:rgb(0%,0%,0%);fill-opacity:1;">
  <use xlink:href="#9DEFj/Ib11-4" x="20.0625" y="215.398437"/>
</g>
<g style="fill:rgb(0%,0%,0%);fill-opacity:1;">
  <use xlink:href="#9DEFj/Ib11-5" x="20.0625" y="212.277344"/>
</g>
<g style="fill:rgb(0%,0%,0%);fill-opacity:1;">
  <use xlink:href="#9DEFj/Ib11-6" x="20.0625" y="205.148438"/>
</g>
<g style="fill:rgb(0%,0%,0%);fill-opacity:1;">
  <use xlink:href="#9DEFj/Ib11-4" x="20.0625" y="201.597656"/>
</g>
<g style="fill:rgb(0%,0%,0%);fill-opacity:1;">
  <use xlink:href="#9DEFj/Ib13-2" x="20.0625" y="198.476562"/>
</g>
<g style="fill:rgb(0%,0%,0%);fill-opacity:1;">
  <use xlink:href="#9DEFj/Ib14-1" x="20.0625" y="191.144531"/>
</g>
<g style="fill:rgb(0%,0%,0%);fill-opacity:1;">
  <use xlink:href="#9DEFj/Ib14-2" x="20.0625" y="184.917969"/>
</g>
<g style="fill:rgb(0%,0%,0%);fill-opacity:1;">
  <use xlink:href="#9DEFj/Ib14-3" x="20.0625" y="174.691406"/>
</g>
<g style="fill:rgb(0%,0%,0%);fill-opacity:1;">
  <use xlink:href="#9DEFj/Ib14-4" x="20.0625" y="168.019531"/>
</g>
<path style="fill:none;stroke-width:1.5;stroke-linecap:butt;stroke-linejoin:miter;stroke:rgb(0%,44.705883%,69.803923%);stroke-opacity:1;stroke-miterlimit:10;" d="M 102.453125 522.864583 L 115.526042 522.864583 L 119.880208 522.447917 L 128.59375 522.447917 L 132.947917 522.026042 L 141.661458 522.026042 L 146.015625 521.192708 L 150.375 521.192708 L 154.729167 520.770833 L 159.088542 520.354167 L 163.442708 520.354167 L 167.802083 520.770833 L 172.15625 520.354167 L 176.510417 520.770833 L 189.583333 520.770833 L 193.9375 521.192708 L 198.291667 520.770833 L 228.786458 520.770833 L 233.145833 519.9375 L 237.5 519.098958 L 241.859375 519.515625 L 246.213542 518.260417 L 250.567708 517.427083 L 254.927083 517.84375 L 259.28125 512.40625 L 263.640625 514.916667 L 267.994792 512.40625 L 272.348958 509.479167 L 276.708333 506.552083 L 281.0625 508.640625 L 285.421875 510.3125 L 289.776042 516.588542 L 294.130208 511.151042 L 298.489583 513.244792 L 302.84375 516.171875 L 307.203125 509.479167 L 311.557292 508.640625 L 315.916667 500.692708 L 320.270833 495.255208 L 324.625 485.635417 L 328.984375 488.5625 L 333.338542 489.401042 L 337.697917 487.723958 L 346.40625 491.911458 L 350.765625 488.979167 L 355.119792 481.869792 L 359.479167 482.708333 L 363.833333 485.213542 L 368.1875 484.380208 L 372.546875 478.520833 L 376.901042 480.614583 L 381.260417 488.5625 L 385.614583 473.505208 L 389.973958 467.229167 L 394.328125 487.723958 L 398.682292 499.854167 L 403.041667 501.53125 L 407.395833 499.854167 L 411.755208 508.640625 L 416.109375 510.734375 L 420.463542 496.510417 L 424.822917 484.796875 L 429.177083 465.135417 L 433.536458 470.994792 L 437.890625 460.536458 L 442.244792 467.645833 L 446.604167 482.708333 L 450.958333 474.760417 L 455.317708 450.078125 L 459.671875 460.953125 L 464.03125 460.536458 L 468.385417 442.546875 L 472.739583 430.833333 L 477.098958 454.260417 L 481.453125 447.567708 L 485.8125 435.020833 L 490.166667 436.276042 L 494.520833 427.90625 L 498.880208 412.010417 L 503.234375 445.479167 L 507.59375 390.260417 L 511.947917 392.354167 L 516.302083 383.984375 L 520.661458 398.208333 L 525.015625 378.546875 L 529.375 391.098958 L 533.729167 367.255208 L 538.088542 352.614583 L 542.442708 345.083333 L 546.796875 378.963542 L 551.15625 373.947917 L 555.510417 359.307292 L 559.869792 350.9375 L 564.223958 382.729167 L 568.578125 356.796875 L 572.9375 317.473958 L 577.291667 328.348958 L 581.651042 366 L 586.005208 334.208333 L 590.364583 299.067708 L 594.71875 284.427083 L 599.072917 360.140625 L 603.432292 373.526042 L 607.786458 295.302083 L 612.145833 276.479167 L 616.5 342.15625 L 620.854167 325.421875 L 625.213542 280.244792 L 629.567708 216.661458 L 633.927083 284.848958 L 638.28125 255.145833 L 642.640625 176.088542 L 646.994792 162.28125 L 651.348958 231.302083 L 655.708333 214.151042 L 660.0625 94.098958 L 664.421875 97.442708 L 668.776042 205.369792 L 673.130208 131.328125 L 677.489583 77.364583 L 681.84375 186.963542 L 686.203125 172.739583 L 690.557292 114.177083 L 694.916667 66.489583 L 699.270833 143.041667 L 703.625 166.046875 L 707.984375 70.255208 L 712.338542 99.953125 L 716.697917 119.614583 L 721.052083 163.536458 L 725.40625 103.71875 L 729.765625 135.09375 L 734.119792 122.541667 L 738.479167 144.713542 L 742.833333 40.135417 L 747.1875 403.645833 L 751.546875 330.026042 " transform="matrix(0.75,0,0,0.75,0,0)"/>
<path style="fill:none;stroke-width:1;stroke-linecap:butt;stroke-linejoin:miter;stroke:rgb(0%,0%,0%);stroke-opacity:1;stroke-miterlimit:10;" d="M 69.5 547 L 784.5 547 " transform="matrix(0.75,0,0,0.75,0,0)"/>
<path style="fill:none;stroke-width:1;stroke-linecap:butt;stroke-linejoin:miter;stroke:rgb(0%,0%,0%);stroke-opacity:1;stroke-miterlimit:10;" d="M 70 547.5 L 70 15.5 " transform="matrix(0.75,0,0,0.75,0,0)"/>
</g>
</svg>
