<?xml version="1.0" encoding="UTF-8"?>
<svg xmlns="http://www.w3.org/2000/svg" xmlns:xlink="http://www.w3.org/1999/xlink" width="600pt" height="450pt" viewBox="0 0 600 450" version="1.1">
<defs>
<g>
<symbol overflow="visible" id="7xEWvtIQ0-0">
<path style="stroke:none;" d="M 0 0 L 6 0 L 6 -8.40625 L 0 -8.40625 Z M 3 -4.734375 L 0.953125 -7.796875 L 5.046875 -7.796875 Z M 3.359375 -4.203125 L 5.40625 -7.265625 L 5.40625 -1.140625 Z M 0.953125 -0.59375 L 3 -3.65625 L 5.046875 -0.59375 Z M 0.59375 -7.265625 L 2.640625 -4.203125 L 0.59375 -1.140625 Z M 0.59375 -7.265625 "/>
</symbol>
<symbol overflow="visible" id="7xEWvtIQ0-1">
<path style="stroke:none;" d="M 3.125 0 L 3.859375 0 L 3.859375 -8.5 L 3.234375 -8.5 L 1.140625 -6.78125 L 1.578125 -6.234375 L 3.125 -7.484375 Z M 3.125 0 "/>
</symbol>
<symbol overflow="visible" id="7xEWvtIQ0-2">
<path style="stroke:none;" d="M 1.90625 0 L 2.8125 0 L 5.125 -3.828125 C 5.453125 -4.390625 5.90625 -5.109375 5.90625 -6 C 5.90625 -7.53125 4.734375 -8.640625 3.125 -8.640625 C 1.515625 -8.640625 0.34375 -7.53125 0.34375 -6 C 0.34375 -4.53125 1.421875 -3.390625 2.9375 -3.390625 C 3.34375 -3.390625 3.90625 -3.5 4.203125 -3.75 L 4.21875 -3.75 Z M 3.125 -4.015625 C 2.015625 -4.015625 1.125 -4.890625 1.125 -6 C 1.125 -7.171875 1.9375 -7.984375 3.125 -7.984375 C 4.296875 -7.984375 5.109375 -7.171875 5.109375 -6 C 5.109375 -4.890625 4.21875 -4.015625 3.125 -4.015625 Z M 3.125 -4.015625 "/>
</symbol>
<symbol overflow="visible" id="7xEWvtIQ0-3">
<path style="stroke:none;" d="M 5.40625 -8.5 L 1.21875 -8.5 L 1.140625 -4.15625 C 1.625 -4.5 2.203125 -4.734375 2.8125 -4.734375 C 4.03125 -4.734375 4.953125 -3.75 4.953125 -2.53125 C 4.953125 -1.171875 3.8125 -0.5 3.03125 -0.5 C 2.265625 -0.5 1.53125 -1.03125 1.234375 -1.671875 L 0.484375 -1.296875 C 0.953125 -0.40625 1.78125 0.140625 3.03125 0.140625 C 4.28125 0.140625 5.75 -0.75 5.75 -2.578125 C 5.75 -4.109375 4.734375 -5.390625 3.109375 -5.390625 C 2.703125 -5.390625 2.25 -5.34375 1.875 -5.140625 L 1.90625 -7.84375 L 5.40625 -7.84375 Z M 5.40625 -8.5 "/>
</symbol>
<symbol overflow="visible" id="7xEWvtIQ0-4">
<path style="stroke:none;" d="M 0.484375 0 L 5.75 0 L 5.75 -0.640625 L 1.28125 -0.640625 L 3.9375 -3.375 C 4.8125 -4.265625 5.6875 -5.140625 5.6875 -6.46875 C 5.6875 -7.84375 4.546875 -8.640625 3.234375 -8.640625 C 1.9375 -8.640625 0.9375 -7.984375 0.65625 -6.6875 L 1.5 -6.59375 C 1.6875 -7.421875 2.328125 -7.984375 3.203125 -7.984375 C 4.171875 -7.984375 4.890625 -7.390625 4.890625 -6.40625 C 4.890625 -5.5 4.25 -4.796875 3.6875 -4.21875 L 0.484375 -0.84375 Z M 0.484375 0 "/>
</symbol>
<symbol overflow="visible" id="7xEWvtIQ0-5">
<path style="stroke:none;" d="M 0.3125 -4.25 C 0.3125 -2.40625 0.734375 0.140625 3.125 0.140625 C 5.515625 0.140625 5.921875 -2.40625 5.921875 -4.25 C 5.921875 -6.09375 5.515625 -8.640625 3.125 -8.640625 C 0.734375 -8.640625 0.3125 -6.09375 0.3125 -4.25 Z M 1.109375 -4.25 C 1.109375 -5.5625 1.3125 -7.984375 3.125 -7.984375 C 4.921875 -7.984375 5.140625 -5.5625 5.140625 -4.25 C 5.140625 -2.921875 4.921875 -0.5 3.125 -0.5 C 1.3125 -0.5 1.109375 -2.921875 1.109375 -4.25 Z M 1.109375 -4.25 "/>
</symbol>
<symbol overflow="visible" id="7xEWvtIQ0-6">
<path style="stroke:none;" d="M 3.046875 0 L 3.84375 0 L 3.84375 -3.65625 L 6.953125 -8.5 L 6.078125 -8.5 L 3.4375 -4.46875 L 0.875 -8.5 L -0.078125 -8.5 L 3.046875 -3.65625 Z M 3.046875 0 "/>
</symbol>
<symbol overflow="visible" id="7xEWvtIQ0-7">
<path style="stroke:none;" d="M 5.265625 -3.6875 C 5.265625 -5.09375 4.40625 -5.6875 3.0625 -5.6875 C 2.34375 -5.6875 1.46875 -5.40625 0.953125 -4.90625 L 1.375 -4.421875 C 1.859375 -4.84375 2.40625 -5.046875 3.0625 -5.046875 C 3.953125 -5.046875 4.625 -4.65625 4.625 -3.703125 L 4.625 -3.359375 L 3.78125 -3.359375 C 2.6875 -3.359375 0.703125 -3.1875 0.703125 -1.5 C 0.703125 -0.328125 1.71875 0.140625 2.65625 0.140625 C 3.59375 0.140625 4.203125 -0.1875 4.609375 -0.90625 L 4.625 -0.90625 C 4.625 -0.59375 4.65625 -0.28125 4.703125 0 L 5.375 0 C 5.296875 -0.640625 5.265625 -1.25 5.265625 -2.328125 Z M 4.625 -2.78125 L 4.625 -2.40625 C 4.625 -1.484375 4.21875 -0.5 2.6875 -0.5 C 2.09375 -0.5 1.421875 -0.859375 1.421875 -1.53125 C 1.421875 -2.484375 2.625 -2.78125 3.828125 -2.78125 Z M 4.625 -2.78125 "/>
</symbol>
<symbol overflow="visible" id="7xEWvtIQ1-0">
<path style="stroke:none;" d="M 0 0 L 6 0 L 6 -8.40625 L 0 -8.40625 Z M 3 -4.734375 L 0.953125 -7.796875 L 5.046875 -7.796875 Z M 3.359375 -4.203125 L 5.40625 -7.265625 L 5.40625 -1.140625 Z M 0.953125 -0.59375 L 3 -3.65625 L 5.046875 -0.59375 Z M 0.59375 -7.265625 L 2.640625 -4.203125 L 0.59375 -1.140625 Z M 0.59375 -7.265625 "/>
</symbol>
<symbol overflow="visible" id="7xEWvtIQ1-1">
<path style="stroke:none;" d="M 1.90625 0 L 2.8125 0 L 5.125 -3.828125 C 5.453125 -4.390625 5.90625 -5.109375 5.90625 -6 C 5.90625 -7.53125 4.734375 -8.640625 3.125 -8.640625 C 1.515625 -8.640625 0.34375 -7.53125 0.34375 -6 C 0.34375 -4.53125 1.421875 -3.390625 2.9375 -3.390625 C 3.34375 -3.390625 3.90625 -3.5 4.203125 -3.75 L 4.21875 -3.75 Z M 3.125 -4.015625 C 2.015625 -4.015625 1.125 -4.890625 1.125 -6 C 1.125 -7.171875 1.9375 -7.984375 3.125 -7.984375 C 4.296875 -7.984375 5.109375 -7.171875 5.109375 -6 C 5.109375 -4.890625 4.21875 -4.015625 3.125 -4.015625 Z M 3.125 -4.015625 "/>
</symbol>
<symbol overflow="visible" id="7xEWvtIQ2-0">
<path style="stroke:none;" d="M 0 0 L 6 0 L 6 -8.40625 L 0 -8.40625 Z M 3 -4.734375 L 0.953125 -7.796875 L 5.046875 -7.796875 Z M 3.359375 -4.203125 L 5.40625 -7.265625 L 5.40625 -1.140625 Z M 0.953125 -0.59375 L 3 -3.65625 L 5.046875 -0.59375 Z M 0.59375 -7.265625 L 2.640625 -4.203125 L 0.59375 -1.140625 Z M 0.59375 -7.265625 "/>
</symbol>
<symbol overflow="visible" id="7xEWvtIQ2-1">
<path style="stroke:none;" d="M 5.40625 -8.5 L 1.21875 -8.5 L 1.140625 -4.15625 C 1.625 -4.5 2.203125 -4.734375 2.8125 -4.734375 C 4.03125 -4.734375 4.953125 -3.75 4.953125 -2.53125 C 4.953125 -1.171875 3.8125 -0.5 3.03125 -0.5 C 2.265625 -0.5 1.53125 -1.03125 1.234375 -1.671875 L 0.484375 -1.296875 C 0.953125 -0.40625 1.78125 0.140625 3.03125 0.140625 C 4.28125 0.140625 5.75 -0.75 5.75 -2.578125 C 5.75 -4.109375 4.734375 -5.390625 3.109375 -5.390625 C 2.703125 -5.390625 2.25 -5.34375 1.875 -5.140625 L 1.90625 -7.84375 L 5.40625 -7.84375 Z M 5.40625 -8.5 "/>
</symbol>
<symbol overflow="visible" id="7xEWvtIQ3-0">
<path style="stroke:none;" d="M 0 0 L 6 0 L 6 -8.40625 L 0 -8.40625 Z M 3 -4.734375 L 0.953125 -7.796875 L 5.046875 -7.796875 Z M 3.359375 -4.203125 L 5.40625 -7.265625 L 5.40625 -1.140625 Z M 0.953125 -0.59375 L 3 -3.65625 L 5.046875 -0.59375 Z M 0.59375 -7.265625 L 2.640625 -4.203125 L 0.59375 -1.140625 Z M 0.59375 -7.265625 "/>
</symbol>
<symbol overflow="visible" id="7xEWvtIQ3-1">
<path style="stroke:none;" d="M 0.3125 -4.25 C 0.3125 -2.40625 0.734375 0.140625 3.125 0.140625 C 5.515625 0.140625 5.921875 -2.40625 5.921875 -4.25 C 5.921875 -6.09375 5.515625 -8.640625 3.125 -8.640625 C 0.734375 -8.640625 0.3125 -6.09375 0.3125 -4.25 Z M 1.109375 -4.25 C 1.109375 -5.5625 1.3125 -7.984375 3.125 -7.984375 C 4.921875 -7.984375 5.140625 -5.5625 5.140625 -4.25 C 5.140625 -2.921875 4.921875 -0.5 3.125 -0.5 C 1.3125 -0.5 1.109375 -2.921875 1.109375 -4.25 Z M 1.109375 -4.25 "/>
</symbol>
<symbol overflow="visible" id="7xEWvtIQ3-2">
<path style="stroke:none;" d="M 5.3125 -8.5 L 0.484375 -8.5 L 0.484375 -7.84375 L 4.578125 -7.84375 L 1.125 0 L 1.9375 0 L 5.3125 -7.84375 Z M 5.3125 -8.5 "/>
</symbol>
<symbol overflow="visible" id="7xEWvtIQ3-3">
<path style="stroke:none;" d="M 0.953125 0 L 1.6875 0 L 1.6875 -3.03125 C 1.6875 -4.109375 2.25 -4.96875 3.484375 -4.96875 C 3.5625 -4.96875 3.65625 -4.953125 3.765625 -4.921875 L 3.859375 -5.625 C 3.703125 -5.65625 3.578125 -5.6875 3.4375 -5.6875 C 2.609375 -5.6875 2.03125 -5.21875 1.671875 -4.578125 C 1.640625 -4.6875 1.625 -5.140625 1.625 -5.546875 L 0.90625 -5.546875 C 0.90625 -5.25 0.953125 -4.390625 0.953125 -3.984375 Z M 0.953125 0 "/>
</symbol>
<symbol overflow="visible" id="7xEWvtIQ4-0">
<path style="stroke:none;" d="M 0 0 L 6 0 L 6 -8.40625 L 0 -8.40625 Z M 3 -4.734375 L 0.953125 -7.796875 L 5.046875 -7.796875 Z M 3.359375 -4.203125 L 5.40625 -7.265625 L 5.40625 -1.140625 Z M 0.953125 -0.59375 L 3 -3.65625 L 5.046875 -0.59375 Z M 0.59375 -7.265625 L 2.640625 -4.203125 L 0.59375 -1.140625 Z M 0.59375 -7.265625 "/>
</symbol>
<symbol overflow="visible" id="7xEWvtIQ4-1">
<path style="stroke:none;" d="M 0.3125 -4.25 C 0.3125 -2.40625 0.734375 0.140625 3.125 0.140625 C 5.515625 0.140625 5.921875 -2.40625 5.921875 -4.25 C 5.921875 -6.09375 5.515625 -8.640625 3.125 -8.640625 C 0.734375 -8.640625 0.3125 -6.09375 0.3125 -4.25 Z M 1.109375 -4.25 C 1.109375 -5.5625 1.3125 -7.984375 3.125 -7.984375 C 4.921875 -7.984375 5.140625 -5.5625 5.140625 -4.25 C 5.140625 -2.921875 4.921875 -0.5 3.125 -0.5 C 1.3125 -0.5 1.109375 -2.921875 1.109375 -4.25 Z M 1.109375 -4.25 "/>
</symbol>
<symbol overflow="visible" id="7xEWvtIQ5-0">
<path style="stroke:none;" d="M 0 0 L 6 0 L 6 -8.40625 L 0 -8.40625 Z M 3 -4.734375 L 0.953125 -7.796875 L 5.046875 -7.796875 Z M 3.359375 -4.203125 L 5.40625 -7.265625 L 5.40625 -1.140625 Z M 0.953125 -0.59375 L 3 -3.65625 L 5.046875 -0.59375 Z M 0.59375 -7.265625 L 2.640625 -4.203125 L 0.59375 -1.140625 Z M 0.59375 -7.265625 "/>
</symbol>
<symbol overflow="visible" id="7xEWvtIQ5-1">
<path style="stroke:none;" d="M 5.328125 -1.484375 C 4.96875 -0.890625 4.203125 -0.5 3.46875 -0.5 C 1.78125 -0.5 1.375 -1.984375 1.375 -2.59375 L 6.03125 -2.59375 L 6.03125 -3.09375 C 6.03125 -4.375 5.125 -5.6875 3.421875 -5.6875 C 1.796875 -5.6875 0.640625 -4.4375 0.640625 -2.78125 C 0.640625 -1.0625 1.765625 0.140625 3.453125 0.140625 C 4.4375 0.140625 5.296875 -0.203125 5.859375 -1.046875 Z M 1.375 -3.234375 C 1.375 -3.53125 1.8125 -5.046875 3.390625 -5.046875 C 4.453125 -5.046875 5.296875 -4.21875 5.296875 -3.234375 Z M 1.375 -3.234375 "/>
</symbol>
<symbol overflow="visible" id="7xEWvtIQ6-0">
<path style="stroke:none;" d="M 0 0 L 6 0 L 6 -8.40625 L 0 -8.40625 Z M 3 -4.734375 L 0.953125 -7.796875 L 5.046875 -7.796875 Z M 3.359375 -4.203125 L 5.40625 -7.265625 L 5.40625 -1.140625 Z M 0.953125 -0.59375 L 3 -3.65625 L 5.046875 -0.59375 Z M 0.59375 -7.265625 L 2.640625 -4.203125 L 0.59375 -1.140625 Z M 0.59375 -7.265625 "/>
</symbol>
<symbol overflow="visible" id="7xEWvtIQ6-1">
<path style="stroke:none;" d="M 0.3125 -4.25 C 0.3125 -2.40625 0.734375 0.140625 3.125 0.140625 C 5.515625 0.140625 5.921875 -2.40625 5.921875 -4.25 C 5.921875 -6.09375 5.515625 -8.640625 3.125 -8.640625 C 0.734375 -8.640625 0.3125 -6.09375 0.3125 -4.25 Z M 1.109375 -4.25 C 1.109375 -5.5625 1.3125 -7.984375 3.125 -7.984375 C 4.921875 -7.984375 5.140625 -5.5625 5.140625 -4.25 C 5.140625 -2.921875 4.921875 -0.5 3.125 -0.5 C 1.3125 -0.5 1.109375 -2.921875 1.109375 -4.25 Z M 1.109375 -4.25 "/>
</symbol>
<symbol overflow="visible" id="7xEWvtIQ7-0">
<path style="stroke:none;" d="M 0 0 L 6 0 L 6 -8.40625 L 0 -8.40625 Z M 3 -4.734375 L 0.953125 -7.796875 L 5.046875 -7.796875 Z M 3.359375 -4.203125 L 5.40625 -7.265625 L 5.40625 -1.140625 Z M 0.953125 -0.59375 L 3 -3.65625 L 5.046875 -0.59375 Z M 0.59375 -7.265625 L 2.640625 -4.203125 L 0.59375 -1.140625 Z M 0.59375 -7.265625 "/>
</symbol>
<symbol overflow="visible" id="7xEWvtIQ7-1">
<path style="stroke:none;" d="M 0.484375 0 L 5.75 0 L 5.75 -0.640625 L 1.28125 -0.640625 L 3.9375 -3.375 C 4.8125 -4.265625 5.6875 -5.140625 5.6875 -6.46875 C 5.6875 -7.84375 4.546875 -8.640625 3.234375 -8.640625 C 1.9375 -8.640625 0.9375 -7.984375 0.65625 -6.6875 L 1.5 -6.59375 C 1.6875 -7.421875 2.328125 -7.984375 3.203125 -7.984375 C 4.171875 -7.984375 4.890625 -7.390625 4.890625 -6.40625 C 4.890625 -5.5 4.25 -4.796875 3.6875 -4.21875 L 0.484375 -0.84375 Z M 0.484375 0 "/>
</symbol>
<symbol overflow="visible" id="7xEWvtIQ8-0">
<path style="stroke:none;" d="M 0 0 L 6 0 L 6 -8.40625 L 0 -8.40625 Z M 3 -4.734375 L 0.953125 -7.796875 L 5.046875 -7.796875 Z M 3.359375 -4.203125 L 5.40625 -7.265625 L 5.40625 -1.140625 Z M 0.953125 -0.59375 L 3 -3.65625 L 5.046875 -0.59375 Z M 0.59375 -7.265625 L 2.640625 -4.203125 L 0.59375 -1.140625 Z M 0.59375 -7.265625 "/>
</symbol>
<symbol overflow="visible" id="7xEWvtIQ8-1">
<path style="stroke:none;" d="M 3.953125 0 L 4.671875 0 L 4.671875 -2.09375 L 5.96875 -2.09375 L 5.96875 -2.734375 L 4.671875 -2.734375 L 4.671875 -8.5 L 3.671875 -8.5 L 0.28125 -2.9375 L 0.28125 -2.09375 L 3.953125 -2.09375 Z M 3.953125 -2.734375 L 0.921875 -2.734375 L 3.921875 -7.703125 L 3.953125 -7.703125 Z M 3.953125 -2.734375 "/>
</symbol>
<symbol overflow="visible" id="7xEWvtIQ9-0">
<path style="stroke:none;" d="M 0 0 L 0 -6 L -8.40625 -6 L -8.40625 0 Z M -4.734375 -3 L -7.796875 -0.953125 L -7.796875 -5.046875 Z M -4.203125 -3.359375 L -7.265625 -5.40625 L -1.140625 -5.40625 Z M -0.59375 -0.953125 L -3.65625 -3 L -0.59375 -5.046875 Z M -7.265625 -0.59375 L -4.203125 -2.640625 L -1.140625 -0.59375 Z M -7.265625 -0.59375 "/>
</symbol>
<symbol overflow="visible" id="7xEWvtIQ9-1">
<path style="stroke:none;" d="M 0 -0.0625 L 0 -0.890625 L -2.25 -1.84375 L -2.25 -6.34375 L 0 -7.265625 L 0 -8.15625 L -8.5 -4.578125 L -8.5 -3.765625 Z M -2.96875 -6.0625 L -2.96875 -2.15625 L -7.625 -4.140625 Z M -2.96875 -6.0625 "/>
</symbol>
<symbol overflow="visible" id="7xEWvtIQ9-2">
<path style="stroke:none;" d="M -1.484375 -5.328125 C -0.890625 -4.96875 -0.5 -4.203125 -0.5 -3.46875 C -0.5 -1.78125 -1.984375 -1.375 -2.59375 -1.375 L -2.59375 -6.03125 L -3.09375 -6.03125 C -4.375 -6.03125 -5.6875 -5.125 -5.6875 -3.421875 C -5.6875 -1.796875 -4.4375 -0.640625 -2.78125 -0.640625 C -1.0625 -0.640625 0.140625 -1.765625 0.140625 -3.453125 C 0.140625 -4.4375 -0.203125 -5.296875 -1.046875 -5.859375 Z M -3.234375 -1.375 C -3.53125 -1.375 -5.046875 -1.8125 -5.046875 -3.390625 C -5.046875 -4.453125 -4.21875 -5.296875 -3.234375 -5.296875 Z M -3.234375 -1.375 "/>
</symbol>
<symbol overflow="visible" id="7xEWvtIQ9-3">
<path style="stroke:none;" d="M 0 -0.953125 L 0 -1.6875 L -3.03125 -1.6875 C -4.109375 -1.6875 -4.96875 -2.25 -4.96875 -3.484375 C -4.96875 -3.5625 -4.953125 -3.65625 -4.921875 -3.765625 L -5.625 -3.859375 C -5.65625 -3.703125 -5.6875 -3.578125 -5.6875 -3.4375 C -5.6875 -2.609375 -5.21875 -2.03125 -4.578125 -1.671875 C -4.6875 -1.640625 -5.140625 -1.625 -5.546875 -1.625 L -5.546875 -0.90625 C -5.25 -0.90625 -4.390625 -0.953125 -3.984375 -0.953125 Z M 0 -0.953125 "/>
</symbol>
<symbol overflow="visible" id="7xEWvtIQ9-4">
<path style="stroke:none;" d="M -3.6875 -5.265625 C -5.09375 -5.265625 -5.6875 -4.40625 -5.6875 -3.0625 C -5.6875 -2.34375 -5.40625 -1.46875 -4.90625 -0.953125 L -4.421875 -1.375 C -4.84375 -1.859375 -5.046875 -2.40625 -5.046875 -3.0625 C -5.046875 -3.953125 -4.65625 -4.625 -3.703125 -4.625 L -3.359375 -4.625 L -3.359375 -3.78125 C -3.359375 -2.6875 -3.1875 -0.703125 -1.5 -0.703125 C -0.328125 -0.703125 0.140625 -1.71875 0.140625 -2.65625 C 0.140625 -3.59375 -0.1875 -4.203125 -0.90625 -4.609375 L -0.90625 -4.625 C -0.59375 -4.625 -0.28125 -4.65625 0 -4.703125 L 0 -5.375 C -0.640625 -5.296875 -1.25 -5.265625 -2.328125 -5.265625 Z M -2.78125 -4.625 L -2.40625 -4.625 C -1.484375 -4.625 -0.5 -4.21875 -0.5 -2.6875 C -0.5 -2.09375 -0.859375 -1.421875 -1.53125 -1.421875 C -2.484375 -1.421875 -2.78125 -2.625 -2.78125 -3.828125 Z M -2.78125 -4.625 "/>
</symbol>
<symbol overflow="visible" id="7xEWvtIQ9-5">
<path style="stroke:none;" d="M -2.765625 -0.640625 C -1.078125 -0.640625 0.140625 -1.859375 0.140625 -3.5625 C 0.140625 -5.265625 -1.078125 -6.484375 -2.765625 -6.484375 C -4.46875 -6.484375 -5.6875 -5.265625 -5.6875 -3.5625 C -5.6875 -1.859375 -4.46875 -0.640625 -2.765625 -0.640625 Z M -2.765625 -1.375 C -4.015625 -1.375 -5.046875 -2.203125 -5.046875 -3.5625 C -5.046875 -4.921875 -4.015625 -5.765625 -2.765625 -5.765625 C -1.53125 -5.765625 -0.5 -4.921875 -0.5 -3.5625 C -0.5 -2.203125 -1.53125 -1.375 -2.765625 -1.375 Z M -2.765625 -1.375 "/>
</symbol>
<symbol overflow="visible" id="7xEWvtIQ9-6">
<path style="stroke:none;" d="M 0 -1.078125 L 0 -1.796875 L -9.078125 -1.796875 L -9.078125 -1.078125 Z M 0 -1.078125 "/>
</symbol>
<symbol overflow="visible" id="7xEWvtIQ9-7">
<path style="stroke:none;" d="M -0.984375 -0.34375 C -0.21875 -0.765625 0.140625 -1.625 0.140625 -2.5625 C 0.140625 -3.625 -0.4375 -4.578125 -1.578125 -4.578125 C -3.8125 -4.578125 -2.65625 -1.28125 -4.15625 -1.28125 C -4.734375 -1.28125 -5.046875 -1.9375 -5.046875 -2.453125 C -5.046875 -3.109375 -4.765625 -3.484375 -4.265625 -3.765625 L -4.640625 -4.421875 C -5.359375 -4.0625 -5.6875 -3.359375 -5.6875 -2.453125 C -5.6875 -1.546875 -5.171875 -0.5625 -4.09375 -0.5625 C -1.984375 -0.5625 -3.046875 -3.859375 -1.53125 -3.859375 C -0.890625 -3.859375 -0.5 -3.203125 -0.5 -2.578125 C -0.5 -1.9375 -0.828125 -1.265625 -1.421875 -0.96875 Z M -0.984375 -0.34375 "/>
</symbol>
<symbol overflow="visible" id="7xEWvtIQ9-8">
<path style="stroke:none;" d=""/>
</symbol>
<symbol overflow="visible" id="7xEWvtIQ10-0">
<path style="stroke:none;" d="M 0 0 L 0 -6 L -8.40625 -6 L -8.40625 0 Z M -4.734375 -3 L -7.796875 -0.953125 L -7.796875 -5.046875 Z M -4.203125 -3.359375 L -7.265625 -5.40625 L -1.140625 -5.40625 Z M -0.59375 -0.953125 L -3.65625 -3 L -0.59375 -5.046875 Z M -7.265625 -0.59375 L -4.203125 -2.640625 L -1.140625 -0.59375 Z M -7.265625 -0.59375 "/>
</symbol>
<symbol overflow="visible" id="7xEWvtIQ10-1">
<path style="stroke:none;" d="M 0 -2.453125 L 0 -3.1875 L -5.546875 -5.375 L -5.546875 -4.640625 L -0.78125 -2.84375 L -5.546875 -1 L -5.546875 -0.1875 Z M 0 -2.453125 "/>
</symbol>
<symbol overflow="visible" id="7xEWvtIQ10-2">
<path style="stroke:none;" d="M -1.484375 -5.328125 C -0.890625 -4.96875 -0.5 -4.203125 -0.5 -3.46875 C -0.5 -1.78125 -1.984375 -1.375 -2.59375 -1.375 L -2.59375 -6.03125 L -3.09375 -6.03125 C -4.375 -6.03125 -5.6875 -5.125 -5.6875 -3.421875 C -5.6875 -1.796875 -4.4375 -0.640625 -2.78125 -0.640625 C -1.0625 -0.640625 0.140625 -1.765625 0.140625 -3.453125 C 0.140625 -4.4375 -0.203125 -5.296875 -1.046875 -5.859375 Z M -3.234375 -1.375 C -3.53125 -1.375 -5.046875 -1.8125 -5.046875 -3.390625 C -5.046875 -4.453125 -4.21875 -5.296875 -3.234375 -5.296875 Z M -3.234375 -1.375 "/>
</symbol>
<symbol overflow="visible" id="7xEWvtIQ10-3">
<path style="stroke:none;" d=""/>
</symbol>
<symbol overflow="visible" id="7xEWvtIQ10-4">
<path style="stroke:none;" d="M -5.546875 -6.53125 L -5.546875 -5.8125 L -4.609375 -5.8125 L -4.609375 -5.78125 C -5.265625 -5.359375 -5.6875 -4.625 -5.6875 -3.6875 C -5.6875 -2.046875 -4.40625 -0.71875 -2.84375 -0.71875 C -1.28125 -0.71875 0 -2.046875 0 -3.6875 C 0 -4.625 -0.421875 -5.359375 -1.078125 -5.78125 L -1.078125 -5.8125 L -0.3125 -5.8125 C 0.3125 -5.8125 2.234375 -5.765625 2.234375 -3.578125 C 2.234375 -2.71875 1.890625 -1.890625 1.1875 -1.390625 L 1.71875 -0.828125 C 2.453125 -1.390625 2.875 -2.453125 2.875 -3.578125 C 2.875 -4.703125 2.40625 -6.53125 -0.359375 -6.53125 Z M -2.84375 -5.828125 C -1.625 -5.828125 -0.640625 -4.84375 -0.640625 -3.640625 C -0.640625 -2.421875 -1.625 -1.4375 -2.84375 -1.4375 C -4.0625 -1.4375 -5.046875 -2.421875 -5.046875 -3.640625 C -5.046875 -4.84375 -4.0625 -5.828125 -2.84375 -5.828125 Z M -2.84375 -5.828125 "/>
</symbol>
<symbol overflow="visible" id="7xEWvtIQ10-5">
<path style="stroke:none;" d="M -3.6875 -5.265625 C -5.09375 -5.265625 -5.6875 -4.40625 -5.6875 -3.0625 C -5.6875 -2.34375 -5.40625 -1.46875 -4.90625 -0.953125 L -4.421875 -1.375 C -4.84375 -1.859375 -5.046875 -2.40625 -5.046875 -3.0625 C -5.046875 -3.953125 -4.65625 -4.625 -3.703125 -4.625 L -3.359375 -4.625 L -3.359375 -3.78125 C -3.359375 -2.6875 -3.1875 -0.703125 -1.5 -0.703125 C -0.328125 -0.703125 0.140625 -1.71875 0.140625 -2.65625 C 0.140625 -3.59375 -0.1875 -4.203125 -0.90625 -4.609375 L -0.90625 -4.625 C -0.59375 -4.625 -0.28125 -4.65625 0 -4.703125 L 0 -5.375 C -0.640625 -5.296875 -1.25 -5.265625 -2.328125 -5.265625 Z M -2.78125 -4.625 L -2.40625 -4.625 C -1.484375 -4.625 -0.5 -4.21875 -0.5 -2.6875 C -0.5 -2.09375 -0.859375 -1.421875 -1.53125 -1.421875 C -2.484375 -1.421875 -2.78125 -2.625 -2.78125 -3.828125 Z M -2.78125 -4.625 "/>
</symbol>
<symbol overflow="visible" id="7xEWvtIQ11-0">
<path style="stroke:none;" d="M 0 0 L 0 -6 L -8.40625 -6 L -8.40625 0 Z M -4.734375 -3 L -7.796875 -0.953125 L -7.796875 -5.046875 Z M -4.203125 -3.359375 L -7.265625 -5.40625 L -1.140625 -5.40625 Z M -0.59375 -0.953125 L -3.65625 -3 L -0.59375 -5.046875 Z M -7.265625 -0.59375 L -4.203125 -2.640625 L -1.140625 -0.59375 Z M -7.265625 -0.59375 "/>
</symbol>
<symbol overflow="visible" id="7xEWvtIQ11-1">
<path style="stroke:none;" d="M -5.546875 -6.53125 L -5.546875 -5.8125 L -4.609375 -5.8125 L -4.609375 -5.78125 C -5.265625 -5.359375 -5.6875 -4.625 -5.6875 -3.6875 C -5.6875 -2.046875 -4.40625 -0.71875 -2.84375 -0.71875 C -1.28125 -0.71875 0 -2.046875 0 -3.6875 C 0 -4.625 -0.421875 -5.359375 -1.078125 -5.78125 L -1.078125 -5.8125 L -0.3125 -5.8125 C 0.3125 -5.8125 2.234375 -5.765625 2.234375 -3.578125 C 2.234375 -2.71875 1.890625 -1.890625 1.1875 -1.390625 L 1.71875 -0.828125 C 2.453125 -1.390625 2.875 -2.453125 2.875 -3.578125 C 2.875 -4.703125 2.40625 -6.53125 -0.359375 -6.53125 Z M -2.84375 -5.828125 C -1.625 -5.828125 -0.640625 -4.84375 -0.640625 -3.640625 C -0.640625 -2.421875 -1.625 -1.4375 -2.84375 -1.4375 C -4.0625 -1.4375 -5.046875 -2.421875 -5.046875 -3.640625 C -5.046875 -4.84375 -4.0625 -5.828125 -2.84375 -5.828125 Z M -2.84375 -5.828125 "/>
</symbol>
<symbol overflow="visible" id="7xEWvtIQ12-0">
<path style="stroke:none;" d="M 0 0 L 0 -6 L -8.40625 -6 L -8.40625 0 Z M -4.734375 -3 L -7.796875 -0.953125 L -7.796875 -5.046875 Z M -4.203125 -3.359375 L -7.265625 -5.40625 L -1.140625 -5.40625 Z M -0.59375 -0.953125 L -3.65625 -3 L -0.59375 -5.046875 Z M -7.265625 -0.59375 L -4.203125 -2.640625 L -1.140625 -0.59375 Z M -7.265625 -0.59375 "/>
</symbol>
<symbol overflow="visible" id="7xEWvtIQ12-1">
<path style="stroke:none;" d="M 2.734375 -0.796875 L 2.734375 -1.53125 L -0.96875 -1.53125 L -0.96875 -1.546875 C -0.203125 -1.984375 0.140625 -2.9375 0.140625 -3.765625 C 0.140625 -5.46875 -1.078125 -6.6875 -2.765625 -6.6875 C -4.46875 -6.6875 -5.6875 -5.46875 -5.6875 -3.765625 C -5.6875 -2.9375 -5.34375 -1.984375 -4.578125 -1.546875 L -4.578125 -1.53125 L -5.546875 -1.53125 L -5.546875 -0.796875 Z M -2.765625 -1.453125 C -4.015625 -1.453125 -5.046875 -2.453125 -5.046875 -3.765625 C -5.046875 -5.125 -4.015625 -5.96875 -2.765625 -5.96875 C -1.53125 -5.96875 -0.5 -5.125 -0.5 -3.765625 C -0.5 -2.453125 -1.53125 -1.453125 -2.765625 -1.453125 Z M -2.765625 -1.453125 "/>
</symbol>
<symbol overflow="visible" id="7xEWvtIQ13-0">
<path style="stroke:none;" d="M 0 0 L 0 -6 L -8.40625 -6 L -8.40625 0 Z M -4.734375 -3 L -7.796875 -0.953125 L -7.796875 -5.046875 Z M -4.203125 -3.359375 L -7.265625 -5.40625 L -1.140625 -5.40625 Z M -0.59375 -0.953125 L -3.65625 -3 L -0.59375 -5.046875 Z M -7.265625 -0.59375 L -4.203125 -2.640625 L -1.140625 -0.59375 Z M -7.265625 -0.59375 "/>
</symbol>
<symbol overflow="visible" id="7xEWvtIQ13-1">
<path style="stroke:none;" d="M -1.484375 -5.328125 C -0.890625 -4.96875 -0.5 -4.203125 -0.5 -3.46875 C -0.5 -1.78125 -1.984375 -1.375 -2.59375 -1.375 L -2.59375 -6.03125 L -3.09375 -6.03125 C -4.375 -6.03125 -5.6875 -5.125 -5.6875 -3.421875 C -5.6875 -1.796875 -4.4375 -0.640625 -2.78125 -0.640625 C -1.0625 -0.640625 0.140625 -1.765625 0.140625 -3.453125 C 0.140625 -4.4375 -0.203125 -5.296875 -1.046875 -5.859375 Z M -3.234375 -1.375 C -3.53125 -1.375 -5.046875 -1.8125 -5.046875 -3.390625 C -5.046875 -4.453125 -4.21875 -5.296875 -3.234375 -5.296875 Z M -3.234375 -1.375 "/>
</symbol>
<symbol overflow="visible" id="7xEWvtIQ13-2">
<path style="stroke:none;" d="M 0 -0.953125 L 0 -1.6875 L -3.03125 -1.6875 C -4.109375 -1.6875 -4.96875 -2.25 -4.96875 -3.484375 C -4.96875 -3.5625 -4.953125 -3.65625 -4.921875 -3.765625 L -5.625 -3.859375 C -5.65625 -3.703125 -5.6875 -3.578125 -5.6875 -3.4375 C -5.6875 -2.609375 -5.21875 -2.03125 -4.578125 -1.671875 C -4.6875 -1.640625 -5.140625 -1.625 -5.546875 -1.625 L -5.546875 -0.90625 C -5.25 -0.90625 -4.390625 -0.953125 -3.984375 -0.953125 Z M 0 -0.953125 "/>
</symbol>
<symbol overflow="visible" id="7xEWvtIQ13-3">
<path style="stroke:none;" d=""/>
</symbol>
<symbol overflow="visible" id="7xEWvtIQ13-4">
<path style="stroke:none;" d="M -5.546875 -6.53125 L -5.546875 -5.8125 L -4.609375 -5.8125 L -4.609375 -5.78125 C -5.265625 -5.359375 -5.6875 -4.625 -5.6875 -3.6875 C -5.6875 -2.046875 -4.40625 -0.71875 -2.84375 -0.71875 C -1.28125 -0.71875 0 -2.046875 0 -3.6875 C 0 -4.625 -0.421875 -5.359375 -1.078125 -5.78125 L -1.078125 -5.8125 L -0.3125 -5.8125 C 0.3125 -5.8125 2.234375 -5.765625 2.234375 -3.578125 C 2.234375 -2.71875 1.890625 -1.890625 1.1875 -1.390625 L 1.71875 -0.828125 C 2.453125 -1.390625 2.875 -2.453125 2.875 -3.578125 C 2.875 -4.703125 2.40625 -6.53125 -0.359375 -6.53125 Z M -2.84375 -5.828125 C -1.625 -5.828125 -0.640625 -4.84375 -0.640625 -3.640625 C -0.640625 -2.421875 -1.625 -1.4375 -2.84375 -1.4375 C -4.0625 -1.4375 -5.046875 -2.421875 -5.046875 -3.640625 C -5.046875 -4.84375 -4.0625 -5.828125 -2.84375 -5.828125 Z M -2.84375 -5.828125 "/>
</symbol>
<symbol overflow="visible" id="7xEWvtIQ13-5">
<path style="stroke:none;" d="M -3.6875 -5.265625 C -5.09375 -5.265625 -5.6875 -4.40625 -5.6875 -3.0625 C -5.6875 -2.34375 -5.40625 -1.46875 -4.90625 -0.953125 L -4.421875 -1.375 C -4.84375 -1.859375 -5.046875 -2.40625 -5.046875 -3.0625 C -5.046875 -3.953125 -4.65625 -4.625 -3.703125 -4.625 L -3.359375 -4.625 L -3.359375 -3.78125 C -3.359375 -2.6875 -3.1875 -0.703125 -1.5 -0.703125 C -0.328125 -0.703125 0.140625 -1.71875 0.140625 -2.65625 C 0.140625 -3.59375 -0.1875 -4.203125 -0.90625 -4.609375 L -0.90625 -4.625 C -0.59375 -4.625 -0.28125 -4.65625 0 -4.703125 L 0 -5.375 C -0.640625 -5.296875 -1.25 -5.265625 -2.328125 -5.265625 Z M -2.78125 -4.625 L -2.40625 -4.625 C -1.484375 -4.625 -0.5 -4.21875 -0.5 -2.6875 C -0.5 -2.09375 -0.859375 -1.421875 -1.53125 -1.421875 C -2.484375 -1.421875 -2.78125 -2.625 -2.78125 -3.828125 Z M -2.78125 -4.625 "/>
</symbol>
<symbol overflow="visible" id="7xEWvtIQ13-6">
<path style="stroke:none;" d="M 0 -0.953125 L 0 -1.6875 L -2.765625 -1.6875 C -4.296875 -1.6875 -5.046875 -2.53125 -5.046875 -3.59375 C -5.046875 -4.375 -4.359375 -4.75 -3.34375 -4.75 L 0 -4.75 L 0 -5.46875 L -3.125 -5.46875 C -3.90625 -5.46875 -5.046875 -5.8125 -5.046875 -7.15625 C -5.046875 -8.296875 -4.15625 -8.546875 -3.265625 -8.546875 L 0 -8.546875 L 0 -9.265625 L -3.296875 -9.265625 C -4.515625 -9.265625 -5.6875 -8.875 -5.6875 -7.15625 C -5.6875 -6.390625 -5.3125 -5.609375 -4.484375 -5.265625 C -5.328125 -5 -5.6875 -4.328125 -5.6875 -3.59375 C -5.6875 -2.703125 -5.1875 -1.984375 -4.578125 -1.703125 L -4.578125 -1.671875 C -4.6875 -1.640625 -5.140625 -1.625 -5.546875 -1.625 L -5.546875 -0.90625 C -5.25 -0.90625 -4.390625 -0.953125 -3.984375 -0.953125 Z M 0 -0.953125 "/>
</symbol>
</g>
</defs>
<g id="surface1">
<rect x="0" y="0" width="600" height="450" style="fill:rgb(100%,100%,100%);fill-opacity:1;stroke:none;"/>
<g style="fill:rgb(0%,0%,0%);fill-opacity:1;">
  <use xlink:href="#7xEWvtIQ0-1" x="161.839844" y="421.570312"/>
</g>
<g style="fill:rgb(0%,0%,0%);fill-opacity:1;">
  <use xlink:href="#7xEWvtIQ1-1" x="168.082031" y="421.570312"/>
</g>
<g style="fill:rgb(0%,0%,0%);fill-opacity:1;">
  <use xlink:href="#7xEWvtIQ2-1" x="174.320312" y="421.570312"/>
</g>
<g style="fill:rgb(0%,0%,0%);fill-opacity:1;">
  <use xlink:href="#7xEWvtIQ3-1" x="180.5625" y="421.570312"/>
</g>
<g style="fill:rgb(0%,0%,0%);fill-opacity:1;">
  <use xlink:href="#7xEWvtIQ0-1" x="304.777344" y="421.570312"/>
</g>
<g style="fill:rgb(0%,0%,0%);fill-opacity:1;">
  <use xlink:href="#7xEWvtIQ0-2" x="311.015625" y="421.570312"/>
</g>
<g style="fill:rgb(0%,0%,0%);fill-opacity:1;">
  <use xlink:href="#7xEWvtIQ3-2" x="317.257812" y="421.570312"/>
</g>
<g style="fill:rgb(0%,0%,0%);fill-opacity:1;">
  <use xlink:href="#7xEWvtIQ0-3" x="323.496094" y="421.570312"/>
</g>
<g style="fill:rgb(0%,0%,0%);fill-opacity:1;">
  <use xlink:href="#7xEWvtIQ0-4" x="447.675781" y="421.570312"/>
</g>
<g style="fill:rgb(0%,0%,0%);fill-opacity:1;">
  <use xlink:href="#7xEWvtIQ0-5" x="453.917969" y="421.570312"/>
</g>
<g style="fill:rgb(0%,0%,0%);fill-opacity:1;">
  <use xlink:href="#7xEWvtIQ4-1" x="460.15625" y="421.570312"/>
</g>
<g style="fill:rgb(0%,0%,0%);fill-opacity:1;">
  <use xlink:href="#7xEWvtIQ0-5" x="466.398437" y="421.570312"/>
</g>
<g style="fill:rgb(0%,0%,0%);fill-opacity:1;">
  <use xlink:href="#7xEWvtIQ0-6" x="300.289062" y="435.820312"/>
</g>
<g style="fill:rgb(0%,0%,0%);fill-opacity:1;">
  <use xlink:href="#7xEWvtIQ5-1" x="307.179688" y="435.820312"/>
</g>
<g style="fill:rgb(0%,0%,0%);fill-opacity:1;">
  <use xlink:href="#7xEWvtIQ0-7" x="313.851562" y="435.820312"/>
</g>
<g style="fill:rgb(0%,0%,0%);fill-opacity:1;">
  <use xlink:href="#7xEWvtIQ3-3" x="320.078125" y="435.820312"/>
</g>
<g style="fill:rgb(0%,0%,0%);fill-opacity:1;">
  <use xlink:href="#7xEWvtIQ6-1" x="25.882812" y="413.320312"/>
</g>
<g style="fill:rgb(0%,0%,0%);fill-opacity:1;">
  <use xlink:href="#7xEWvtIQ7-1" x="26.242187" y="269.632812"/>
</g>
<g style="fill:rgb(0%,0%,0%);fill-opacity:1;">
  <use xlink:href="#7xEWvtIQ8-1" x="25.8125" y="125.945312"/>
</g>
<g style="fill:rgb(0%,0%,0%);fill-opacity:1;">
  <use xlink:href="#7xEWvtIQ9-1" x="20.417969" y="276.09375"/>
</g>
<g style="fill:rgb(0%,0%,0%);fill-opacity:1;">
  <use xlink:href="#7xEWvtIQ10-1" x="20.417969" y="267.871094"/>
</g>
<g style="fill:rgb(0%,0%,0%);fill-opacity:1;">
  <use xlink:href="#7xEWvtIQ9-2" x="20.417969" y="262.316406"/>
</g>
<g style="fill:rgb(0%,0%,0%);fill-opacity:1;">
  <use xlink:href="#7xEWvtIQ9-3" x="20.417969" y="255.644531"/>
</g>
<g style="fill:rgb(0%,0%,0%);fill-opacity:1;">
  <use xlink:href="#7xEWvtIQ9-4" x="20.417969" y="251.648438"/>
</g>
<g style="fill:rgb(0%,0%,0%);fill-opacity:1;">
  <use xlink:href="#7xEWvtIQ11-1" x="20.417969" y="245.421875"/>
</g>
<g style="fill:rgb(0%,0%,0%);fill-opacity:1;">
  <use xlink:href="#7xEWvtIQ10-2" x="20.417969" y="238.089844"/>
</g>
<g style="fill:rgb(0%,0%,0%);fill-opacity:1;">
  <use xlink:href="#7xEWvtIQ10-3" x="20.417969" y="231.417969"/>
</g>
<g style="fill:rgb(0%,0%,0%);fill-opacity:1;">
  <use xlink:href="#7xEWvtIQ10-4" x="20.417969" y="228.296875"/>
</g>
<g style="fill:rgb(0%,0%,0%);fill-opacity:1;">
  <use xlink:href="#7xEWvtIQ9-5" x="20.417969" y="220.964844"/>
</g>
<g style="fill:rgb(0%,0%,0%);fill-opacity:1;">
  <use xlink:href="#7xEWvtIQ10-5" x="20.417969" y="213.835938"/>
</g>
<g style="fill:rgb(0%,0%,0%);fill-opacity:1;">
  <use xlink:href="#7xEWvtIQ9-6" x="20.417969" y="207.609375"/>
</g>
<g style="fill:rgb(0%,0%,0%);fill-opacity:1;">
  <use xlink:href="#7xEWvtIQ9-7" x="20.417969" y="204.730469"/>
</g>
<g style="fill:rgb(0%,0%,0%);fill-opacity:1;">
  <use xlink:href="#7xEWvtIQ9-8" x="20.417969" y="199.617188"/>
</g>
<g style="fill:rgb(0%,0%,0%);fill-opacity:1;">
  <use xlink:href="#7xEWvtIQ12-1" x="20.417969" y="196.496094"/>
</g>
<g style="fill:rgb(0%,0%,0%);fill-opacity:1;">
  <use xlink:href="#7xEWvtIQ13-1" x="20.417969" y="189.164062"/>
</g>
<g style="fill:rgb(0%,0%,0%);fill-opacity:1;">
  <use xlink:href="#7xEWvtIQ13-2" x="20.417969" y="182.492188"/>
</g>
<g style="fill:rgb(0%,0%,0%);fill-opacity:1;">
  <use xlink:href="#7xEWvtIQ13-3" x="20.417969" y="178.496094"/>
</g>
<g style="fill:rgb(0%,0%,0%);fill-opacity:1;">
  <use xlink:href="#7xEWvtIQ13-4" x="20.417969" y="175.378906"/>
</g>
<g style="fill:rgb(0%,0%,0%);fill-opacity:1;">
  <use xlink:href="#7xEWvtIQ13-5" x="20.417969" y="168.046875"/>
</g>
<g style="fill:rgb(0%,0%,0%);fill-opacity:1;">
  <use xlink:href="#7xEWvtIQ13-6" x="20.417969" y="161.816406"/>
</g>
<g style="fill:rgb(0%,0%,0%);fill-opacity:1;">
  <use xlink:href="#7xEWvtIQ13-1" x="20.417969" y="151.59375"/>
</g>
<path style=" stroke:none;fill-rule:nonzero;fill:rgb(0%,0%,0%);fill-opacity:1;" d="M 63.75 130.855469 C 63.75 135.355469 57 135.355469 57 130.855469 C 57 126.355469 63.75 126.355469 63.75 130.855469 "/>
<path style=" stroke:none;fill-rule:nonzero;fill:rgb(0%,0%,0%);fill-opacity:1;" d="M 86.59375 114.421875 C 86.59375 118.921875 79.84375 118.921875 79.84375 114.421875 C 79.84375 109.921875 86.59375 109.921875 86.59375 114.421875 "/>
<path style=" stroke:none;fill-rule:nonzero;fill:rgb(0%,0%,0%);fill-opacity:1;" d="M 109.433594 74.980469 C 109.433594 79.480469 102.683594 79.480469 102.683594 74.980469 C 102.683594 70.480469 109.433594 70.480469 109.433594 74.980469 "/>
<path style=" stroke:none;fill-rule:nonzero;fill:rgb(0%,0%,0%);fill-opacity:1;" d="M 177.957031 122.875 C 177.957031 127.375 171.207031 127.375 171.207031 122.875 C 171.207031 118.375 177.957031 118.375 177.957031 122.875 "/>
<path style=" stroke:none;fill-rule:nonzero;fill:rgb(0%,0%,0%);fill-opacity:1;" d="M 200.796875 23.398438 C 200.796875 27.898438 194.046875 27.898438 194.046875 23.398438 C 194.046875 18.898438 200.796875 18.898438 200.796875 23.398438 "/>
<path style=" stroke:none;fill-rule:nonzero;fill:rgb(0%,0%,0%);fill-opacity:1;" d="M 223.636719 151.613281 C 223.636719 156.113281 216.886719 156.113281 216.886719 151.613281 C 216.886719 147.113281 223.636719 147.113281 223.636719 151.613281 "/>
<path style=" stroke:none;fill-rule:nonzero;fill:rgb(0%,0%,0%);fill-opacity:1;" d="M 246.476562 210.433594 C 246.476562 214.933594 239.726562 214.933594 239.726562 210.433594 C 239.726562 205.933594 246.476562 205.933594 246.476562 210.433594 "/>
<path style=" stroke:none;fill-rule:nonzero;fill:rgb(0%,0%,0%);fill-opacity:1;" d="M 269.320312 210.433594 C 269.320312 214.933594 262.570312 214.933594 262.570312 210.433594 C 262.570312 205.933594 269.320312 205.933594 269.320312 210.433594 "/>
<path style=" stroke:none;fill-rule:nonzero;fill:rgb(0%,0%,0%);fill-opacity:1;" d="M 292.160156 196.964844 C 292.160156 201.464844 285.410156 201.464844 285.410156 196.964844 C 285.410156 192.464844 292.160156 192.464844 292.160156 196.964844 "/>
<path style=" stroke:none;fill-rule:nonzero;fill:rgb(0%,0%,0%);fill-opacity:1;" d="M 315 226.859375 C 315 231.359375 308.25 231.359375 308.25 226.859375 C 308.25 222.359375 315 222.359375 315 226.859375 "/>
<path style=" stroke:none;fill-rule:nonzero;fill:rgb(0%,0%,0%);fill-opacity:1;" d="M 337.839844 217.40625 C 337.839844 221.90625 331.089844 221.90625 331.089844 217.40625 C 331.089844 212.90625 337.839844 212.90625 337.839844 217.40625 "/>
<path style=" stroke:none;fill-rule:nonzero;fill:rgb(0%,0%,0%);fill-opacity:1;" d="M 360.683594 208.535156 C 360.683594 213.035156 353.933594 213.035156 353.933594 208.535156 C 353.933594 204.035156 360.683594 204.035156 360.683594 208.535156 "/>
<path style=" stroke:none;fill-rule:nonzero;fill:rgb(0%,0%,0%);fill-opacity:1;" d="M 383.523438 227.878906 C 383.523438 232.378906 376.773438 232.378906 376.773438 227.878906 C 376.773438 223.378906 383.523438 223.378906 383.523438 227.878906 "/>
<path style=" stroke:none;fill-rule:nonzero;fill:rgb(0%,0%,0%);fill-opacity:1;" d="M 406.363281 251.363281 C 406.363281 255.863281 399.613281 255.863281 399.613281 251.363281 C 399.613281 246.863281 406.363281 246.863281 406.363281 251.363281 "/>
<path style=" stroke:none;fill-rule:nonzero;fill:rgb(0%,0%,0%);fill-opacity:1;" d="M 429.203125 215.441406 C 429.203125 219.941406 422.453125 219.941406 422.453125 215.441406 C 422.453125 210.941406 429.203125 210.941406 429.203125 215.441406 "/>
<path style=" stroke:none;fill-rule:nonzero;fill:rgb(0%,0%,0%);fill-opacity:1;" d="M 452.046875 218.292969 C 452.046875 222.792969 445.296875 222.792969 445.296875 218.292969 C 445.296875 213.792969 452.046875 213.792969 452.046875 218.292969 "/>
<path style=" stroke:none;fill-rule:nonzero;fill:rgb(0%,0%,0%);fill-opacity:1;" d="M 474.886719 229.519531 C 474.886719 234.019531 468.136719 234.019531 468.136719 229.519531 C 468.136719 225.019531 474.886719 225.019531 474.886719 229.519531 "/>
<path style=" stroke:none;fill-rule:nonzero;fill:rgb(0%,0%,0%);fill-opacity:1;" d="M 497.726562 245.234375 C 497.726562 249.734375 490.976562 249.734375 490.976562 245.234375 C 490.976562 240.734375 497.726562 240.734375 497.726562 245.234375 "/>
<path style=" stroke:none;fill-rule:nonzero;fill:rgb(0%,0%,0%);fill-opacity:1;" d="M 520.570312 247.480469 C 520.570312 251.980469 513.820312 251.980469 513.820312 247.480469 C 513.820312 242.980469 520.570312 242.980469 520.570312 247.480469 "/>
<path style=" stroke:none;fill-rule:nonzero;fill:rgb(0%,0%,0%);fill-opacity:1;" d="M 543.410156 218.292969 C 543.410156 222.792969 536.660156 222.792969 536.660156 218.292969 C 536.660156 213.792969 543.410156 213.792969 543.410156 218.292969 "/>
<path style=" stroke:none;fill-rule:nonzero;fill:rgb(0%,0%,0%);fill-opacity:1;" d="M 566.25 220.539062 C 566.25 225.039062 559.5 225.039062 559.5 220.539062 C 559.5 216.039062 566.25 216.039062 566.25 220.539062 "/>
<path style="fill:none;stroke-width:1.5;stroke-linecap:butt;stroke-linejoin:miter;stroke:rgb(0%,0%,0%);stroke-opacity:1;stroke-miterlimit:10;" d="M 80.5 160.760417 L 83.869792 158.098958 L 87.234375 155.5625 L 90.598958 153.151042 L 93.96875 150.854167 L 97.333333 148.677083 L 100.703125 146.614583 L 104.067708 144.671875 L 107.4375 142.848958 L 110.802083 141.140625 L 114.171875 139.505208 L 117.536458 137.989583 L 120.901042 136.59375 L 124.270833 135.322917 L 127.635417 134.161458 L 131.005208 133.119792 L 134.369792 132.1875 L 137.739583 131.364583 L 141.104167 130.65625 L 144.46875 130.052083 L 147.838542 129.552083 L 151.203125 129.15625 L 154.572917 128.864583 L 157.9375 128.671875 L 161.302083 128.578125 L 164.671875 128.578125 L 168.036458 128.671875 L 171.40625 128.864583 L 174.770833 129.140625 L 178.140625 129.510417 L 181.505208 129.963542 L 184.875 130.505208 L 188.239583 131.114583 L 191.609375 131.8125 L 194.973958 132.604167 L 198.338542 133.494792 L 201.708333 134.484375 L 205.072917 135.5625 L 208.442708 136.729167 L 211.807292 137.979167 L 215.171875 139.317708 L 218.541667 140.734375 L 221.90625 142.229167 L 225.276042 143.796875 L 228.640625 145.4375 L 232.010417 147.145833 L 235.375 148.916667 L 238.744792 150.755208 L 242.109375 152.651042 L 245.473958 154.604167 L 248.84375 156.619792 L 252.208333 158.703125 L 255.578125 160.859375 L 258.942708 163.083333 L 262.307292 165.369792 L 265.677083 167.640625 L 269.041667 169.984375 L 272.411458 172.416667 L 275.776042 174.947917 L 279.145833 177.557292 L 282.510417 180.239583 L 285.875 182.994792 L 289.244792 185.807292 L 292.609375 188.677083 L 295.979167 191.505208 L 299.34375 194.546875 L 302.713542 197.864583 L 306.078125 201.442708 L 309.447917 205.255208 L 312.8125 209.276042 L 316.177083 213.479167 L 319.546875 217.84375 L 322.911458 222.34375 L 326.28125 226.958333 L 329.645833 231.661458 L 333.010417 236.432292 L 336.380208 241.239583 L 339.744792 245.854167 L 343.114583 248.760417 L 346.479167 251.588542 L 349.848958 254.348958 L 353.213542 257.041667 L 356.583333 259.776042 L 359.947917 262.53125 L 363.317708 265.234375 L 366.682292 267.875 L 370.046875 270.46875 L 373.416667 273 L 376.78125 275.479167 L 380.151042 277.901042 L 383.515625 280.265625 L 386.880208 282.317708 L 390.25 284.046875 L 393.614583 285.65625 L 396.984375 287.151042 L 400.348958 288.536458 L 403.71875 289.817708 L 407.083333 291.010417 L 410.453125 292.109375 L 413.817708 293.125 L 417.182292 294.067708 L 420.552083 294.942708 L 423.916667 295.760417 L 427.286458 296.515625 L 430.651042 297.223958 L 434.015625 297.239583 L 437.385417 297.109375 L 440.75 296.864583 L 444.119792 296.515625 L 447.484375 296.505208 L 450.854167 296.942708 L 454.21875 297.333333 L 457.583333 297.677083 L 460.953125 297.984375 L 464.322917 298.255208 L 467.6875 298.489583 L 471.052083 298.692708 L 474.421875 298.875 L 477.786458 299.03125 L 481.15625 299.171875 L 484.520833 299.296875 L 487.885417 299.411458 L 491.255208 299.520833 L 494.619792 299.583333 L 497.989583 299.635417 L 501.354167 299.692708 L 504.723958 299.75 L 508.088542 299.869792 L 511.453125 300.067708 L 514.822917 300.255208 L 518.1875 300.447917 L 521.557292 300.635417 L 524.921875 300.828125 L 528.291667 301.026042 L 531.65625 301.223958 L 535.026042 301.4375 L 538.390625 301.75 L 541.755208 302.276042 L 545.125 302.796875 L 548.489583 303.317708 L 551.859375 303.828125 L 555.223958 304.333333 L 558.588542 304.828125 L 561.958333 305.3125 L 565.322917 305.786458 L 568.692708 306.244792 L 572.057292 306.6875 L 575.427083 307.114583 L 578.791667 307.520833 L 582.161458 307.911458 L 585.526042 308.244792 L 588.895833 308.546875 L 592.260417 308.833333 L 595.625 309.098958 L 598.994792 309.348958 L 602.359375 309.572917 L 605.729167 309.776042 L 609.09375 309.958333 L 612.458333 310.114583 L 615.828125 310.223958 L 619.192708 310.302083 L 622.5625 310.364583 L 625.927083 310.40625 L 629.296875 310.432292 L 632.661458 310.432292 L 636.03125 310.416667 L 639.395833 310.375 L 642.760417 310.317708 L 646.130208 310.239583 L 649.494792 310.145833 L 652.864583 310.036458 L 656.229167 309.901042 L 659.59375 309.755208 L 662.963542 309.598958 L 666.328125 309.421875 L 669.697917 309.229167 L 673.0625 309.015625 L 676.432292 308.786458 L 679.796875 308.536458 L 683.161458 308.260417 L 686.53125 307.96875 L 689.895833 307.661458 L 693.265625 307.34375 L 696.630208 307.005208 L 700 306.645833 L 703.364583 306.270833 L 706.734375 305.869792 L 710.098958 305.442708 L 713.463542 305 L 716.833333 304.53125 L 720.197917 304.036458 L 723.567708 303.526042 L 726.932292 302.984375 L 730.296875 302.421875 L 733.666667 301.838542 L 737.03125 301.223958 L 740.401042 300.583333 L 743.765625 299.916667 L 747.135417 299.223958 L 750.5 298.5 " transform="matrix(0.75,0,0,0.75,0,0)"/>
<path style="fill:none;stroke-width:1;stroke-linecap:butt;stroke-linejoin:miter;stroke:rgb(0%,0%,0%);stroke-opacity:1;stroke-miterlimit:10;" d="M 46.5 547 L 784.5 547 " transform="matrix(0.75,0,0,0.75,0,0)"/>
<path style="fill:none;stroke-width:1;stroke-linecap:butt;stroke-linejoin:miter;stroke:rgb(0%,0%,0%);stroke-opacity:1;stroke-miterlimit:10;" d="M 47 547.5 L 47 15.5 " transform="matrix(0.75,0,0,0.75,0,0)"/>
</g>
</svg>
