<?xml version="1.0" encoding="UTF-8"?>
<svg xmlns="http://www.w3.org/2000/svg" xmlns:xlink="http://www.w3.org/1999/xlink" width="600pt" height="450pt" viewBox="0 0 600 450" version="1.1">
<defs>
<g>
<symbol overflow="visible" id="SSZTm+vN0-0">
<path style="stroke:none;" d="M 0 0 L 6 0 L 6 -8.40625 L 0 -8.40625 Z M 3 -4.734375 L 0.953125 -7.796875 L 5.046875 -7.796875 Z M 3.359375 -4.203125 L 5.40625 -7.265625 L 5.40625 -1.140625 Z M 0.953125 -0.59375 L 3 -3.65625 L 5.046875 -0.59375 Z M 0.59375 -7.265625 L 2.640625 -4.203125 L 0.59375 -1.140625 Z M 0.59375 -7.265625 "/>
</symbol>
<symbol overflow="visible" id="SSZTm+vN0-1">
<path style="stroke:none;" d="M 3.125 0 L 3.859375 0 L 3.859375 -8.5 L 3.234375 -8.5 L 1.140625 -6.78125 L 1.578125 -6.234375 L 3.125 -7.484375 Z M 3.125 0 "/>
</symbol>
<symbol overflow="visible" id="SSZTm+vN0-2">
<path style="stroke:none;" d="M 0.3125 -4.25 C 0.3125 -2.40625 0.734375 0.140625 3.125 0.140625 C 5.515625 0.140625 5.921875 -2.40625 5.921875 -4.25 C 5.921875 -6.09375 5.515625 -8.640625 3.125 -8.640625 C 0.734375 -8.640625 0.3125 -6.09375 0.3125 -4.25 Z M 1.109375 -4.25 C 1.109375 -5.5625 1.3125 -7.984375 3.125 -7.984375 C 4.921875 -7.984375 5.140625 -5.5625 5.140625 -4.25 C 5.140625 -2.921875 4.921875 -0.5 3.125 -0.5 C 1.3125 -0.5 1.109375 -2.921875 1.109375 -4.25 Z M 1.109375 -4.25 "/>
</symbol>
<symbol overflow="visible" id="SSZTm+vN1-0">
<path style="stroke:none;" d="M 0 0 L 6 0 L 6 -8.40625 L 0 -8.40625 Z M 3 -4.734375 L 0.953125 -7.796875 L 5.046875 -7.796875 Z M 3.359375 -4.203125 L 5.40625 -7.265625 L 5.40625 -1.140625 Z M 0.953125 -0.59375 L 3 -3.65625 L 5.046875 -0.59375 Z M 0.59375 -7.265625 L 2.640625 -4.203125 L 0.59375 -1.140625 Z M 0.59375 -7.265625 "/>
</symbol>
<symbol overflow="visible" id="SSZTm+vN1-1">
<path style="stroke:none;" d="M 1.90625 0 L 2.8125 0 L 5.125 -3.828125 C 5.453125 -4.390625 5.90625 -5.109375 5.90625 -6 C 5.90625 -7.53125 4.734375 -8.640625 3.125 -8.640625 C 1.515625 -8.640625 0.34375 -7.53125 0.34375 -6 C 0.34375 -4.53125 1.421875 -3.390625 2.9375 -3.390625 C 3.34375 -3.390625 3.90625 -3.5 4.203125 -3.75 L 4.21875 -3.75 Z M 3.125 -4.015625 C 2.015625 -4.015625 1.125 -4.890625 1.125 -6 C 1.125 -7.171875 1.9375 -7.984375 3.125 -7.984375 C 4.296875 -7.984375 5.109375 -7.171875 5.109375 -6 C 5.109375 -4.890625 4.21875 -4.015625 3.125 -4.015625 Z M 3.125 -4.015625 "/>
</symbol>
<symbol overflow="visible" id="SSZTm+vN1-2">
<path style="stroke:none;" d="M 0.3125 -4.25 C 0.3125 -2.40625 0.734375 0.140625 3.125 0.140625 C 5.515625 0.140625 5.921875 -2.40625 5.921875 -4.25 C 5.921875 -6.09375 5.515625 -8.640625 3.125 -8.640625 C 0.734375 -8.640625 0.3125 -6.09375 0.3125 -4.25 Z M 1.109375 -4.25 C 1.109375 -5.5625 1.3125 -7.984375 3.125 -7.984375 C 4.921875 -7.984375 5.140625 -5.5625 5.140625 -4.25 C 5.140625 -2.921875 4.921875 -0.5 3.125 -0.5 C 1.3125 -0.5 1.109375 -2.921875 1.109375 -4.25 Z M 1.109375 -4.25 "/>
</symbol>
<symbol overflow="visible" id="SSZTm+vN1-3">
<path style="stroke:none;" d="M 5.40625 -8.5 L 1.21875 -8.5 L 1.140625 -4.15625 C 1.625 -4.5 2.203125 -4.734375 2.8125 -4.734375 C 4.03125 -4.734375 4.953125 -3.75 4.953125 -2.53125 C 4.953125 -1.171875 3.8125 -0.5 3.03125 -0.5 C 2.265625 -0.5 1.53125 -1.03125 1.234375 -1.671875 L 0.484375 -1.296875 C 0.953125 -0.40625 1.78125 0.140625 3.03125 0.140625 C 4.28125 0.140625 5.75 -0.75 5.75 -2.578125 C 5.75 -4.109375 4.734375 -5.390625 3.109375 -5.390625 C 2.703125 -5.390625 2.25 -5.34375 1.875 -5.140625 L 1.90625 -7.84375 L 5.40625 -7.84375 Z M 5.40625 -8.5 "/>
</symbol>
<symbol overflow="visible" id="SSZTm+vN1-4">
<path style="stroke:none;" d="M 0.484375 0 L 5.75 0 L 5.75 -0.640625 L 1.28125 -0.640625 L 3.9375 -3.375 C 4.8125 -4.265625 5.6875 -5.140625 5.6875 -6.46875 C 5.6875 -7.84375 4.546875 -8.640625 3.234375 -8.640625 C 1.9375 -8.640625 0.9375 -7.984375 0.65625 -6.6875 L 1.5 -6.59375 C 1.6875 -7.421875 2.328125 -7.984375 3.203125 -7.984375 C 4.171875 -7.984375 4.890625 -7.390625 4.890625 -6.40625 C 4.890625 -5.5 4.25 -4.796875 3.6875 -4.21875 L 0.484375 -0.84375 Z M 0.484375 0 "/>
</symbol>
<symbol overflow="visible" id="SSZTm+vN2-0">
<path style="stroke:none;" d="M 0 0 L 6 0 L 6 -8.40625 L 0 -8.40625 Z M 3 -4.734375 L 0.953125 -7.796875 L 5.046875 -7.796875 Z M 3.359375 -4.203125 L 5.40625 -7.265625 L 5.40625 -1.140625 Z M 0.953125 -0.59375 L 3 -3.65625 L 5.046875 -0.59375 Z M 0.59375 -7.265625 L 2.640625 -4.203125 L 0.59375 -1.140625 Z M 0.59375 -7.265625 "/>
</symbol>
<symbol overflow="visible" id="SSZTm+vN2-1">
<path style="stroke:none;" d="M 3.125 0 L 3.859375 0 L 3.859375 -8.5 L 3.234375 -8.5 L 1.140625 -6.78125 L 1.578125 -6.234375 L 3.125 -7.484375 Z M 3.125 0 "/>
</symbol>
<symbol overflow="visible" id="SSZTm+vN2-2">
<path style="stroke:none;" d="M 1.90625 0 L 2.8125 0 L 5.125 -3.828125 C 5.453125 -4.390625 5.90625 -5.109375 5.90625 -6 C 5.90625 -7.53125 4.734375 -8.640625 3.125 -8.640625 C 1.515625 -8.640625 0.34375 -7.53125 0.34375 -6 C 0.34375 -4.53125 1.421875 -3.390625 2.9375 -3.390625 C 3.34375 -3.390625 3.90625 -3.5 4.203125 -3.75 L 4.21875 -3.75 Z M 3.125 -4.015625 C 2.015625 -4.015625 1.125 -4.890625 1.125 -6 C 1.125 -7.171875 1.9375 -7.984375 3.125 -7.984375 C 4.296875 -7.984375 5.109375 -7.171875 5.109375 -6 C 5.109375 -4.890625 4.21875 -4.015625 3.125 -4.015625 Z M 3.125 -4.015625 "/>
</symbol>
<symbol overflow="visible" id="SSZTm+vN2-3">
<path style="stroke:none;" d="M 3.046875 0 L 3.84375 0 L 3.84375 -3.65625 L 6.953125 -8.5 L 6.078125 -8.5 L 3.4375 -4.46875 L 0.875 -8.5 L -0.078125 -8.5 L 3.046875 -3.65625 Z M 3.046875 0 "/>
</symbol>
<symbol overflow="visible" id="SSZTm+vN2-4">
<path style="stroke:none;" d="M 5.328125 -1.484375 C 4.96875 -0.890625 4.203125 -0.5 3.46875 -0.5 C 1.78125 -0.5 1.375 -1.984375 1.375 -2.59375 L 6.03125 -2.59375 L 6.03125 -3.09375 C 6.03125 -4.375 5.125 -5.6875 3.421875 -5.6875 C 1.796875 -5.6875 0.640625 -4.4375 0.640625 -2.78125 C 0.640625 -1.0625 1.765625 0.140625 3.453125 0.140625 C 4.4375 0.140625 5.296875 -0.203125 5.859375 -1.046875 Z M 1.375 -3.234375 C 1.375 -3.53125 1.8125 -5.046875 3.390625 -5.046875 C 4.453125 -5.046875 5.296875 -4.21875 5.296875 -3.234375 Z M 1.375 -3.234375 "/>
</symbol>
<symbol overflow="visible" id="SSZTm+vN3-0">
<path style="stroke:none;" d="M 0 0 L 6 0 L 6 -8.40625 L 0 -8.40625 Z M 3 -4.734375 L 0.953125 -7.796875 L 5.046875 -7.796875 Z M 3.359375 -4.203125 L 5.40625 -7.265625 L 5.40625 -1.140625 Z M 0.953125 -0.59375 L 3 -3.65625 L 5.046875 -0.59375 Z M 0.59375 -7.265625 L 2.640625 -4.203125 L 0.59375 -1.140625 Z M 0.59375 -7.265625 "/>
</symbol>
<symbol overflow="visible" id="SSZTm+vN3-1">
<path style="stroke:none;" d="M 0.3125 -4.25 C 0.3125 -2.40625 0.734375 0.140625 3.125 0.140625 C 5.515625 0.140625 5.921875 -2.40625 5.921875 -4.25 C 5.921875 -6.09375 5.515625 -8.640625 3.125 -8.640625 C 0.734375 -8.640625 0.3125 -6.09375 0.3125 -4.25 Z M 1.109375 -4.25 C 1.109375 -5.5625 1.3125 -7.984375 3.125 -7.984375 C 4.921875 -7.984375 5.140625 -5.5625 5.140625 -4.25 C 5.140625 -2.921875 4.921875 -0.5 3.125 -0.5 C 1.3125 -0.5 1.109375 -2.921875 1.109375 -4.25 Z M 1.109375 -4.25 "/>
</symbol>
<symbol overflow="visible" id="SSZTm+vN3-2">
<path style="stroke:none;" d="M 5.265625 -3.6875 C 5.265625 -5.09375 4.40625 -5.6875 3.0625 -5.6875 C 2.34375 -5.6875 1.46875 -5.40625 0.953125 -4.90625 L 1.375 -4.421875 C 1.859375 -4.84375 2.40625 -5.046875 3.0625 -5.046875 C 3.953125 -5.046875 4.625 -4.65625 4.625 -3.703125 L 4.625 -3.359375 L 3.78125 -3.359375 C 2.6875 -3.359375 0.703125 -3.1875 0.703125 -1.5 C 0.703125 -0.328125 1.71875 0.140625 2.65625 0.140625 C 3.59375 0.140625 4.203125 -0.1875 4.609375 -0.90625 L 4.625 -0.90625 C 4.625 -0.59375 4.65625 -0.28125 4.703125 0 L 5.375 0 C 5.296875 -0.640625 5.265625 -1.25 5.265625 -2.328125 Z M 4.625 -2.78125 L 4.625 -2.40625 C 4.625 -1.484375 4.21875 -0.5 2.6875 -0.5 C 2.09375 -0.5 1.421875 -0.859375 1.421875 -1.53125 C 1.421875 -2.484375 2.625 -2.78125 3.828125 -2.78125 Z M 4.625 -2.78125 "/>
</symbol>
<symbol overflow="visible" id="SSZTm+vN3-3">
<path style="stroke:none;" d="M 0.953125 0 L 1.6875 0 L 1.6875 -3.03125 C 1.6875 -4.109375 2.25 -4.96875 3.484375 -4.96875 C 3.5625 -4.96875 3.65625 -4.953125 3.765625 -4.921875 L 3.859375 -5.625 C 3.703125 -5.65625 3.578125 -5.6875 3.4375 -5.6875 C 2.609375 -5.6875 2.03125 -5.21875 1.671875 -4.578125 C 1.640625 -4.6875 1.625 -5.140625 1.625 -5.546875 L 0.90625 -5.546875 C 0.90625 -5.25 0.953125 -4.390625 0.953125 -3.984375 Z M 0.953125 0 "/>
</symbol>
<symbol overflow="visible" id="SSZTm+vN4-0">
<path style="stroke:none;" d="M 0 0 L 6 0 L 6 -8.40625 L 0 -8.40625 Z M 3 -4.734375 L 0.953125 -7.796875 L 5.046875 -7.796875 Z M 3.359375 -4.203125 L 5.40625 -7.265625 L 5.40625 -1.140625 Z M 0.953125 -0.59375 L 3 -3.65625 L 5.046875 -0.59375 Z M 0.59375 -7.265625 L 2.640625 -4.203125 L 0.59375 -1.140625 Z M 0.59375 -7.265625 "/>
</symbol>
<symbol overflow="visible" id="SSZTm+vN4-1">
<path style="stroke:none;" d="M 0.3125 -4.25 C 0.3125 -2.40625 0.734375 0.140625 3.125 0.140625 C 5.515625 0.140625 5.921875 -2.40625 5.921875 -4.25 C 5.921875 -6.09375 5.515625 -8.640625 3.125 -8.640625 C 0.734375 -8.640625 0.3125 -6.09375 0.3125 -4.25 Z M 1.109375 -4.25 C 1.109375 -5.5625 1.3125 -7.984375 3.125 -7.984375 C 4.921875 -7.984375 5.140625 -5.5625 5.140625 -4.25 C 5.140625 -2.921875 4.921875 -0.5 3.125 -0.5 C 1.3125 -0.5 1.109375 -2.921875 1.109375 -4.25 Z M 1.109375 -4.25 "/>
</symbol>
<symbol overflow="visible" id="SSZTm+vN5-0">
<path style="stroke:none;" d="M 0 0 L 6 0 L 6 -8.40625 L 0 -8.40625 Z M 3 -4.734375 L 0.953125 -7.796875 L 5.046875 -7.796875 Z M 3.359375 -4.203125 L 5.40625 -7.265625 L 5.40625 -1.140625 Z M 0.953125 -0.59375 L 3 -3.65625 L 5.046875 -0.59375 Z M 0.59375 -7.265625 L 2.640625 -4.203125 L 0.59375 -1.140625 Z M 0.59375 -7.265625 "/>
</symbol>
<symbol overflow="visible" id="SSZTm+vN5-1">
<path style="stroke:none;" d="M 0.3125 -4.25 C 0.3125 -2.40625 0.734375 0.140625 3.125 0.140625 C 5.515625 0.140625 5.921875 -2.40625 5.921875 -4.25 C 5.921875 -6.09375 5.515625 -8.640625 3.125 -8.640625 C 0.734375 -8.640625 0.3125 -6.09375 0.3125 -4.25 Z M 1.109375 -4.25 C 1.109375 -5.5625 1.3125 -7.984375 3.125 -7.984375 C 4.921875 -7.984375 5.140625 -5.5625 5.140625 -4.25 C 5.140625 -2.921875 4.921875 -0.5 3.125 -0.5 C 1.3125 -0.5 1.109375 -2.921875 1.109375 -4.25 Z M 1.109375 -4.25 "/>
</symbol>
<symbol overflow="visible" id="SSZTm+vN6-0">
<path style="stroke:none;" d="M 0 0 L 6 0 L 6 -8.40625 L 0 -8.40625 Z M 3 -4.734375 L 0.953125 -7.796875 L 5.046875 -7.796875 Z M 3.359375 -4.203125 L 5.40625 -7.265625 L 5.40625 -1.140625 Z M 0.953125 -0.59375 L 3 -3.65625 L 5.046875 -0.59375 Z M 0.59375 -7.265625 L 2.640625 -4.203125 L 0.59375 -1.140625 Z M 0.59375 -7.265625 "/>
</symbol>
<symbol overflow="visible" id="SSZTm+vN6-1">
<path style="stroke:none;" d="M 5.40625 -8.5 L 1.21875 -8.5 L 1.140625 -4.15625 C 1.625 -4.5 2.203125 -4.734375 2.8125 -4.734375 C 4.03125 -4.734375 4.953125 -3.75 4.953125 -2.53125 C 4.953125 -1.171875 3.8125 -0.5 3.03125 -0.5 C 2.265625 -0.5 1.53125 -1.03125 1.234375 -1.671875 L 0.484375 -1.296875 C 0.953125 -0.40625 1.78125 0.140625 3.03125 0.140625 C 4.28125 0.140625 5.75 -0.75 5.75 -2.578125 C 5.75 -4.109375 4.734375 -5.390625 3.109375 -5.390625 C 2.703125 -5.390625 2.25 -5.34375 1.875 -5.140625 L 1.90625 -7.84375 L 5.40625 -7.84375 Z M 5.40625 -8.5 "/>
</symbol>
<symbol overflow="visible" id="SSZTm+vN7-0">
<path style="stroke:none;" d="M 0 0 L 6 0 L 6 -8.40625 L 0 -8.40625 Z M 3 -4.734375 L 0.953125 -7.796875 L 5.046875 -7.796875 Z M 3.359375 -4.203125 L 5.40625 -7.265625 L 5.40625 -1.140625 Z M 0.953125 -0.59375 L 3 -3.65625 L 5.046875 -0.59375 Z M 0.59375 -7.265625 L 2.640625 -4.203125 L 0.59375 -1.140625 Z M 0.59375 -7.265625 "/>
</symbol>
<symbol overflow="visible" id="SSZTm+vN7-1">
<path style="stroke:none;" d="M 0.3125 -4.25 C 0.3125 -2.40625 0.734375 0.140625 3.125 0.140625 C 5.515625 0.140625 5.921875 -2.40625 5.921875 -4.25 C 5.921875 -6.09375 5.515625 -8.640625 3.125 -8.640625 C 0.734375 -8.640625 0.3125 -6.09375 0.3125 -4.25 Z M 1.109375 -4.25 C 1.109375 -5.5625 1.3125 -7.984375 3.125 -7.984375 C 4.921875 -7.984375 5.140625 -5.5625 5.140625 -4.25 C 5.140625 -2.921875 4.921875 -0.5 3.125 -0.5 C 1.3125 -0.5 1.109375 -2.921875 1.109375 -4.25 Z M 1.109375 -4.25 "/>
</symbol>
<symbol overflow="visible" id="SSZTm+vN8-0">
<path style="stroke:none;" d="M 0 0 L 6 0 L 6 -8.40625 L 0 -8.40625 Z M 3 -4.734375 L 0.953125 -7.796875 L 5.046875 -7.796875 Z M 3.359375 -4.203125 L 5.40625 -7.265625 L 5.40625 -1.140625 Z M 0.953125 -0.59375 L 3 -3.65625 L 5.046875 -0.59375 Z M 0.59375 -7.265625 L 2.640625 -4.203125 L 0.59375 -1.140625 Z M 0.59375 -7.265625 "/>
</symbol>
<symbol overflow="visible" id="SSZTm+vN8-1">
<path style="stroke:none;" d="M 3.125 0 L 3.859375 0 L 3.859375 -8.5 L 3.234375 -8.5 L 1.140625 -6.78125 L 1.578125 -6.234375 L 3.125 -7.484375 Z M 3.125 0 "/>
</symbol>
<symbol overflow="visible" id="SSZTm+vN8-2">
<path style="stroke:none;" d="M 0.3125 -4.25 C 0.3125 -2.40625 0.734375 0.140625 3.125 0.140625 C 5.515625 0.140625 5.921875 -2.40625 5.921875 -4.25 C 5.921875 -6.09375 5.515625 -8.640625 3.125 -8.640625 C 0.734375 -8.640625 0.3125 -6.09375 0.3125 -4.25 Z M 1.109375 -4.25 C 1.109375 -5.5625 1.3125 -7.984375 3.125 -7.984375 C 4.921875 -7.984375 5.140625 -5.5625 5.140625 -4.25 C 5.140625 -2.921875 4.921875 -0.5 3.125 -0.5 C 1.3125 -0.5 1.109375 -2.921875 1.109375 -4.25 Z M 1.109375 -4.25 "/>
</symbol>
<symbol overflow="visible" id="SSZTm+vN9-0">
<path style="stroke:none;" d="M 0 0 L 6 0 L 6 -8.40625 L 0 -8.40625 Z M 3 -4.734375 L 0.953125 -7.796875 L 5.046875 -7.796875 Z M 3.359375 -4.203125 L 5.40625 -7.265625 L 5.40625 -1.140625 Z M 0.953125 -0.59375 L 3 -3.65625 L 5.046875 -0.59375 Z M 0.59375 -7.265625 L 2.640625 -4.203125 L 0.59375 -1.140625 Z M 0.59375 -7.265625 "/>
</symbol>
<symbol overflow="visible" id="SSZTm+vN9-1">
<path style="stroke:none;" d="M 0.3125 -4.25 C 0.3125 -2.40625 0.734375 0.140625 3.125 0.140625 C 5.515625 0.140625 5.921875 -2.40625 5.921875 -4.25 C 5.921875 -6.09375 5.515625 -8.640625 3.125 -8.640625 C 0.734375 -8.640625 0.3125 -6.09375 0.3125 -4.25 Z M 1.109375 -4.25 C 1.109375 -5.5625 1.3125 -7.984375 3.125 -7.984375 C 4.921875 -7.984375 5.140625 -5.5625 5.140625 -4.25 C 5.140625 -2.921875 4.921875 -0.5 3.125 -0.5 C 1.3125 -0.5 1.109375 -2.921875 1.109375 -4.25 Z M 1.109375 -4.25 "/>
</symbol>
<symbol overflow="visible" id="SSZTm+vN10-0">
<path style="stroke:none;" d="M 0 0 L 6 0 L 6 -8.40625 L 0 -8.40625 Z M 3 -4.734375 L 0.953125 -7.796875 L 5.046875 -7.796875 Z M 3.359375 -4.203125 L 5.40625 -7.265625 L 5.40625 -1.140625 Z M 0.953125 -0.59375 L 3 -3.65625 L 5.046875 -0.59375 Z M 0.59375 -7.265625 L 2.640625 -4.203125 L 0.59375 -1.140625 Z M 0.59375 -7.265625 "/>
</symbol>
<symbol overflow="visible" id="SSZTm+vN10-1">
<path style="stroke:none;" d="M 0.3125 -4.25 C 0.3125 -2.40625 0.734375 0.140625 3.125 0.140625 C 5.515625 0.140625 5.921875 -2.40625 5.921875 -4.25 C 5.921875 -6.09375 5.515625 -8.640625 3.125 -8.640625 C 0.734375 -8.640625 0.3125 -6.09375 0.3125 -4.25 Z M 1.109375 -4.25 C 1.109375 -5.5625 1.3125 -7.984375 3.125 -7.984375 C 4.921875 -7.984375 5.140625 -5.5625 5.140625 -4.25 C 5.140625 -2.921875 4.921875 -0.5 3.125 -0.5 C 1.3125 -0.5 1.109375 -2.921875 1.109375 -4.25 Z M 1.109375 -4.25 "/>
</symbol>
<symbol overflow="visible" id="SSZTm+vN11-0">
<path style="stroke:none;" d="M 0 0 L 0 -6 L -8.40625 -6 L -8.40625 0 Z M -4.734375 -3 L -7.796875 -0.953125 L -7.796875 -5.046875 Z M -4.203125 -3.359375 L -7.265625 -5.40625 L -1.140625 -5.40625 Z M -0.59375 -0.953125 L -3.65625 -3 L -0.59375 -5.046875 Z M -7.265625 -0.59375 L -4.203125 -2.640625 L -1.140625 -0.59375 Z M -7.265625 -0.59375 "/>
</symbol>
<symbol overflow="visible" id="SSZTm+vN11-1">
<path style="stroke:none;" d="M 0 -1.15625 L 0 -1.953125 L -7.4375 -1.953125 L -7.4375 -1.984375 L 0 -7.15625 L 0 -8.171875 L -8.5 -8.171875 L -8.5 -7.375 L -1.0625 -7.375 L -1.0625 -7.359375 L -8.5 -2.1875 L -8.5 -1.15625 Z M 0 -1.15625 "/>
</symbol>
<symbol overflow="visible" id="SSZTm+vN11-2">
<path style="stroke:none;" d="M -1.484375 -5.328125 C -0.890625 -4.96875 -0.5 -4.203125 -0.5 -3.46875 C -0.5 -1.78125 -1.984375 -1.375 -2.59375 -1.375 L -2.59375 -6.03125 L -3.09375 -6.03125 C -4.375 -6.03125 -5.6875 -5.125 -5.6875 -3.421875 C -5.6875 -1.796875 -4.4375 -0.640625 -2.78125 -0.640625 C -1.0625 -0.640625 0.140625 -1.765625 0.140625 -3.453125 C 0.140625 -4.4375 -0.203125 -5.296875 -1.046875 -5.859375 Z M -3.234375 -1.375 C -3.53125 -1.375 -5.046875 -1.8125 -5.046875 -3.390625 C -5.046875 -4.453125 -4.21875 -5.296875 -3.234375 -5.296875 Z M -3.234375 -1.375 "/>
</symbol>
<symbol overflow="visible" id="SSZTm+vN11-3">
<path style="stroke:none;" d="M 0 -0.953125 L 0 -1.6875 L -3.03125 -1.6875 C -4.109375 -1.6875 -4.96875 -2.25 -4.96875 -3.484375 C -4.96875 -3.5625 -4.953125 -3.65625 -4.921875 -3.765625 L -5.625 -3.859375 C -5.65625 -3.703125 -5.6875 -3.578125 -5.6875 -3.4375 C -5.6875 -2.609375 -5.21875 -2.03125 -4.578125 -1.671875 C -4.6875 -1.640625 -5.140625 -1.625 -5.546875 -1.625 L -5.546875 -0.90625 C -5.25 -0.90625 -4.390625 -0.953125 -3.984375 -0.953125 Z M 0 -0.953125 "/>
</symbol>
<symbol overflow="visible" id="SSZTm+vN11-4">
<path style="stroke:none;" d=""/>
</symbol>
<symbol overflow="visible" id="SSZTm+vN11-5">
<path style="stroke:none;" d="M -2.765625 -0.640625 C -1.078125 -0.640625 0.140625 -1.859375 0.140625 -3.5625 C 0.140625 -5.265625 -1.078125 -6.484375 -2.765625 -6.484375 C -4.46875 -6.484375 -5.6875 -5.265625 -5.6875 -3.5625 C -5.6875 -1.859375 -4.46875 -0.640625 -2.765625 -0.640625 Z M -2.765625 -1.375 C -4.015625 -1.375 -5.046875 -2.203125 -5.046875 -3.5625 C -5.046875 -4.921875 -4.015625 -5.765625 -2.765625 -5.765625 C -1.53125 -5.765625 -0.5 -4.921875 -0.5 -3.5625 C -0.5 -2.203125 -1.53125 -1.375 -2.765625 -1.375 Z M -2.765625 -1.375 "/>
</symbol>
<symbol overflow="visible" id="SSZTm+vN11-6">
<path style="stroke:none;" d="M 0 -1.375 L 0 -2.09375 L -4.890625 -2.09375 L -4.890625 -3.390625 L -5.546875 -3.390625 L -5.546875 -2.09375 L -7.09375 -2.09375 C -8.09375 -2.09375 -8.5625 -2.40625 -8.5625 -3.0625 C -8.5625 -3.34375 -8.53125 -3.546875 -8.453125 -3.703125 L -9.078125 -3.859375 C -9.171875 -3.640625 -9.21875 -3.375 -9.21875 -3.03125 C -9.21875 -2.3125 -8.78125 -1.375 -7.359375 -1.375 L -5.546875 -1.375 L -5.546875 -0.21875 L -4.890625 -0.21875 L -4.890625 -1.375 Z M 0 -1.375 "/>
</symbol>
<symbol overflow="visible" id="SSZTm+vN12-0">
<path style="stroke:none;" d="M 0 0 L 0 -6 L -8.40625 -6 L -8.40625 0 Z M -4.734375 -3 L -7.796875 -0.953125 L -7.796875 -5.046875 Z M -4.203125 -3.359375 L -7.265625 -5.40625 L -1.140625 -5.40625 Z M -0.59375 -0.953125 L -3.65625 -3 L -0.59375 -5.046875 Z M -7.265625 -0.59375 L -4.203125 -2.640625 L -1.140625 -0.59375 Z M -7.265625 -0.59375 "/>
</symbol>
<symbol overflow="visible" id="SSZTm+vN12-1">
<path style="stroke:none;" d="M -5.546875 -5.65625 L -5.546875 -4.9375 L -2.765625 -4.9375 C -1.25 -4.9375 -0.5 -4.078125 -0.5 -3.015625 C -0.5 -1.875 -1.375 -1.625 -2.28125 -1.625 L -5.546875 -1.625 L -5.546875 -0.90625 L -2.25 -0.90625 C -1.03125 -0.90625 0.140625 -1.28125 0.140625 -3.015625 C 0.140625 -3.90625 -0.359375 -4.625 -0.96875 -4.90625 L -0.96875 -4.9375 C -0.859375 -4.96875 -0.40625 -4.984375 0 -4.984375 L 0 -5.71875 C -0.28125 -5.71875 -1.15625 -5.65625 -1.5625 -5.65625 Z M -5.546875 -5.65625 "/>
</symbol>
<symbol overflow="visible" id="SSZTm+vN12-2">
<path style="stroke:none;" d="M 0 -0.953125 L 0 -1.6875 L -2.765625 -1.6875 C -4.296875 -1.6875 -5.046875 -2.53125 -5.046875 -3.59375 C -5.046875 -4.375 -4.359375 -4.75 -3.34375 -4.75 L 0 -4.75 L 0 -5.46875 L -3.125 -5.46875 C -3.90625 -5.46875 -5.046875 -5.8125 -5.046875 -7.15625 C -5.046875 -8.296875 -4.15625 -8.546875 -3.265625 -8.546875 L 0 -8.546875 L 0 -9.265625 L -3.296875 -9.265625 C -4.515625 -9.265625 -5.6875 -8.875 -5.6875 -7.15625 C -5.6875 -6.390625 -5.3125 -5.609375 -4.484375 -5.265625 C -5.328125 -5 -5.6875 -4.328125 -5.6875 -3.59375 C -5.6875 -2.703125 -5.1875 -1.984375 -4.578125 -1.703125 L -4.578125 -1.671875 C -4.6875 -1.640625 -5.140625 -1.625 -5.546875 -1.625 L -5.546875 -0.90625 C -5.25 -0.90625 -4.390625 -0.953125 -3.984375 -0.953125 Z M 0 -0.953125 "/>
</symbol>
<symbol overflow="visible" id="SSZTm+vN13-0">
<path style="stroke:none;" d="M 0 0 L 0 -6 L -8.40625 -6 L -8.40625 0 Z M -4.734375 -3 L -7.796875 -0.953125 L -7.796875 -5.046875 Z M -4.203125 -3.359375 L -7.265625 -5.40625 L -1.140625 -5.40625 Z M -0.59375 -0.953125 L -3.65625 -3 L -0.59375 -5.046875 Z M -7.265625 -0.59375 L -4.203125 -2.640625 L -1.140625 -0.59375 Z M -7.265625 -0.59375 "/>
</symbol>
<symbol overflow="visible" id="SSZTm+vN13-1">
<path style="stroke:none;" d="M 0 -0.796875 L 0 -1.53125 L -0.96875 -1.53125 L -0.96875 -1.546875 C -0.203125 -1.984375 0.140625 -2.9375 0.140625 -3.765625 C 0.140625 -5.46875 -1.078125 -6.6875 -2.765625 -6.6875 C -4.46875 -6.6875 -5.6875 -5.46875 -5.6875 -3.765625 C -5.6875 -2.9375 -5.34375 -1.984375 -4.578125 -1.546875 L -4.578125 -1.53125 L -9.078125 -1.53125 L -9.078125 -0.796875 Z M -2.765625 -1.453125 C -4.015625 -1.453125 -5.046875 -2.453125 -5.046875 -3.765625 C -5.046875 -5.125 -4.015625 -5.96875 -2.765625 -5.96875 C -1.53125 -5.96875 -0.5 -5.125 -0.5 -3.765625 C -0.5 -2.453125 -1.53125 -1.453125 -2.765625 -1.453125 Z M -2.765625 -1.453125 "/>
</symbol>
<symbol overflow="visible" id="SSZTm+vN13-2">
<path style="stroke:none;" d="M -5.546875 -6.53125 L -5.546875 -5.8125 L -4.609375 -5.8125 L -4.609375 -5.78125 C -5.265625 -5.359375 -5.6875 -4.625 -5.6875 -3.6875 C -5.6875 -2.046875 -4.40625 -0.71875 -2.84375 -0.71875 C -1.28125 -0.71875 0 -2.046875 0 -3.6875 C 0 -4.625 -0.421875 -5.359375 -1.078125 -5.78125 L -1.078125 -5.8125 L -0.3125 -5.8125 C 0.3125 -5.8125 2.234375 -5.765625 2.234375 -3.578125 C 2.234375 -2.71875 1.890625 -1.890625 1.1875 -1.390625 L 1.71875 -0.828125 C 2.453125 -1.390625 2.875 -2.453125 2.875 -3.578125 C 2.875 -4.703125 2.40625 -6.53125 -0.359375 -6.53125 Z M -2.84375 -5.828125 C -1.625 -5.828125 -0.640625 -4.84375 -0.640625 -3.640625 C -0.640625 -2.421875 -1.625 -1.4375 -2.84375 -1.4375 C -4.0625 -1.4375 -5.046875 -2.421875 -5.046875 -3.640625 C -5.046875 -4.84375 -4.0625 -5.828125 -2.84375 -5.828125 Z M -2.84375 -5.828125 "/>
</symbol>
<symbol overflow="visible" id="SSZTm+vN14-0">
<path style="stroke:none;" d="M 0 0 L 0 -6 L -8.40625 -6 L -8.40625 0 Z M -4.734375 -3 L -7.796875 -0.953125 L -7.796875 -5.046875 Z M -4.203125 -3.359375 L -7.265625 -5.40625 L -1.140625 -5.40625 Z M -0.59375 -0.953125 L -3.65625 -3 L -0.59375 -5.046875 Z M -7.265625 -0.59375 L -4.203125 -2.640625 L -1.140625 -0.59375 Z M -7.265625 -0.59375 "/>
</symbol>
<symbol overflow="visible" id="SSZTm+vN14-1">
<path style="stroke:none;" d="M -3.6875 -5.265625 C -5.09375 -5.265625 -5.6875 -4.40625 -5.6875 -3.0625 C -5.6875 -2.34375 -5.40625 -1.46875 -4.90625 -0.953125 L -4.421875 -1.375 C -4.84375 -1.859375 -5.046875 -2.40625 -5.046875 -3.0625 C -5.046875 -3.953125 -4.65625 -4.625 -3.703125 -4.625 L -3.359375 -4.625 L -3.359375 -3.78125 C -3.359375 -2.6875 -3.1875 -0.703125 -1.5 -0.703125 C -0.328125 -0.703125 0.140625 -1.71875 0.140625 -2.65625 C 0.140625 -3.59375 -0.1875 -4.203125 -0.90625 -4.609375 L -0.90625 -4.625 C -0.59375 -4.625 -0.28125 -4.65625 0 -4.703125 L 0 -5.375 C -0.640625 -5.296875 -1.25 -5.265625 -2.328125 -5.265625 Z M -2.78125 -4.625 L -2.40625 -4.625 C -1.484375 -4.625 -0.5 -4.21875 -0.5 -2.6875 C -0.5 -2.09375 -0.859375 -1.421875 -1.53125 -1.421875 C -2.484375 -1.421875 -2.78125 -2.625 -2.78125 -3.828125 Z M -2.78125 -4.625 "/>
</symbol>
<symbol overflow="visible" id="SSZTm+vN14-2">
<path style="stroke:none;" d="M 0 -0.953125 L 0 -1.6875 L -2.765625 -1.6875 C -4.296875 -1.6875 -5.046875 -2.53125 -5.046875 -3.59375 C -5.046875 -4.375 -4.359375 -4.75 -3.34375 -4.75 L 0 -4.75 L 0 -5.46875 L -3.125 -5.46875 C -3.90625 -5.46875 -5.046875 -5.8125 -5.046875 -7.15625 C -5.046875 -8.296875 -4.15625 -8.546875 -3.265625 -8.546875 L 0 -8.546875 L 0 -9.265625 L -3.296875 -9.265625 C -4.515625 -9.265625 -5.6875 -8.875 -5.6875 -7.15625 C -5.6875 -6.390625 -5.3125 -5.609375 -4.484375 -5.265625 C -5.328125 -5 -5.6875 -4.328125 -5.6875 -3.59375 C -5.6875 -2.703125 -5.1875 -1.984375 -4.578125 -1.703125 L -4.578125 -1.671875 C -4.6875 -1.640625 -5.140625 -1.625 -5.546875 -1.625 L -5.546875 -0.90625 C -5.25 -0.90625 -4.390625 -0.953125 -3.984375 -0.953125 Z M 0 -0.953125 "/>
</symbol>
<symbol overflow="visible" id="SSZTm+vN14-3">
<path style="stroke:none;" d="M -1.484375 -5.328125 C -0.890625 -4.96875 -0.5 -4.203125 -0.5 -3.46875 C -0.5 -1.78125 -1.984375 -1.375 -2.59375 -1.375 L -2.59375 -6.03125 L -3.09375 -6.03125 C -4.375 -6.03125 -5.6875 -5.125 -5.6875 -3.421875 C -5.6875 -1.796875 -4.4375 -0.640625 -2.78125 -0.640625 C -1.0625 -0.640625 0.140625 -1.765625 0.140625 -3.453125 C 0.140625 -4.4375 -0.203125 -5.296875 -1.046875 -5.859375 Z M -3.234375 -1.375 C -3.53125 -1.375 -5.046875 -1.8125 -5.046875 -3.390625 C -5.046875 -4.453125 -4.21875 -5.296875 -3.234375 -5.296875 Z M -3.234375 -1.375 "/>
</symbol>
<symbol overflow="visible" id="SSZTm+vN14-4">
<path style="stroke:none;" d="M -0.984375 -0.34375 C -0.21875 -0.765625 0.140625 -1.625 0.140625 -2.5625 C 0.140625 -3.625 -0.4375 -4.578125 -1.578125 -4.578125 C -3.8125 -4.578125 -2.65625 -1.28125 -4.15625 -1.28125 C -4.734375 -1.28125 -5.046875 -1.9375 -5.046875 -2.453125 C -5.046875 -3.109375 -4.765625 -3.484375 -4.265625 -3.765625 L -4.640625 -4.421875 C -5.359375 -4.0625 -5.6875 -3.359375 -5.6875 -2.453125 C -5.6875 -1.546875 -5.171875 -0.5625 -4.09375 -0.5625 C -1.984375 -0.5625 -3.046875 -3.859375 -1.53125 -3.859375 C -0.890625 -3.859375 -0.5 -3.203125 -0.5 -2.578125 C -0.5 -1.9375 -0.828125 -1.265625 -1.421875 -0.96875 Z M -0.984375 -0.34375 "/>
</symbol>
</g>
</defs>
<g id="surface1">
<rect x="0" y="0" width="600" height="450" style="fill:rgb(100%,100%,100%);fill-opacity:1;stroke:none;"/>
<g style="fill:rgb(0%,0%,0%);fill-opacity:1;">
  <use xlink:href="#SSZTm+vN0-1" x="155.585938" y="421.570312"/>
</g>
<g style="fill:rgb(0%,0%,0%);fill-opacity:1;">
  <use xlink:href="#SSZTm+vN1-1" x="161.824219" y="421.570312"/>
</g>
<g style="fill:rgb(0%,0%,0%);fill-opacity:1;">
  <use xlink:href="#SSZTm+vN0-2" x="168.066406" y="421.570312"/>
</g>
<g style="fill:rgb(0%,0%,0%);fill-opacity:1;">
  <use xlink:href="#SSZTm+vN1-2" x="174.304688" y="421.570312"/>
</g>
<g style="fill:rgb(0%,0%,0%);fill-opacity:1;">
  <use xlink:href="#SSZTm+vN2-1" x="318.949219" y="421.570312"/>
</g>
<g style="fill:rgb(0%,0%,0%);fill-opacity:1;">
  <use xlink:href="#SSZTm+vN2-2" x="325.1875" y="421.570312"/>
</g>
<g style="fill:rgb(0%,0%,0%);fill-opacity:1;">
  <use xlink:href="#SSZTm+vN1-3" x="331.425781" y="421.570312"/>
</g>
<g style="fill:rgb(0%,0%,0%);fill-opacity:1;">
  <use xlink:href="#SSZTm+vN3-1" x="337.667969" y="421.570312"/>
</g>
<g style="fill:rgb(0%,0%,0%);fill-opacity:1;">
  <use xlink:href="#SSZTm+vN1-4" x="482.632812" y="421.570312"/>
</g>
<g style="fill:rgb(0%,0%,0%);fill-opacity:1;">
  <use xlink:href="#SSZTm+vN4-1" x="488.875" y="421.570312"/>
</g>
<g style="fill:rgb(0%,0%,0%);fill-opacity:1;">
  <use xlink:href="#SSZTm+vN1-2" x="495.113281" y="421.570312"/>
</g>
<g style="fill:rgb(0%,0%,0%);fill-opacity:1;">
  <use xlink:href="#SSZTm+vN1-2" x="501.351562" y="421.570312"/>
</g>
<g style="fill:rgb(0%,0%,0%);fill-opacity:1;">
  <use xlink:href="#SSZTm+vN2-3" x="308.914062" y="435.820312"/>
</g>
<g style="fill:rgb(0%,0%,0%);fill-opacity:1;">
  <use xlink:href="#SSZTm+vN2-4" x="315.804688" y="435.820312"/>
</g>
<g style="fill:rgb(0%,0%,0%);fill-opacity:1;">
  <use xlink:href="#SSZTm+vN3-2" x="322.476562" y="435.820312"/>
</g>
<g style="fill:rgb(0%,0%,0%);fill-opacity:1;">
  <use xlink:href="#SSZTm+vN3-3" x="328.703125" y="435.820312"/>
</g>
<g style="fill:rgb(0%,0%,0%);fill-opacity:1;">
  <use xlink:href="#SSZTm+vN5-1" x="43.132812" y="395.535156"/>
</g>
<g style="fill:rgb(0%,0%,0%);fill-opacity:1;">
  <use xlink:href="#SSZTm+vN6-1" x="30.652344" y="238.667969"/>
</g>
<g style="fill:rgb(0%,0%,0%);fill-opacity:1;">
  <use xlink:href="#SSZTm+vN7-1" x="36.894531" y="238.667969"/>
</g>
<g style="fill:rgb(0%,0%,0%);fill-opacity:1;">
  <use xlink:href="#SSZTm+vN5-1" x="43.132812" y="238.667969"/>
</g>
<g style="fill:rgb(0%,0%,0%);fill-opacity:1;">
  <use xlink:href="#SSZTm+vN8-1" x="24.414062" y="81.800781"/>
</g>
<g style="fill:rgb(0%,0%,0%);fill-opacity:1;">
  <use xlink:href="#SSZTm+vN8-2" x="30.652344" y="81.800781"/>
</g>
<g style="fill:rgb(0%,0%,0%);fill-opacity:1;">
  <use xlink:href="#SSZTm+vN9-1" x="36.894531" y="81.800781"/>
</g>
<g style="fill:rgb(0%,0%,0%);fill-opacity:1;">
  <use xlink:href="#SSZTm+vN10-1" x="43.132812" y="81.800781"/>
</g>
<g style="fill:rgb(0%,0%,0%);fill-opacity:1;">
  <use xlink:href="#SSZTm+vN11-1" x="20.0625" y="259.628906"/>
</g>
<g style="fill:rgb(0%,0%,0%);fill-opacity:1;">
  <use xlink:href="#SSZTm+vN12-1" x="20.0625" y="250.292969"/>
</g>
<g style="fill:rgb(0%,0%,0%);fill-opacity:1;">
  <use xlink:href="#SSZTm+vN12-2" x="20.0625" y="243.621094"/>
</g>
<g style="fill:rgb(0%,0%,0%);fill-opacity:1;">
  <use xlink:href="#SSZTm+vN13-1" x="20.0625" y="233.398437"/>
</g>
<g style="fill:rgb(0%,0%,0%);fill-opacity:1;">
  <use xlink:href="#SSZTm+vN11-2" x="20.0625" y="226.066406"/>
</g>
<g style="fill:rgb(0%,0%,0%);fill-opacity:1;">
  <use xlink:href="#SSZTm+vN11-3" x="20.0625" y="219.394531"/>
</g>
<g style="fill:rgb(0%,0%,0%);fill-opacity:1;">
  <use xlink:href="#SSZTm+vN11-4" x="20.0625" y="215.398437"/>
</g>
<g style="fill:rgb(0%,0%,0%);fill-opacity:1;">
  <use xlink:href="#SSZTm+vN11-5" x="20.0625" y="212.277344"/>
</g>
<g style="fill:rgb(0%,0%,0%);fill-opacity:1;">
  <use xlink:href="#SSZTm+vN11-6" x="20.0625" y="205.148438"/>
</g>
<g style="fill:rgb(0%,0%,0%);fill-opacity:1;">
  <use xlink:href="#SSZTm+vN11-4" x="20.0625" y="201.597656"/>
</g>
<g style="fill:rgb(0%,0%,0%);fill-opacity:1;">
  <use xlink:href="#SSZTm+vN13-2" x="20.0625" y="198.476562"/>
</g>
<g style="fill:rgb(0%,0%,0%);fill-opacity:1;">
  <use xlink:href="#SSZTm+vN14-1" x="20.0625" y="191.144531"/>
</g>
<g style="fill:rgb(0%,0%,0%);fill-opacity:1;">
  <use xlink:href="#SSZTm+vN14-2" x="20.0625" y="184.917969"/>
</g>
<g style="fill:rgb(0%,0%,0%);fill-opacity:1;">
  <use xlink:href="#SSZTm+vN14-3" x="20.0625" y="174.691406"/>
</g>
<g style="fill:rgb(0%,0%,0%);fill-opacity:1;">
  <use xlink:href="#SSZTm+vN14-4" x="20.0625" y="168.019531"/>
</g>
<path style=" stroke:none;fill-rule:nonzero;fill:rgb(0%,0%,0%);fill-opacity:1;" d="M 80.214844 392.148438 C 80.214844 396.648438 73.464844 396.648438 73.464844 392.148438 C 73.464844 387.648438 80.214844 387.648438 80.214844 392.148438 "/>
<path style=" stroke:none;fill-rule:nonzero;fill:rgb(0%,0%,0%);fill-opacity:1;" d="M 83.484375 392.148438 C 83.484375 396.648438 76.734375 396.648438 76.734375 392.148438 C 76.734375 387.648438 83.484375 387.648438 83.484375 392.148438 "/>
<path style=" stroke:none;fill-rule:nonzero;fill:rgb(0%,0%,0%);fill-opacity:1;" d="M 86.75 392.148438 C 86.75 396.648438 80 396.648438 80 392.148438 C 80 387.648438 86.75 387.648438 86.75 392.148438 "/>
<path style=" stroke:none;fill-rule:nonzero;fill:rgb(0%,0%,0%);fill-opacity:1;" d="M 90.019531 392.148438 C 90.019531 396.648438 83.269531 396.648438 83.269531 392.148438 C 83.269531 387.648438 90.019531 387.648438 90.019531 392.148438 "/>
<path style=" stroke:none;fill-rule:nonzero;fill:rgb(0%,0%,0%);fill-opacity:1;" d="M 93.285156 391.835938 C 93.285156 396.335938 86.535156 396.335938 86.535156 391.835938 C 86.535156 387.335938 93.285156 387.335938 93.285156 391.835938 "/>
<path style=" stroke:none;fill-rule:nonzero;fill:rgb(0%,0%,0%);fill-opacity:1;" d="M 96.550781 391.835938 C 96.550781 396.335938 89.800781 396.335938 89.800781 391.835938 C 89.800781 387.335938 96.550781 387.335938 96.550781 391.835938 "/>
<path style=" stroke:none;fill-rule:nonzero;fill:rgb(0%,0%,0%);fill-opacity:1;" d="M 99.820312 391.835938 C 99.820312 396.335938 93.070312 396.335938 93.070312 391.835938 C 93.070312 387.335938 99.820312 387.335938 99.820312 391.835938 "/>
<path style=" stroke:none;fill-rule:nonzero;fill:rgb(0%,0%,0%);fill-opacity:1;" d="M 103.085938 391.519531 C 103.085938 396.019531 96.335938 396.019531 96.335938 391.519531 C 96.335938 387.019531 103.085938 387.019531 103.085938 391.519531 "/>
<path style=" stroke:none;fill-rule:nonzero;fill:rgb(0%,0%,0%);fill-opacity:1;" d="M 106.355469 391.519531 C 106.355469 396.019531 99.605469 396.019531 99.605469 391.519531 C 99.605469 387.019531 106.355469 387.019531 106.355469 391.519531 "/>
<path style=" stroke:none;fill-rule:nonzero;fill:rgb(0%,0%,0%);fill-opacity:1;" d="M 109.621094 391.519531 C 109.621094 396.019531 102.871094 396.019531 102.871094 391.519531 C 102.871094 387.019531 109.621094 387.019531 109.621094 391.519531 "/>
<path style=" stroke:none;fill-rule:nonzero;fill:rgb(0%,0%,0%);fill-opacity:1;" d="M 112.886719 390.894531 C 112.886719 395.394531 106.136719 395.394531 106.136719 390.894531 C 106.136719 386.394531 112.886719 386.394531 112.886719 390.894531 "/>
<path style=" stroke:none;fill-rule:nonzero;fill:rgb(0%,0%,0%);fill-opacity:1;" d="M 116.15625 390.894531 C 116.15625 395.394531 109.40625 395.394531 109.40625 390.894531 C 109.40625 386.394531 116.15625 386.394531 116.15625 390.894531 "/>
<path style=" stroke:none;fill-rule:nonzero;fill:rgb(0%,0%,0%);fill-opacity:1;" d="M 119.421875 390.578125 C 119.421875 395.078125 112.671875 395.078125 112.671875 390.578125 C 112.671875 386.078125 119.421875 386.078125 119.421875 390.578125 "/>
<path style=" stroke:none;fill-rule:nonzero;fill:rgb(0%,0%,0%);fill-opacity:1;" d="M 122.691406 390.265625 C 122.691406 394.765625 115.941406 394.765625 115.941406 390.265625 C 115.941406 385.765625 122.691406 385.765625 122.691406 390.265625 "/>
<path style=" stroke:none;fill-rule:nonzero;fill:rgb(0%,0%,0%);fill-opacity:1;" d="M 125.957031 390.265625 C 125.957031 394.765625 119.207031 394.765625 119.207031 390.265625 C 119.207031 385.765625 125.957031 385.765625 125.957031 390.265625 "/>
<path style=" stroke:none;fill-rule:nonzero;fill:rgb(0%,0%,0%);fill-opacity:1;" d="M 129.226562 390.578125 C 129.226562 395.078125 122.476562 395.078125 122.476562 390.578125 C 122.476562 386.078125 129.226562 386.078125 129.226562 390.578125 "/>
<path style=" stroke:none;fill-rule:nonzero;fill:rgb(0%,0%,0%);fill-opacity:1;" d="M 132.492188 390.265625 C 132.492188 394.765625 125.742188 394.765625 125.742188 390.265625 C 125.742188 385.765625 132.492188 385.765625 132.492188 390.265625 "/>
<path style=" stroke:none;fill-rule:nonzero;fill:rgb(0%,0%,0%);fill-opacity:1;" d="M 135.757812 390.578125 C 135.757812 395.078125 129.007812 395.078125 129.007812 390.578125 C 129.007812 386.078125 135.757812 386.078125 135.757812 390.578125 "/>
<path style=" stroke:none;fill-rule:nonzero;fill:rgb(0%,0%,0%);fill-opacity:1;" d="M 139.027344 390.578125 C 139.027344 395.078125 132.277344 395.078125 132.277344 390.578125 C 132.277344 386.078125 139.027344 386.078125 139.027344 390.578125 "/>
<path style=" stroke:none;fill-rule:nonzero;fill:rgb(0%,0%,0%);fill-opacity:1;" d="M 142.292969 390.578125 C 142.292969 395.078125 135.542969 395.078125 135.542969 390.578125 C 135.542969 386.078125 142.292969 386.078125 142.292969 390.578125 "/>
<path style=" stroke:none;fill-rule:nonzero;fill:rgb(0%,0%,0%);fill-opacity:1;" d="M 145.5625 390.578125 C 145.5625 395.078125 138.8125 395.078125 138.8125 390.578125 C 138.8125 386.078125 145.5625 386.078125 145.5625 390.578125 "/>
<path style=" stroke:none;fill-rule:nonzero;fill:rgb(0%,0%,0%);fill-opacity:1;" d="M 148.828125 390.894531 C 148.828125 395.394531 142.078125 395.394531 142.078125 390.894531 C 142.078125 386.394531 148.828125 386.394531 148.828125 390.894531 "/>
<path style=" stroke:none;fill-rule:nonzero;fill:rgb(0%,0%,0%);fill-opacity:1;" d="M 152.09375 390.578125 C 152.09375 395.078125 145.34375 395.078125 145.34375 390.578125 C 145.34375 386.078125 152.09375 386.078125 152.09375 390.578125 "/>
<path style=" stroke:none;fill-rule:nonzero;fill:rgb(0%,0%,0%);fill-opacity:1;" d="M 155.363281 390.578125 C 155.363281 395.078125 148.613281 395.078125 148.613281 390.578125 C 148.613281 386.078125 155.363281 386.078125 155.363281 390.578125 "/>
<path style=" stroke:none;fill-rule:nonzero;fill:rgb(0%,0%,0%);fill-opacity:1;" d="M 158.628906 390.578125 C 158.628906 395.078125 151.878906 395.078125 151.878906 390.578125 C 151.878906 386.078125 158.628906 386.078125 158.628906 390.578125 "/>
<path style=" stroke:none;fill-rule:nonzero;fill:rgb(0%,0%,0%);fill-opacity:1;" d="M 161.898438 390.578125 C 161.898438 395.078125 155.148438 395.078125 155.148438 390.578125 C 155.148438 386.078125 161.898438 386.078125 161.898438 390.578125 "/>
<path style=" stroke:none;fill-rule:nonzero;fill:rgb(0%,0%,0%);fill-opacity:1;" d="M 165.164062 390.578125 C 165.164062 395.078125 158.414062 395.078125 158.414062 390.578125 C 158.414062 386.078125 165.164062 386.078125 165.164062 390.578125 "/>
<path style=" stroke:none;fill-rule:nonzero;fill:rgb(0%,0%,0%);fill-opacity:1;" d="M 168.429688 390.578125 C 168.429688 395.078125 161.679688 395.078125 161.679688 390.578125 C 161.679688 386.078125 168.429688 386.078125 168.429688 390.578125 "/>
<path style=" stroke:none;fill-rule:nonzero;fill:rgb(0%,0%,0%);fill-opacity:1;" d="M 171.699219 390.578125 C 171.699219 395.078125 164.949219 395.078125 164.949219 390.578125 C 164.949219 386.078125 171.699219 386.078125 171.699219 390.578125 "/>
<path style=" stroke:none;fill-rule:nonzero;fill:rgb(0%,0%,0%);fill-opacity:1;" d="M 174.964844 390.578125 C 174.964844 395.078125 168.214844 395.078125 168.214844 390.578125 C 168.214844 386.078125 174.964844 386.078125 174.964844 390.578125 "/>
<path style=" stroke:none;fill-rule:nonzero;fill:rgb(0%,0%,0%);fill-opacity:1;" d="M 178.234375 389.953125 C 178.234375 394.453125 171.484375 394.453125 171.484375 389.953125 C 171.484375 385.453125 178.234375 385.453125 178.234375 389.953125 "/>
<path style=" stroke:none;fill-rule:nonzero;fill:rgb(0%,0%,0%);fill-opacity:1;" d="M 181.5 389.324219 C 181.5 393.824219 174.75 393.824219 174.75 389.324219 C 174.75 384.824219 181.5 384.824219 181.5 389.324219 "/>
<path style=" stroke:none;fill-rule:nonzero;fill:rgb(0%,0%,0%);fill-opacity:1;" d="M 184.769531 389.636719 C 184.769531 394.136719 178.019531 394.136719 178.019531 389.636719 C 178.019531 385.136719 184.769531 385.136719 184.769531 389.636719 "/>
<path style=" stroke:none;fill-rule:nonzero;fill:rgb(0%,0%,0%);fill-opacity:1;" d="M 188.035156 388.695312 C 188.035156 393.195312 181.285156 393.195312 181.285156 388.695312 C 181.285156 384.195312 188.035156 384.195312 188.035156 388.695312 "/>
<path style=" stroke:none;fill-rule:nonzero;fill:rgb(0%,0%,0%);fill-opacity:1;" d="M 191.300781 388.070312 C 191.300781 392.570312 184.550781 392.570312 184.550781 388.070312 C 184.550781 383.570312 191.300781 383.570312 191.300781 388.070312 "/>
<path style=" stroke:none;fill-rule:nonzero;fill:rgb(0%,0%,0%);fill-opacity:1;" d="M 194.570312 388.382812 C 194.570312 392.882812 187.820312 392.882812 187.820312 388.382812 C 187.820312 383.882812 194.570312 383.882812 194.570312 388.382812 "/>
<path style=" stroke:none;fill-rule:nonzero;fill:rgb(0%,0%,0%);fill-opacity:1;" d="M 197.835938 384.304688 C 197.835938 388.804688 191.085938 388.804688 191.085938 384.304688 C 191.085938 379.804688 197.835938 379.804688 197.835938 384.304688 "/>
<path style=" stroke:none;fill-rule:nonzero;fill:rgb(0%,0%,0%);fill-opacity:1;" d="M 201.105469 386.1875 C 201.105469 390.6875 194.355469 390.6875 194.355469 386.1875 C 194.355469 381.6875 201.105469 381.6875 201.105469 386.1875 "/>
<path style=" stroke:none;fill-rule:nonzero;fill:rgb(0%,0%,0%);fill-opacity:1;" d="M 204.371094 384.304688 C 204.371094 388.804688 197.621094 388.804688 197.621094 384.304688 C 197.621094 379.804688 204.371094 379.804688 204.371094 384.304688 "/>
<path style=" stroke:none;fill-rule:nonzero;fill:rgb(0%,0%,0%);fill-opacity:1;" d="M 207.636719 382.109375 C 207.636719 386.609375 200.886719 386.609375 200.886719 382.109375 C 200.886719 377.609375 207.636719 377.609375 207.636719 382.109375 "/>
<path style=" stroke:none;fill-rule:nonzero;fill:rgb(0%,0%,0%);fill-opacity:1;" d="M 210.90625 379.914062 C 210.90625 384.414062 204.15625 384.414062 204.15625 379.914062 C 204.15625 375.414062 210.90625 375.414062 210.90625 379.914062 "/>
<path style=" stroke:none;fill-rule:nonzero;fill:rgb(0%,0%,0%);fill-opacity:1;" d="M 214.171875 381.480469 C 214.171875 385.980469 207.421875 385.980469 207.421875 381.480469 C 207.421875 376.980469 214.171875 376.980469 214.171875 381.480469 "/>
<path style=" stroke:none;fill-rule:nonzero;fill:rgb(0%,0%,0%);fill-opacity:1;" d="M 217.441406 382.734375 C 217.441406 387.234375 210.691406 387.234375 210.691406 382.734375 C 210.691406 378.234375 217.441406 378.234375 217.441406 382.734375 "/>
<path style=" stroke:none;fill-rule:nonzero;fill:rgb(0%,0%,0%);fill-opacity:1;" d="M 220.707031 387.441406 C 220.707031 391.941406 213.957031 391.941406 213.957031 387.441406 C 213.957031 382.941406 220.707031 382.941406 220.707031 387.441406 "/>
<path style=" stroke:none;fill-rule:nonzero;fill:rgb(0%,0%,0%);fill-opacity:1;" d="M 223.972656 383.363281 C 223.972656 387.863281 217.222656 387.863281 217.222656 383.363281 C 217.222656 378.863281 223.972656 378.863281 223.972656 383.363281 "/>
<path style=" stroke:none;fill-rule:nonzero;fill:rgb(0%,0%,0%);fill-opacity:1;" d="M 227.242188 384.933594 C 227.242188 389.433594 220.492188 389.433594 220.492188 384.933594 C 220.492188 380.433594 227.242188 380.433594 227.242188 384.933594 "/>
<path style=" stroke:none;fill-rule:nonzero;fill:rgb(0%,0%,0%);fill-opacity:1;" d="M 230.507812 387.128906 C 230.507812 391.628906 223.757812 391.628906 223.757812 387.128906 C 223.757812 382.628906 230.507812 382.628906 230.507812 387.128906 "/>
<path style=" stroke:none;fill-rule:nonzero;fill:rgb(0%,0%,0%);fill-opacity:1;" d="M 233.777344 382.109375 C 233.777344 386.609375 227.027344 386.609375 227.027344 382.109375 C 227.027344 377.609375 233.777344 377.609375 233.777344 382.109375 "/>
<path style=" stroke:none;fill-rule:nonzero;fill:rgb(0%,0%,0%);fill-opacity:1;" d="M 237.042969 381.480469 C 237.042969 385.980469 230.292969 385.980469 230.292969 381.480469 C 230.292969 376.980469 237.042969 376.980469 237.042969 381.480469 "/>
<path style=" stroke:none;fill-rule:nonzero;fill:rgb(0%,0%,0%);fill-opacity:1;" d="M 240.3125 375.519531 C 240.3125 380.019531 233.5625 380.019531 233.5625 375.519531 C 233.5625 371.019531 240.3125 371.019531 240.3125 375.519531 "/>
<path style=" stroke:none;fill-rule:nonzero;fill:rgb(0%,0%,0%);fill-opacity:1;" d="M 243.578125 371.441406 C 243.578125 375.941406 236.828125 375.941406 236.828125 371.441406 C 236.828125 366.941406 243.578125 366.941406 243.578125 371.441406 "/>
<path style=" stroke:none;fill-rule:nonzero;fill:rgb(0%,0%,0%);fill-opacity:1;" d="M 246.84375 364.226562 C 246.84375 368.726562 240.09375 368.726562 240.09375 364.226562 C 240.09375 359.726562 246.84375 359.726562 246.84375 364.226562 "/>
<path style=" stroke:none;fill-rule:nonzero;fill:rgb(0%,0%,0%);fill-opacity:1;" d="M 250.113281 366.421875 C 250.113281 370.921875 243.363281 370.921875 243.363281 366.421875 C 243.363281 361.921875 250.113281 361.921875 250.113281 366.421875 "/>
<path style=" stroke:none;fill-rule:nonzero;fill:rgb(0%,0%,0%);fill-opacity:1;" d="M 253.378906 367.050781 C 253.378906 371.550781 246.628906 371.550781 246.628906 367.050781 C 246.628906 362.550781 253.378906 362.550781 253.378906 367.050781 "/>
<path style=" stroke:none;fill-rule:nonzero;fill:rgb(0%,0%,0%);fill-opacity:1;" d="M 256.648438 365.792969 C 256.648438 370.292969 249.898438 370.292969 249.898438 365.792969 C 249.898438 361.292969 256.648438 361.292969 256.648438 365.792969 "/>
<path style=" stroke:none;fill-rule:nonzero;fill:rgb(0%,0%,0%);fill-opacity:1;" d="M 259.914062 367.363281 C 259.914062 371.863281 253.164062 371.863281 253.164062 367.363281 C 253.164062 362.863281 259.914062 362.863281 259.914062 367.363281 "/>
<path style=" stroke:none;fill-rule:nonzero;fill:rgb(0%,0%,0%);fill-opacity:1;" d="M 263.179688 368.933594 C 263.179688 373.433594 256.429688 373.433594 256.429688 368.933594 C 256.429688 364.433594 263.179688 364.433594 263.179688 368.933594 "/>
<path style=" stroke:none;fill-rule:nonzero;fill:rgb(0%,0%,0%);fill-opacity:1;" d="M 266.449219 366.734375 C 266.449219 371.234375 259.699219 371.234375 259.699219 366.734375 C 259.699219 362.234375 266.449219 362.234375 266.449219 366.734375 "/>
<path style=" stroke:none;fill-rule:nonzero;fill:rgb(0%,0%,0%);fill-opacity:1;" d="M 269.714844 361.402344 C 269.714844 365.902344 262.964844 365.902344 262.964844 361.402344 C 262.964844 356.902344 269.714844 356.902344 269.714844 361.402344 "/>
<path style=" stroke:none;fill-rule:nonzero;fill:rgb(0%,0%,0%);fill-opacity:1;" d="M 272.984375 362.03125 C 272.984375 366.53125 266.234375 366.53125 266.234375 362.03125 C 266.234375 357.53125 272.984375 357.53125 272.984375 362.03125 "/>
<path style=" stroke:none;fill-rule:nonzero;fill:rgb(0%,0%,0%);fill-opacity:1;" d="M 276.25 363.910156 C 276.25 368.410156 269.5 368.410156 269.5 363.910156 C 269.5 359.410156 276.25 359.410156 276.25 363.910156 "/>
<path style=" stroke:none;fill-rule:nonzero;fill:rgb(0%,0%,0%);fill-opacity:1;" d="M 279.515625 363.285156 C 279.515625 367.785156 272.765625 367.785156 272.765625 363.285156 C 272.765625 358.785156 279.515625 358.785156 279.515625 363.285156 "/>
<path style=" stroke:none;fill-rule:nonzero;fill:rgb(0%,0%,0%);fill-opacity:1;" d="M 282.785156 358.890625 C 282.785156 363.390625 276.035156 363.390625 276.035156 358.890625 C 276.035156 354.390625 282.785156 354.390625 282.785156 358.890625 "/>
<path style=" stroke:none;fill-rule:nonzero;fill:rgb(0%,0%,0%);fill-opacity:1;" d="M 286.050781 360.460938 C 286.050781 364.960938 279.300781 364.960938 279.300781 360.460938 C 279.300781 355.960938 286.050781 355.960938 286.050781 360.460938 "/>
<path style=" stroke:none;fill-rule:nonzero;fill:rgb(0%,0%,0%);fill-opacity:1;" d="M 289.320312 366.421875 C 289.320312 370.921875 282.570312 370.921875 282.570312 366.421875 C 282.570312 361.921875 289.320312 361.921875 289.320312 366.421875 "/>
<path style=" stroke:none;fill-rule:nonzero;fill:rgb(0%,0%,0%);fill-opacity:1;" d="M 292.585938 355.128906 C 292.585938 359.628906 285.835938 359.628906 285.835938 355.128906 C 285.835938 350.628906 292.585938 350.628906 292.585938 355.128906 "/>
<path style=" stroke:none;fill-rule:nonzero;fill:rgb(0%,0%,0%);fill-opacity:1;" d="M 295.855469 350.421875 C 295.855469 354.921875 289.105469 354.921875 289.105469 350.421875 C 289.105469 345.921875 295.855469 345.921875 295.855469 350.421875 "/>
<path style=" stroke:none;fill-rule:nonzero;fill:rgb(0%,0%,0%);fill-opacity:1;" d="M 299.121094 365.792969 C 299.121094 370.292969 292.371094 370.292969 292.371094 365.792969 C 292.371094 361.292969 299.121094 361.292969 299.121094 365.792969 "/>
<path style=" stroke:none;fill-rule:nonzero;fill:rgb(0%,0%,0%);fill-opacity:1;" d="M 302.386719 374.890625 C 302.386719 379.390625 295.636719 379.390625 295.636719 374.890625 C 295.636719 370.390625 302.386719 370.390625 302.386719 374.890625 "/>
<path style=" stroke:none;fill-rule:nonzero;fill:rgb(0%,0%,0%);fill-opacity:1;" d="M 305.65625 376.148438 C 305.65625 380.648438 298.90625 380.648438 298.90625 376.148438 C 298.90625 371.648438 305.65625 371.648438 305.65625 376.148438 "/>
<path style=" stroke:none;fill-rule:nonzero;fill:rgb(0%,0%,0%);fill-opacity:1;" d="M 308.921875 374.890625 C 308.921875 379.390625 302.171875 379.390625 302.171875 374.890625 C 302.171875 370.390625 308.921875 370.390625 308.921875 374.890625 "/>
<path style=" stroke:none;fill-rule:nonzero;fill:rgb(0%,0%,0%);fill-opacity:1;" d="M 312.191406 381.480469 C 312.191406 385.980469 305.441406 385.980469 305.441406 381.480469 C 305.441406 376.980469 312.191406 376.980469 312.191406 381.480469 "/>
<path style=" stroke:none;fill-rule:nonzero;fill:rgb(0%,0%,0%);fill-opacity:1;" d="M 315.457031 383.050781 C 315.457031 387.550781 308.707031 387.550781 308.707031 383.050781 C 308.707031 378.550781 315.457031 378.550781 315.457031 383.050781 "/>
<path style=" stroke:none;fill-rule:nonzero;fill:rgb(0%,0%,0%);fill-opacity:1;" d="M 318.722656 372.382812 C 318.722656 376.882812 311.972656 376.882812 311.972656 372.382812 C 311.972656 367.882812 318.722656 367.882812 318.722656 372.382812 "/>
<path style=" stroke:none;fill-rule:nonzero;fill:rgb(0%,0%,0%);fill-opacity:1;" d="M 321.992188 363.597656 C 321.992188 368.097656 315.242188 368.097656 315.242188 363.597656 C 315.242188 359.097656 321.992188 359.097656 321.992188 363.597656 "/>
<path style=" stroke:none;fill-rule:nonzero;fill:rgb(0%,0%,0%);fill-opacity:1;" d="M 325.257812 348.851562 C 325.257812 353.351562 318.507812 353.351562 318.507812 348.851562 C 318.507812 344.351562 325.257812 344.351562 325.257812 348.851562 "/>
<path style=" stroke:none;fill-rule:nonzero;fill:rgb(0%,0%,0%);fill-opacity:1;" d="M 328.527344 353.246094 C 328.527344 357.746094 321.777344 357.746094 321.777344 353.246094 C 321.777344 348.746094 328.527344 348.746094 328.527344 353.246094 "/>
<path style=" stroke:none;fill-rule:nonzero;fill:rgb(0%,0%,0%);fill-opacity:1;" d="M 331.792969 345.402344 C 331.792969 349.902344 325.042969 349.902344 325.042969 345.402344 C 325.042969 340.902344 331.792969 340.902344 331.792969 345.402344 "/>
<path style=" stroke:none;fill-rule:nonzero;fill:rgb(0%,0%,0%);fill-opacity:1;" d="M 335.058594 350.734375 C 335.058594 355.234375 328.308594 355.234375 328.308594 350.734375 C 328.308594 346.234375 335.058594 346.234375 335.058594 350.734375 "/>
<path style=" stroke:none;fill-rule:nonzero;fill:rgb(0%,0%,0%);fill-opacity:1;" d="M 338.328125 362.03125 C 338.328125 366.53125 331.578125 366.53125 331.578125 362.03125 C 331.578125 357.53125 338.328125 357.53125 338.328125 362.03125 "/>
<path style=" stroke:none;fill-rule:nonzero;fill:rgb(0%,0%,0%);fill-opacity:1;" d="M 341.59375 356.070312 C 341.59375 360.570312 334.84375 360.570312 334.84375 356.070312 C 334.84375 351.570312 341.59375 351.570312 341.59375 356.070312 "/>
<path style=" stroke:none;fill-rule:nonzero;fill:rgb(0%,0%,0%);fill-opacity:1;" d="M 344.863281 337.558594 C 344.863281 342.058594 338.113281 342.058594 338.113281 337.558594 C 338.113281 333.058594 344.863281 333.058594 344.863281 337.558594 "/>
<path style=" stroke:none;fill-rule:nonzero;fill:rgb(0%,0%,0%);fill-opacity:1;" d="M 348.128906 345.714844 C 348.128906 350.214844 341.378906 350.214844 341.378906 345.714844 C 341.378906 341.214844 348.128906 341.214844 348.128906 345.714844 "/>
<path style=" stroke:none;fill-rule:nonzero;fill:rgb(0%,0%,0%);fill-opacity:1;" d="M 351.398438 345.402344 C 351.398438 349.902344 344.648438 349.902344 344.648438 345.402344 C 344.648438 340.902344 351.398438 340.902344 351.398438 345.402344 "/>
<path style=" stroke:none;fill-rule:nonzero;fill:rgb(0%,0%,0%);fill-opacity:1;" d="M 354.664062 331.910156 C 354.664062 336.410156 347.914062 336.410156 347.914062 331.910156 C 347.914062 327.410156 354.664062 327.410156 354.664062 331.910156 "/>
<path style=" stroke:none;fill-rule:nonzero;fill:rgb(0%,0%,0%);fill-opacity:1;" d="M 357.929688 323.125 C 357.929688 327.625 351.179688 327.625 351.179688 323.125 C 351.179688 318.625 357.929688 318.625 357.929688 323.125 "/>
<path style=" stroke:none;fill-rule:nonzero;fill:rgb(0%,0%,0%);fill-opacity:1;" d="M 361.199219 340.695312 C 361.199219 345.195312 354.449219 345.195312 354.449219 340.695312 C 354.449219 336.195312 361.199219 336.195312 361.199219 340.695312 "/>
<path style=" stroke:none;fill-rule:nonzero;fill:rgb(0%,0%,0%);fill-opacity:1;" d="M 364.464844 335.675781 C 364.464844 340.175781 357.714844 340.175781 357.714844 335.675781 C 357.714844 331.175781 364.464844 331.175781 364.464844 335.675781 "/>
<path style=" stroke:none;fill-rule:nonzero;fill:rgb(0%,0%,0%);fill-opacity:1;" d="M 367.734375 326.265625 C 367.734375 330.765625 360.984375 330.765625 360.984375 326.265625 C 360.984375 321.765625 367.734375 321.765625 367.734375 326.265625 "/>
<path style=" stroke:none;fill-rule:nonzero;fill:rgb(0%,0%,0%);fill-opacity:1;" d="M 371 327.207031 C 371 331.707031 364.25 331.707031 364.25 327.207031 C 364.25 322.707031 371 322.707031 371 327.207031 "/>
<path style=" stroke:none;fill-rule:nonzero;fill:rgb(0%,0%,0%);fill-opacity:1;" d="M 374.265625 320.929688 C 374.265625 325.429688 367.515625 325.429688 367.515625 320.929688 C 367.515625 316.429688 374.265625 316.429688 374.265625 320.929688 "/>
<path style=" stroke:none;fill-rule:nonzero;fill:rgb(0%,0%,0%);fill-opacity:1;" d="M 377.535156 309.007812 C 377.535156 313.507812 370.785156 313.507812 370.785156 309.007812 C 370.785156 304.507812 377.535156 304.507812 377.535156 309.007812 "/>
<path style=" stroke:none;fill-rule:nonzero;fill:rgb(0%,0%,0%);fill-opacity:1;" d="M 380.800781 334.109375 C 380.800781 338.609375 374.050781 338.609375 374.050781 334.109375 C 374.050781 329.609375 380.800781 329.609375 380.800781 334.109375 "/>
<path style=" stroke:none;fill-rule:nonzero;fill:rgb(0%,0%,0%);fill-opacity:1;" d="M 384.070312 292.695312 C 384.070312 297.195312 377.320312 297.195312 377.320312 292.695312 C 377.320312 288.195312 384.070312 288.195312 384.070312 292.695312 "/>
<path style=" stroke:none;fill-rule:nonzero;fill:rgb(0%,0%,0%);fill-opacity:1;" d="M 387.335938 294.265625 C 387.335938 298.765625 380.585938 298.765625 380.585938 294.265625 C 380.585938 289.765625 387.335938 289.765625 387.335938 294.265625 "/>
<path style=" stroke:none;fill-rule:nonzero;fill:rgb(0%,0%,0%);fill-opacity:1;" d="M 390.601562 287.988281 C 390.601562 292.488281 383.851562 292.488281 383.851562 287.988281 C 383.851562 283.488281 390.601562 283.488281 390.601562 287.988281 "/>
<path style=" stroke:none;fill-rule:nonzero;fill:rgb(0%,0%,0%);fill-opacity:1;" d="M 393.871094 298.65625 C 393.871094 303.15625 387.121094 303.15625 387.121094 298.65625 C 387.121094 294.15625 393.871094 294.15625 393.871094 298.65625 "/>
<path style=" stroke:none;fill-rule:nonzero;fill:rgb(0%,0%,0%);fill-opacity:1;" d="M 397.136719 283.910156 C 397.136719 288.410156 390.386719 288.410156 390.386719 283.910156 C 390.386719 279.410156 397.136719 279.410156 397.136719 283.910156 "/>
<path style=" stroke:none;fill-rule:nonzero;fill:rgb(0%,0%,0%);fill-opacity:1;" d="M 400.40625 293.324219 C 400.40625 297.824219 393.65625 297.824219 393.65625 293.324219 C 393.65625 288.824219 400.40625 288.824219 400.40625 293.324219 "/>
<path style=" stroke:none;fill-rule:nonzero;fill:rgb(0%,0%,0%);fill-opacity:1;" d="M 403.671875 275.441406 C 403.671875 279.941406 396.921875 279.941406 396.921875 275.441406 C 396.921875 270.941406 403.671875 270.941406 403.671875 275.441406 "/>
<path style=" stroke:none;fill-rule:nonzero;fill:rgb(0%,0%,0%);fill-opacity:1;" d="M 406.941406 264.460938 C 406.941406 268.960938 400.191406 268.960938 400.191406 264.460938 C 400.191406 259.960938 406.941406 259.960938 406.941406 264.460938 "/>
<path style=" stroke:none;fill-rule:nonzero;fill:rgb(0%,0%,0%);fill-opacity:1;" d="M 410.207031 258.8125 C 410.207031 263.3125 403.457031 263.3125 403.457031 258.8125 C 403.457031 254.3125 410.207031 254.3125 410.207031 258.8125 "/>
<path style=" stroke:none;fill-rule:nonzero;fill:rgb(0%,0%,0%);fill-opacity:1;" d="M 413.472656 284.222656 C 413.472656 288.722656 406.722656 288.722656 406.722656 284.222656 C 406.722656 279.722656 413.472656 279.722656 413.472656 284.222656 "/>
<path style=" stroke:none;fill-rule:nonzero;fill:rgb(0%,0%,0%);fill-opacity:1;" d="M 416.742188 280.460938 C 416.742188 284.960938 409.992188 284.960938 409.992188 280.460938 C 409.992188 275.960938 416.742188 275.960938 416.742188 280.460938 "/>
<path style=" stroke:none;fill-rule:nonzero;fill:rgb(0%,0%,0%);fill-opacity:1;" d="M 420.007812 269.480469 C 420.007812 273.980469 413.257812 273.980469 413.257812 269.480469 C 413.257812 264.980469 420.007812 264.980469 420.007812 269.480469 "/>
<path style=" stroke:none;fill-rule:nonzero;fill:rgb(0%,0%,0%);fill-opacity:1;" d="M 423.277344 263.203125 C 423.277344 267.703125 416.527344 267.703125 416.527344 263.203125 C 416.527344 258.703125 423.277344 258.703125 423.277344 263.203125 "/>
<path style=" stroke:none;fill-rule:nonzero;fill:rgb(0%,0%,0%);fill-opacity:1;" d="M 426.542969 287.046875 C 426.542969 291.546875 419.792969 291.546875 419.792969 287.046875 C 419.792969 282.546875 426.542969 282.546875 426.542969 287.046875 "/>
<path style=" stroke:none;fill-rule:nonzero;fill:rgb(0%,0%,0%);fill-opacity:1;" d="M 429.808594 267.597656 C 429.808594 272.097656 423.058594 272.097656 423.058594 267.597656 C 423.058594 263.097656 429.808594 263.097656 429.808594 267.597656 "/>
<path style=" stroke:none;fill-rule:nonzero;fill:rgb(0%,0%,0%);fill-opacity:1;" d="M 433.078125 238.105469 C 433.078125 242.605469 426.328125 242.605469 426.328125 238.105469 C 426.328125 233.605469 433.078125 233.605469 433.078125 238.105469 "/>
<path style=" stroke:none;fill-rule:nonzero;fill:rgb(0%,0%,0%);fill-opacity:1;" d="M 436.34375 246.261719 C 436.34375 250.761719 429.59375 250.761719 429.59375 246.261719 C 429.59375 241.761719 436.34375 241.761719 436.34375 246.261719 "/>
<path style=" stroke:none;fill-rule:nonzero;fill:rgb(0%,0%,0%);fill-opacity:1;" d="M 439.613281 274.5 C 439.613281 279 432.863281 279 432.863281 274.5 C 432.863281 270 439.613281 270 439.613281 274.5 "/>
<path style=" stroke:none;fill-rule:nonzero;fill:rgb(0%,0%,0%);fill-opacity:1;" d="M 442.878906 250.65625 C 442.878906 255.15625 436.128906 255.15625 436.128906 250.65625 C 436.128906 246.15625 442.878906 246.15625 442.878906 250.65625 "/>
<path style=" stroke:none;fill-rule:nonzero;fill:rgb(0%,0%,0%);fill-opacity:1;" d="M 446.148438 224.300781 C 446.148438 228.800781 439.398438 228.800781 439.398438 224.300781 C 439.398438 219.800781 446.148438 219.800781 446.148438 224.300781 "/>
<path style=" stroke:none;fill-rule:nonzero;fill:rgb(0%,0%,0%);fill-opacity:1;" d="M 449.414062 213.320312 C 449.414062 217.820312 442.664062 217.820312 442.664062 213.320312 C 442.664062 208.820312 449.414062 208.820312 449.414062 213.320312 "/>
<path style=" stroke:none;fill-rule:nonzero;fill:rgb(0%,0%,0%);fill-opacity:1;" d="M 452.679688 270.105469 C 452.679688 274.605469 445.929688 274.605469 445.929688 270.105469 C 445.929688 265.605469 452.679688 265.605469 452.679688 270.105469 "/>
<path style=" stroke:none;fill-rule:nonzero;fill:rgb(0%,0%,0%);fill-opacity:1;" d="M 455.949219 280.144531 C 455.949219 284.644531 449.199219 284.644531 449.199219 280.144531 C 449.199219 275.644531 455.949219 275.644531 455.949219 280.144531 "/>
<path style=" stroke:none;fill-rule:nonzero;fill:rgb(0%,0%,0%);fill-opacity:1;" d="M 459.214844 221.476562 C 459.214844 225.976562 452.464844 225.976562 452.464844 221.476562 C 452.464844 216.976562 459.214844 216.976562 459.214844 221.476562 "/>
<path style=" stroke:none;fill-rule:nonzero;fill:rgb(0%,0%,0%);fill-opacity:1;" d="M 462.484375 207.359375 C 462.484375 211.859375 455.734375 211.859375 455.734375 207.359375 C 455.734375 202.859375 462.484375 202.859375 462.484375 207.359375 "/>
<path style=" stroke:none;fill-rule:nonzero;fill:rgb(0%,0%,0%);fill-opacity:1;" d="M 465.75 256.617188 C 465.75 261.117188 459 261.117188 459 256.617188 C 459 252.117188 465.75 252.117188 465.75 256.617188 "/>
<path style=" stroke:none;fill-rule:nonzero;fill:rgb(0%,0%,0%);fill-opacity:1;" d="M 469.015625 244.066406 C 469.015625 248.566406 462.265625 248.566406 462.265625 244.066406 C 462.265625 239.566406 469.015625 239.566406 469.015625 244.066406 "/>
<path style=" stroke:none;fill-rule:nonzero;fill:rgb(0%,0%,0%);fill-opacity:1;" d="M 472.285156 210.183594 C 472.285156 214.683594 465.535156 214.683594 465.535156 210.183594 C 465.535156 205.683594 472.285156 205.683594 472.285156 210.183594 "/>
<path style=" stroke:none;fill-rule:nonzero;fill:rgb(0%,0%,0%);fill-opacity:1;" d="M 475.550781 162.496094 C 475.550781 166.996094 468.800781 166.996094 468.800781 162.496094 C 468.800781 157.996094 475.550781 157.996094 475.550781 162.496094 "/>
<path style=" stroke:none;fill-rule:nonzero;fill:rgb(0%,0%,0%);fill-opacity:1;" d="M 478.820312 213.636719 C 478.820312 218.136719 472.070312 218.136719 472.070312 213.636719 C 472.070312 209.136719 478.820312 209.136719 478.820312 213.636719 "/>
<path style=" stroke:none;fill-rule:nonzero;fill:rgb(0%,0%,0%);fill-opacity:1;" d="M 482.085938 191.359375 C 482.085938 195.859375 475.335938 195.859375 475.335938 191.359375 C 475.335938 186.859375 482.085938 186.859375 482.085938 191.359375 "/>
<path style=" stroke:none;fill-rule:nonzero;fill:rgb(0%,0%,0%);fill-opacity:1;" d="M 485.355469 132.066406 C 485.355469 136.566406 478.605469 136.566406 478.605469 132.066406 C 478.605469 127.566406 485.355469 127.566406 485.355469 132.066406 "/>
<path style=" stroke:none;fill-rule:nonzero;fill:rgb(0%,0%,0%);fill-opacity:1;" d="M 488.621094 121.710938 C 488.621094 126.210938 481.871094 126.210938 481.871094 121.710938 C 481.871094 117.210938 488.621094 117.210938 488.621094 121.710938 "/>
<path style=" stroke:none;fill-rule:nonzero;fill:rgb(0%,0%,0%);fill-opacity:1;" d="M 491.886719 173.476562 C 491.886719 177.976562 485.136719 177.976562 485.136719 173.476562 C 485.136719 168.976562 491.886719 168.976562 491.886719 173.476562 "/>
<path style=" stroke:none;fill-rule:nonzero;fill:rgb(0%,0%,0%);fill-opacity:1;" d="M 495.15625 160.613281 C 495.15625 165.113281 488.40625 165.113281 488.40625 160.613281 C 488.40625 156.113281 495.15625 156.113281 495.15625 160.613281 "/>
<path style=" stroke:none;fill-rule:nonzero;fill:rgb(0%,0%,0%);fill-opacity:1;" d="M 498.421875 70.574219 C 498.421875 75.074219 491.671875 75.074219 491.671875 70.574219 C 491.671875 66.074219 498.421875 66.074219 498.421875 70.574219 "/>
<path style=" stroke:none;fill-rule:nonzero;fill:rgb(0%,0%,0%);fill-opacity:1;" d="M 501.691406 73.082031 C 501.691406 77.582031 494.941406 77.582031 494.941406 73.082031 C 494.941406 68.582031 501.691406 68.582031 501.691406 73.082031 "/>
<path style=" stroke:none;fill-rule:nonzero;fill:rgb(0%,0%,0%);fill-opacity:1;" d="M 504.957031 154.027344 C 504.957031 158.527344 498.207031 158.527344 498.207031 154.027344 C 498.207031 149.527344 504.957031 149.527344 504.957031 154.027344 "/>
<path style=" stroke:none;fill-rule:nonzero;fill:rgb(0%,0%,0%);fill-opacity:1;" d="M 508.222656 98.496094 C 508.222656 102.996094 501.472656 102.996094 501.472656 98.496094 C 501.472656 93.996094 508.222656 93.996094 508.222656 98.496094 "/>
<path style=" stroke:none;fill-rule:nonzero;fill:rgb(0%,0%,0%);fill-opacity:1;" d="M 511.492188 58.023438 C 511.492188 62.523438 504.742188 62.523438 504.742188 58.023438 C 504.742188 53.523438 511.492188 53.523438 511.492188 58.023438 "/>
<path style=" stroke:none;fill-rule:nonzero;fill:rgb(0%,0%,0%);fill-opacity:1;" d="M 514.757812 140.222656 C 514.757812 144.722656 508.007812 144.722656 508.007812 140.222656 C 508.007812 135.722656 514.757812 135.722656 514.757812 140.222656 "/>
<path style=" stroke:none;fill-rule:nonzero;fill:rgb(0%,0%,0%);fill-opacity:1;" d="M 518.027344 129.554688 C 518.027344 134.054688 511.277344 134.054688 511.277344 129.554688 C 511.277344 125.054688 518.027344 125.054688 518.027344 129.554688 "/>
<path style=" stroke:none;fill-rule:nonzero;fill:rgb(0%,0%,0%);fill-opacity:1;" d="M 521.292969 85.632812 C 521.292969 90.132812 514.542969 90.132812 514.542969 85.632812 C 514.542969 81.132812 521.292969 81.132812 521.292969 85.632812 "/>
<path style=" stroke:none;fill-rule:nonzero;fill:rgb(0%,0%,0%);fill-opacity:1;" d="M 524.5625 49.867188 C 524.5625 54.367188 517.8125 54.367188 517.8125 49.867188 C 517.8125 45.367188 524.5625 45.367188 524.5625 49.867188 "/>
<path style=" stroke:none;fill-rule:nonzero;fill:rgb(0%,0%,0%);fill-opacity:1;" d="M 527.828125 107.28125 C 527.828125 111.78125 521.078125 111.78125 521.078125 107.28125 C 521.078125 102.78125 527.828125 102.78125 527.828125 107.28125 "/>
<path style=" stroke:none;fill-rule:nonzero;fill:rgb(0%,0%,0%);fill-opacity:1;" d="M 531.09375 124.535156 C 531.09375 129.035156 524.34375 129.035156 524.34375 124.535156 C 524.34375 120.035156 531.09375 120.035156 531.09375 124.535156 "/>
<path style=" stroke:none;fill-rule:nonzero;fill:rgb(0%,0%,0%);fill-opacity:1;" d="M 534.363281 52.691406 C 534.363281 57.191406 527.613281 57.191406 527.613281 52.691406 C 527.613281 48.191406 534.363281 48.191406 534.363281 52.691406 "/>
<path style=" stroke:none;fill-rule:nonzero;fill:rgb(0%,0%,0%);fill-opacity:1;" d="M 537.628906 74.964844 C 537.628906 79.464844 530.878906 79.464844 530.878906 74.964844 C 530.878906 70.464844 537.628906 70.464844 537.628906 74.964844 "/>
<path style=" stroke:none;fill-rule:nonzero;fill:rgb(0%,0%,0%);fill-opacity:1;" d="M 540.898438 89.710938 C 540.898438 94.210938 534.148438 94.210938 534.148438 89.710938 C 534.148438 85.210938 540.898438 85.210938 540.898438 89.710938 "/>
<path style=" stroke:none;fill-rule:nonzero;fill:rgb(0%,0%,0%);fill-opacity:1;" d="M 544.164062 122.652344 C 544.164062 127.152344 537.414062 127.152344 537.414062 122.652344 C 537.414062 118.152344 544.164062 118.152344 544.164062 122.652344 "/>
<path style=" stroke:none;fill-rule:nonzero;fill:rgb(0%,0%,0%);fill-opacity:1;" d="M 547.429688 77.789062 C 547.429688 82.289062 540.679688 82.289062 540.679688 77.789062 C 540.679688 73.289062 547.429688 73.289062 547.429688 77.789062 "/>
<path style=" stroke:none;fill-rule:nonzero;fill:rgb(0%,0%,0%);fill-opacity:1;" d="M 550.699219 101.320312 C 550.699219 105.820312 543.949219 105.820312 543.949219 101.320312 C 543.949219 96.820312 550.699219 96.820312 550.699219 101.320312 "/>
<path style=" stroke:none;fill-rule:nonzero;fill:rgb(0%,0%,0%);fill-opacity:1;" d="M 553.964844 91.90625 C 553.964844 96.40625 547.214844 96.40625 547.214844 91.90625 C 547.214844 87.40625 553.964844 87.40625 553.964844 91.90625 "/>
<path style=" stroke:none;fill-rule:nonzero;fill:rgb(0%,0%,0%);fill-opacity:1;" d="M 557.234375 108.535156 C 557.234375 113.035156 550.484375 113.035156 550.484375 108.535156 C 550.484375 104.035156 557.234375 104.035156 557.234375 108.535156 "/>
<path style=" stroke:none;fill-rule:nonzero;fill:rgb(0%,0%,0%);fill-opacity:1;" d="M 560.5 30.101562 C 560.5 34.601562 553.75 34.601562 553.75 30.101562 C 553.75 25.601562 560.5 25.601562 560.5 30.101562 "/>
<path style=" stroke:none;fill-rule:nonzero;fill:rgb(0%,0%,0%);fill-opacity:1;" d="M 563.765625 302.734375 C 563.765625 307.234375 557.015625 307.234375 557.015625 302.734375 C 557.015625 298.234375 563.765625 298.234375 563.765625 302.734375 "/>
<path style=" stroke:none;fill-rule:nonzero;fill:rgb(0%,0%,0%);fill-opacity:1;" d="M 567.035156 247.519531 C 567.035156 252.019531 560.285156 252.019531 560.285156 247.519531 C 560.285156 243.019531 567.035156 243.019531 567.035156 247.519531 "/>
<path style="fill:none;stroke-width:1;stroke-linecap:butt;stroke-linejoin:miter;stroke:rgb(0%,0%,0%);stroke-opacity:1;stroke-miterlimit:10;" d="M 69.5 547 L 784.5 547 " transform="matrix(0.75,0,0,0.75,0,0)"/>
<path style="fill:none;stroke-width:1;stroke-linecap:butt;stroke-linejoin:miter;stroke:rgb(0%,0%,0%);stroke-opacity:1;stroke-miterlimit:10;" d="M 70 547.5 L 70 15.5 " transform="matrix(0.75,0,0,0.75,0,0)"/>
</g>
</svg>
